<svg xmlns:rdf="http://www.w3.org/1999/02/22-rdf-syntax-ns#" xmlns="http://www.w3.org/2000/svg" viewBox="0 0 578 578" version="1.1" xmlns:cc="http://creativecommons.org/ns#" xmlns:dc="http://purl.org/dc/elements/1.1/">
<path d="m137.23 413.74c-2.0176-3.9028 15.928-61.761 21.57-69.545 7.0788-9.7657 23.491-2.0526 48.876 22.969 14.528 14.32 27.489 26.111 28.802 26.201 1.3128.0924 10.234-12.463 19.825-27.897 26.022-41.874 28.738-42.097 57.757-4.7497 13.419 17.271 25.892 31.511 27.716 31.646 1.8245.13443 13.006-12.949 24.847-29.075 28.99-39.479 36.74-38.31 59.172 8.9296 17.916 37.729 19.592 49.743 6.8063 48.8-5.7475-.42387-12.662-9.8485-22.138-30.173-7.5788-16.256-14.616-29.618-15.638-29.693-1.0222-.0753-10.148 12.094-20.279 27.043-24.881 36.715-34.388 36.318-67.408-2.8147l-23.74-28.13-17.48 29.16c-9.6156 16.035-19.546 30.229-22.068 31.542-6.7247 3.5004-20.853-6.6005-45.361-32.431-11.944-12.588-23.179-22.996-24.967-23.128-1.7879-.1318-6.9569 11.832-11.487 26.586-5.6438 18.382-10.544 27.08-15.57 27.634-4.0337.44454-8.1893-.84616-9.2347-2.8681zm33.74-127.28c-4.1463-5.9976-5.4702-103.56-1.6437-121.13 1.6242-7.4574 4.5463-9.4612 11.562-7.9284 8.7002 1.9009 9.5191 6.0831 11.174 57.067 1.2855 39.597.24478 58.286-3.7137 66.684-5.9891 12.707-11.168 14.287-17.379 5.3039zm210.75-4.2086c-4.7466-11.126-2.1815-111.95 3.0214-118.76 2.3547-3.0825 7.9242-4.6285 12.377-3.4355 6.5751 1.7617 8.2218 7.5297 8.7689 30.716 1.1616 49.23-2.4617 89.863-8.4756 95.05-7.7205 6.6595-11.714 5.7503-15.691-3.5726z" fill="#4ba3ff"/>
</svg>
