<svg shape-rendering="crispEdges" version="1.1" viewBox="0 0 22 684" xmlns="http://www.w3.org/2000/svg"><path d="m17.342 10.168c-.33558 0-.51811.07475-.75586.3125-.23776.23775-.31445.42028-.31445.75586v.55273h2.1406v-.55273c0-.33558-.07475-.51811-.3125-.75586-.23775-.23775-.42223-.3125-.75781-.3125zm-12.496-6.082c-.23147-.0198-.49088.0743-.7207.375l-3.2773 4.5605c-.33159.50695.018611 1.1836.61523 1.1836h2.0371v3.918c0 .76234.61461 1.377 1.377 1.377h6.8066v-1.9336c0-.18721.04173-.38037.10547-.56641h-4.4121c-.76235 0-1.377-.61461-1.377-1.377v-1.418h2.123c.34183 0 1.0446-.46467.59766-1.1934l-3.3184-4.6172c-.12224-.15484-.32517-.28885-.55664-.30859zm.9668-.58594 1.7969 2.5h7.0137c.58173 0 1.0751.35888 1.2773.86719.46104-.15325.94168-.25195 1.4414-.25195.39794 0 .78277.068051 1.1582.16602v-1.9043c0-.7623-.61461-1.377-1.377-1.377zm16.188 10.066v4.6577q0 .32345-.22642.54987t-.54987.22642h-7.7629q-.32345 0-.54987-.22642t-.22642-.54987v-4.6577q0-.32345.22642-.54987t.54987-.22642h.25876v-1.5526q0-1.4879 1.0674-2.5553 1.0674-1.0674 2.5553-1.0674t2.5553 1.0674q1.0674 1.0674 1.0674 2.5553v1.5526h.25876q.32345 0 .54987.22642t.22642.54987zm-6.7278-.77629h4.1402v-1.5526q0-.85715-.60647-1.4636-.60648-.60648-1.4636-.60648t-1.4636.60648q-.60647.60647-.60647 1.4636z" fill="#fff"/><path d="m17.342 675.17c-.33558 0-.51811.0747-.75586.3125-.23776.23775-.31445.42027-.31445.75586v.55273h2.1406v-.55273c0-.33559-.07475-.51811-.3125-.75586-.23775-.2378-.42223-.3125-.75781-.3125zm3.3848-2.0449c.20806.22551.39155.46497.54883.7207-.0053-.32958-.21969-.63386-.54883-.7207zm-6.8496-.0274c-.32349 0-.95874.41982-.64844 1.082.19751-.38953.44516-.75441.75195-1.082zm-9.0312-3.3105c-.23147-.0198-.49088.0743-.7207.375l-3.2773 4.5625c-.3316.50694.018607 1.1836.61523 1.1836h2.0371v3.2168c0 .76234.6146 1.377 1.377 1.377h6.8066v-1.9336c0-.18721.04173-.38038.10547-.56641h-4.4121c-.76235 0-1.377-.61461-1.377-1.377v-.7168h2.123c.34183 0 1.0446-.46662.59766-1.1953l-3.3184-4.6172c-.12225-.15484-.32517-.28885-.55664-.30859zm-.6875-1.0781c-.28051.17219-.49007.44089-.58984.76172l.41211-.57422c.05757-.0753.11781-.1325.17773-.1875zm.88867-.20703c.1974.0643.37602.1703.48828.3125l1.5898 2.2129c.082092-.01517.16537-.02539.25195-.02539h7.2461c.58173 0 1.0751.35888 1.2773.86719.46104-.15325.94168-.25196 1.4414-.25196.39794 0 .78277.068 1.1582.16602v-1.9043c0-.76235-.6146-1.377-1.377-1.377zm12.295-12.332c-.33558 0-.51811.0747-.75586.3125-.23776.23775-.31445.42027-.31445.75586v.55273h2.1406v-.55273c0-.33559-.07475-.51811-.3125-.75586-.23775-.2378-.42223-.3125-.75781-.3125zm2.582-2.7539c.24073.1642.47062.34953.68164.56055.20004.20004.37323.4178.53125.64453l.01563-.0215c.3316-.50695-.01861-1.1836-.61524-1.1836h-.61328zm-6.0469 0c-.34183 0-1.0446.46661-.59766 1.1953l.14648.20312c.18679-.29822.39858-.58218.6543-.83789.211-.211.43914-.39636.67969-.56055zm-9.0312-1.9492c-.23147-.0197-.49088.0743-.7207.375l-3.2773 4.5625c-.33159.50695.018611 1.1836.61523 1.1836h2.0371v2.5371c0 .76234.61461 1.377 1.377 1.377h6.8066v-1.9336c0-.18721.04173-.38038.10547-.56641h-4.4121c-.76235 0-1.377-.61461-1.377-1.377v-.0371h2.123c.34183 0 1.0446-.46661.59766-1.1953l-3.3184-4.6172c-.12225-.15484-.32517-.28885-.55664-.3086zm.03125-1.9648c-.76235 0-1.377.61461-1.377 1.377v.36524l.48047-.66797c.55917-.73153 1.2573-.4588 1.5547-.082l1.2012 1.6719c.19193-.10137.40785-.16409.64062-.16409h7.2461c.58173 0 1.0751.35888 1.2773.86719.46104-.15325.94168-.25196 1.4414-.25196.39794 0 .78277.068 1.1582.16602v-1.9043c0-.76234-.61461-1.377-1.377-1.377zm12.465-12.332c-.33558 0-.51811.0747-.75586.3125-.23776.23775-.31445.42027-.31445.75586v.55273h2.1406v-.55273c0-.33559-.07475-.51811-.3125-.75586-.23775-.2378-.42223-.3125-.75781-.3125zm1.9902-3.0801c.46281.22413.8977.51098 1.2734.88672.15285.15285.27778.32343.40625.49219l.14062-.19532c.3316-.50694-.01861-1.1836-.61524-1.1836zm-5.4551 0c-.34183 0-1.0446.46662-.59766 1.1953l.25391.35352c.16139-.23381.3412-.45644.54688-.66211.37586-.37586.81087-.66257 1.2734-.88672zm-9.0312-1.2949c-.23147-.0197-.49088.0743-.7207.375l-3.2773 4.5606c-.33159.50694.018611 1.1836.61523 1.1836h2.0371v2.2109c0 .76234.61461 1.377 1.377 1.377h6.8066v-1.9336c0-.18721.04173-.38038.10547-.56641h-4.4121c-.66225 0-1.2086-.46632-1.3418-1.0879h2.0879c.34183 0 1.0446-.46662.59766-1.1953l-3.3184-4.6172c-.12225-.15484-.32517-.28689-.55664-.30664zm.03125-2.293c-.76235 0-1.377.61461-1.377 1.377v.69141l.48047-.66797c.55917-.73153 1.2573-.4568 1.5547-.0801l1.0371 1.4414c.22638-.16328.50326-.2617.80469-.2617h7.2461c.58069 0 1.0558.36764 1.2578.875.46691-.15761.95401-.25977 1.4609-.25977.39794 0 .78277.068 1.1582.16602v-1.9043c0-.7623-.61461-1.377-1.377-1.377zm12.465-12.332c-.33558 0-.51811.0747-.75586.3125-.23776.23775-.31445.42027-.31445.75586v.55273h2.0371l.10352-.14453v-.4082c0-.33559-.07475-.51811-.3125-.75586-.23775-.2378-.42223-.3125-.75781-.3125zm-12.453-4.0625c-.23147-.0197-.48893.0743-.71875.375l-3.2773 4.5625c-.33159.50695.018609 1.1836.61523 1.1836h1.9922v1.8965c0 .76234.61461 1.377 1.377 1.377h6.8066v-1.9336c0-.18721.04173-.38038.10547-.56641h-4.4121c-.54447 0-1.0088-.31647-1.2324-.77344h2.0234c.34183 0 1.0446-.46661.59766-1.1953l-3.3184-4.6172c-.12224-.15484-.32713-.28884-.55859-.30859zm-.011719-2.6055c-.76235 0-1.377.61461-1.377 1.377v1.0684l.52539-.73047c.55917-.73152 1.2573-.45678 1.5547-.0801l.87695 1.2207c.24382-.2195.56479-.35544.91992-.35544h7.2461c.52404 0 .97052.29533 1.2031.72461h-2.0039c-.34183 0-1.0466.46662-.59961 1.1953l.41992.58399c.1363-.1828.27304-.36484.4375-.5293.87587-.87587 2.0307-1.3594 3.2617-1.3594s2.3878.48351 3.2637 1.3594c.08936.0894.15719.19216.23828.28711l.25391-.35352c.3316-.50694-.01861-1.1836-.61523-1.1836h-1.9824v-1.8477c0-.7623-.61461-1.377-1.377-1.377zm12.465-12.332c-.33558 0-.51811.0747-.75586.3125-.23776.23775-.31445.42027-.31445.75586v.55273h1.8242l.31641-.4414v-.11133c0-.33559-.07475-.51811-.3125-.75586-.23775-.2378-.42223-.3125-.75781-.3125zm-12.453-3.7188c-.23147-.0197-.48893.0743-.71875.375l-3.2773 4.5625c-.33159.50695.018609 1.1836.61523 1.1836h1.9922v1.5527c0 .76234.61461 1.377 1.377 1.377h6.8066v-1.9336c0-.18721.04173-.38038.10547-.56641h-4.4121c-.39272 0-.74186-.16718-.99219-.42969h1.7832c.34183 0 1.0446-.46661.59766-1.1953l-3.3184-4.6172c-.12224-.15484-.32713-.28884-.55859-.30859zm-.011719-2.9492c-.76235 0-1.377.61461-1.377 1.377v1.4121l.52539-.73047c.55917-.73152 1.2573-.45678 1.5547-.0801l.73828 1.0254c.25224-.30578.62977-.50388 1.0586-.50388h7.2461c.3917 0 .74003.16641.99023.42773h-1.791c-.34183 0-1.0466.46662-.59961 1.1953l.5332.74414c.10655-.13221.20228-.27064.32422-.39258.87587-.87587 2.0307-1.3594 3.2617-1.3594s2.3878.48351 3.2637 1.3594c.04654.0465.07874.10231.12305.15039l.36914-.51367c.3316-.50695-.01861-1.1836-.61523-1.1836h-1.9824v-1.5508c0-.7623-.61461-1.377-1.377-1.377zm12.465-12.332c-.33558 0-.51811.0747-.75586.3125-.23776.23775-.31445.42027-.31445.75586v.55273h1.959l.18164-.2539v-.29883c0-.33559-.07475-.51811-.3125-.75586-.23775-.2378-.42223-.3125-.75781-.3125zm-12.453-3.8906c-.23147-.0197-.48893.0743-.71875.375l-3.2773 4.5625c-.33159.50695.018609 1.1836.61523 1.1836h1.9922v1.7246c0 .76234.61461 1.377 1.377 1.377h6.8066v-1.9336c0-.18721.04173-.38038.10547-.56641h-4.4121c-.47361 0-.88718-.23908-1.1348-.60156h1.9258c.34183 0 1.0446-.46661.59766-1.1953l-3.3184-4.6172c-.12224-.15484-.32713-.28885-.55859-.3086zm-.011719-2.7773c-.76235 0-1.377.61461-1.377 1.377v1.2402l.52539-.73047c.55917-.73153 1.2573-.4568 1.5547-.0801l.80273 1.1191c.25042-.26173.60194-.42576.99414-.42576h7.2461c.47926 0 .89616.2454 1.1426.61523h-1.9434c-.34183 0-1.0466.46662-.59961 1.1953l.46289.64257c.12562-.16358.246-.32998.39453-.47851.87587-.87587 2.0307-1.3594 3.2617-1.3594s2.3878.48351 3.2637 1.3594c.07343.0734.12745.1591.19531.23633l.29688-.41211c.3316-.50695-.01861-1.1836-.61523-1.1836h-1.9824v-1.7383c0-.7623-.61461-1.377-1.377-1.377zm12.465-12.332c-.33558 0-.51811.0747-.75586.3125-.23776.23775-.31445.42027-.31445.75586v.28515l.19141.26758h1.3848l.5332-.74218c-.02996-.21314-.09793-.38309-.28125-.56641-.23775-.2378-.42223-.3125-.75781-.3125zm-12.453-3.4219c-.23147-.0197-.48893.0743-.71875.375l-3.2773 4.5625c-.33159.50695.018609 1.1836.61523 1.1836h1.9922v1.2559c0 .76234.61461 1.377 1.377 1.377h6.8066v-1.9336c0-.18721.04173-.38038.10547-.56641h-4.4121c-.20408 0-.39289-.0529-.56641-.13281h1.3574c.34183 0 1.0446-.46661.59766-1.1953l-3.3184-4.6172c-.12224-.15484-.32713-.28885-.55859-.3086zm-.011719-3.2461c-.76235 0-1.377.61461-1.377 1.377v1.709l.52539-.73047c.55917-.73153 1.2573-.4568 1.5547-.0801l.62891.875c.24264-.39028.67306-.65037 1.168-.65037h7.2461c.16253 0 .31634.0327.46094.084h-1.2617c-.34183 0-1.0466.46662-.59961 1.1953l.66602.92773c.06677-.0758.1193-.16031.19141-.23242.87587-.87587 2.0307-1.3594 3.2617-1.3594 1.2268 0 2.3791.48136 3.2539 1.3516l.50195-.69922c.3316-.50695-.01861-1.1836-.61523-1.1836h-1.9824v-1.207c0-.76234-.61461-1.377-1.377-1.377zm12.465-12.332c-.33558 0-.51811.0747-.75586.3125-.23494.23493-.31069.41804-.3125.74609l.26758.37305c.05655.0716.13429.1362.2207.18945h.77539c.09639-.0601.19239-.13899.2832-.25781l.51758-.7207c-.04872-.11262-.12338-.21518-.23828-.33008-.23775-.2378-.42223-.3125-.75781-.3125zm-12.453-3.0781c-.23147-.0197-.48893.0743-.71875.375l-3.2773 4.5625c-.33159.50695.018609 1.1836.61523 1.1836h1.9922v.91211c0 .76234.61461 1.377 1.377 1.377h6.8066v-1.9336c0-.18721.04173-.38038.10547-.56641h-2.4023c-.16961.11924-.35795.18945-.49805.18945h-.64453c.35744-.0548.93996-.49158.52148-1.1738l-3.3184-4.6172c-.12224-.15484-.32713-.28885-.55859-.3086zm-.011719-3.5898c-.76235 0-1.377.61461-1.377 1.377v2.0527l.52539-.73047c.55917-.73153 1.2573-.4568 1.5547-.0801l.52539.73047c.20643-.49925.69625-.84959 1.2715-.84959h5.2227c.17041-.12069.36097-.19141.50195-.19141h.64453c-.3574.0546-.94208.49131-.52344 1.1738l.7793 1.0859c.02835-.0298.0489-.0645.07813-.0937.87587-.87587 2.0307-1.3594 3.2617-1.3594 1.1681 0 2.2613.44745 3.1191 1.2402l.63672-.88477c.3316-.50694-.01861-1.1836-.61523-1.1836h-1.9824v-.91016c-5e-6-.76235-.61461-1.377-1.377-1.377zm12.465-12.332c-.33558 0-.51811.0747-.75586.3125-.15817.15816-.22908.30791-.26953.47851l.22461.3125c.24449.30969.81966.53301 1.2793-.0684l.40039-.55664c-.03988-.0544-.0631-.10801-.12109-.16601-.23775-.2378-.42223-.3125-.75781-.3125zm-12.453-2.7656c-.23147-.0197-.48893.0743-.71875.375l-3.2773 4.5625c-.33159.50695.018609 1.1836.61523 1.1836h1.9922v.59961c0 .76234.61461 1.377 1.377 1.377h6.8066v-1.9336c0-.18721.04173-.38038.10547-.56641h-2.1152c-.1845.3159-.55078.50195-.78516.50195h-.64453c.35744-.0548.93996-.49158.52148-1.1738l-3.3184-4.6172c-.12224-.15484-.32713-.28885-.55859-.3086zm-.011719-3.9023c-.76235 0-1.377.61461-1.377 1.377v2.3652l.52539-.73047c.55917-.73153 1.2573-.4568 1.5547-.0801l.45703.63672c.14017-.61207.68427-1.0683 1.3398-1.0683h4.9258c.18031-.32778.55974-.51953.79883-.51953h.64453c-.3574.0545-.94208.4913-.52344 1.1738l.91406 1.2734c.86917-.84276 1.9988-1.3125 3.2051-1.3125 1.1037 0 2.1353.40751 2.9707 1.1192l.78516-1.0918c.3316-.50695-.01861-1.1836-.61523-1.1836h-1.9824v-.58203c0-.7623-.61461-1.377-1.377-1.377zm8.8066-8.7109v1.7109h3.4395c.76235 0 1.377-.61461 1.377-1.377v-.33399h-4.2285zm4.7285-2.3457-.25.3457h.25zm-1.0703-1.2754c-.33558 0-.51811.0747-.75586.3125-.07741.0774-.11398.15028-.16016.22265l.11524.16211c.24449.30969.81966.53298 1.2793-.0684l.24414-.3418c-.22082-.20985-.40435-.28711-.72266-.28711zm-12.453-2.3438c-.23147-.0197-.48893.0743-.71875.375l-3.2773 4.5625c-.33159.50695.018609 1.1836.61523 1.1836h1.9922v.17774c0 .76234.61461 1.377 1.377 1.377h6.8066v-1.9336c0-.18721.04173-.38038.10547-.56641h-2.0059c.014882.57379-.56974.92383-.89453.92383h-.64453c.35744-.0548.93996-.49158.52148-1.1738l-3.3184-4.6172c-.12224-.15484-.32713-.28884-.55859-.30859zm-.011719-4.3242c-.76235 0-1.377.61461-1.377 1.377v2.7871l.52539-.73047c.55917-.73152 1.2573-.45678 1.5547-.0801l.41992.58401v-.0605c0-.76239.61461-1.377 1.377-1.377h4.8301c-.01627-.57494.56938-.92578.89453-.92578h.64453c-.3574.0545-.94208.4913-.52344 1.1738l1.0977 1.5273c.84332-.73927 1.8955-1.1602 3.0215-1.1602 1.024 0 1.9848.35216 2.7871.96875l.96875-1.3476c.3316-.50695-.01861-1.1836-.61523-1.1836h-1.9824v-.17578c0-.7623-.61461-1.377-1.377-1.377zm11.395-10.846v.13476h.0957zm2.1289-.49219-.43555.60547c-.0065.008-.01303.0133-.01953.0215h.4668v-.55273c0-.0301-.01046-.0465-.01172-.0742zm-1.0586-.99414c-.33558 0-.51811.0747-.75586.3125-.02602.026-.03242.0492-.05469.0742l.0098.0137c.24449.30968.81966.533 1.2793-.0684l.10352-.14453c-.16655-.11908-.33238-.1875-.58203-.1875zm-12.453-2.0312c-.23147-.0197-.48893.0743-.71875.375l-3.2773 4.5625c-.33159.50695.018609 1.1836.61523 1.1836h2.0098c.068985.69697.6438 1.2422 1.3594 1.2422h6.8066v-1.9336c0-.18721.04173-.38038.10547-.56641h-2.0762c.28983.75857-.44406 1.2363-.82422 1.2363h-.64453c.35744-.0548.93996-.49158.52148-1.1738l-3.3184-4.6172c-.12224-.15484-.32713-.28884-.55859-.30859zm-.011719-4.6367c-.76235 0-1.377.61461-1.377 1.377v3.0996l.52539-.73047c.55917-.73152 1.2573-.45678 1.5547-.0801l.41992.58401v-.37305c0-.76234.61461-1.377 1.377-1.377h4.8926c-.2766-.75109.45402-1.2227.83203-1.2227h.64453c-.3574.0546-.94208.49131-.52344 1.1738l1.2324 1.7148c.8207-.6678 1.8191-1.0508 2.8867-1.0508.96573 0 1.8797.30632 2.6543.85743l1.1016-1.5332c.3316-.50694-.01861-1.1836-.61523-1.1836h-1.9961c-.062211-.70395-.6427-1.2559-1.3633-1.2559zm11.395-11.205v.49414h.58594c-.17997-.068-.34278-.16844-.44727-.30078zm2.082-.42578-.38867.53906c-.1459.19087-.30181.31094-.45703.38086h.9043v-.55273c0-.14878-.02152-.26043-.05859-.36719zm-1.0117-.70117c-.26367 0-.43365.0719-.60938.20703.26554.18083.6535.22821 1.002-.14453-.11252-.0425-.23425-.0625-.39258-.0625zm-12.453-1.7188c-.23147-.0197-.48893.0743-.71875.375l-3.2773 4.5625c-.33159.50695.018609 1.1836.61523 1.1836h2.0762c.18626.53937.68905.92969 1.293.92969h6.8066v-1.9336c0-.18721.04173-.38038.10547-.56641h-2.2402l.066406.0937c.54375.88649-.31071 1.4551-.72656 1.4551h-.64453c.35744-.0548.93996-.49158.52148-1.1738l-3.3184-4.6172c-.12224-.15484-.32713-.28884-.55859-.30859zm-.011719-4.9492c-.76235 0-1.377.61461-1.377 1.377v3.4121l.52539-.73047c.55917-.73152 1.2573-.45678 1.5547-.0801l.41992.58401v-.68555c0-.76234.61461-1.377 1.377-1.377h5.0879l-.0918-.12891c-.54375-.88649.31267-1.4531.72852-1.4531h.64453c-.3574.0545-.94208.4913-.52344 1.1738l1.3945 1.9394c.78912-.58541 1.728-.91602 2.7246-.91602.89424 0 1.7458.26101 2.4824.73633l1.2734-1.7715c.3316-.50695-.01861-1.1836-.61523-1.1836h-2.0781c-.19534-.52206-.68967-.89648-1.2812-.89648zm11.52-11.756c-.07752.13896-.125.28595-.125.49219v.55273h2.1406v-.55273c0-.12591-.02508-.21673-.05078-.31055l-.01953.0352c-.47964.78597-1.2019.58648-1.5371.24218l-.4082-.45898zm-11.875-1.8789c-.23226.005-.4806.12424-.67773.44727l-2.7832 4.8789c-.27679.53883.14297 1.1756.73633 1.1133l2.1016-.22071c.24948.25434.59277.41602.97852.41602h6.8066v-1.9336c0-.18721.04173-.38038.10547-.56641h-2.0762c.61924.82001-.16624 1.4684-.57812 1.5117l-.63672.0664c.34983-.0947.87827-.58703.39258-1.2187l-3.7832-4.2461c-.13776-.14121-.35367-.2526-.58594-.24805zm.35547-5.3652c-.76235 0-1.377.61461-1.377 1.377v3.3106l.068359-.11914c.47964-.78597 1.2019-.58577 1.5371-.24219l.89453 1.0039v-1.4531c0-.76234.61461-1.377 1.377-1.377h4.8027c-.57758-.80563.18891-1.4397.5957-1.4824l.63672-.0664c-.34984.0947-.87827.58758-.39258 1.2207l1.6328 1.8301c.7817-.56817 1.7082-.88672 2.6895-.88672.77269 0 1.5069.20993 2.1699.56836l1.3379-2.3457c.27679-.53883-.14297-1.1756-.73633-1.1133l-1.9941.20898c-.25057-.26489-.60135-.4336-.99609-.4336zm12.465-12.332c-.33558 0-.51811.0747-.75586.3125-.23776.23775-.31445.42027-.31445.75586v.55273h2.1406v-.55273c0-.33451-.07461-.51728-.31055-.75391-.0534-.0147-.10945-.0242-.15625-.0488l-.39844-.23242c-.06743-.0104-.12233-.0332-.20508-.0332zm-13.324-.35938c-.32883-.0347-.70835.11967-.83984.67188l-1.1387 5.5c-.096733.59799.49792 1.0728 1.043.83008l2.9434-1.3106h5.6582v-1.9336c0-.18721.04173-.38038.10547-.56641h-1.457c-.03557.36846-.29924.69272-.51562.78906l-.58984.26367c.30454-.19438.6608-.8314 0-1.2852l-4.9082-2.8691c-.087328-.0459-.19117-.0783-.30078-.0899zm14.969-7.5703c-.06825.009-.13695.0276-.20508.0586l-2.7031 1.2031h-11.201c-.76235 0-1.377.61461-1.377 1.377v3.6953c.15227.008.298.0405.41797.10351l2.082 1.2168v-2.5156c0-.76234.61461-1.377 1.377-1.377h4.166c.0717-.32207.30899-.59291.50391-.67969l.58203-.25976c-.30307.19941-.65033.83069.0059 1.2812l2.0059 1.1699c.7842-.5739 1.7148-.89649 2.7012-.89649.5897 0 1.1605.11821 1.6934.33008l.78906-3.8164c.0846-.52325-.36016-.9539-.83789-.89063zm-15.627-10.057c-.39424.0158-.91357.34891-.69727 1.0742l1.7637 5.332c.21522.56624.96767.67995 1.3184.19727l1.6621-2.2852h4.2773v-1.9336c0-.18721.04173-.38038.10547-.56641h-2.5664l.4375-.60156c.20092-.27655.23701-1.1208-.61523-1.1875zm13.982-1.0137c-.33558 0-.51811.0747-.75586.3125-.23776.23775-.31445.42027-.31445.75586v.55273h2.1406v-.55273c0-.33559-.07475-.51811-.3125-.75586-.23775-.2378-.42223-.3125-.75781-.3125zm-.72461-9.168c-.15368.0408-.30033.11789-.40625.26367l-1.625 2.2363h-9.709c-.76235 0-1.377.61461-1.377 1.377v5.4512l2.5.0117v-2.9629c0-.7623.61461-1.3769 1.377-1.3769h5.3945l-.47461.65234c-.20092.27655-.23896 1.1188.61328 1.1856l1.3281.008c.8558-.78538 1.9412-1.2305 3.1035-1.2305.70594 0 1.3799.17576 1.998.47657-.0024-.0912-.01448-.18825-.04687-.29688l-1.7617-5.3342c-.092626-.2437-.28686-.39639-.50391-.46094zm-7.7578-9.4373c-.08556 7e-4-.17881.0145-.28125.0449l-5.3184 2.0098c-.36241.15601-.72944.65234-.26758 1.252l3.5586 4.3477c.40385.4515 1.1483.28723 1.3027-.28907l.65039-2.4279h3.1797v-1.9336c0-.18721.04173-.38038.10547-.56641h-2.6152l.40234-1.5039c.077413-.2889-.11787-.93852-.7168-.93359zm8.4824-.39453c-.33558 0-.51811.0747-.75586.3125-.23776.23775-.31445.42027-.31445.75586v.55273h2.1406v-.55273c0-.33559-.07475-.51811-.3125-.75586-.23775-.2378-.42223-.3125-.75781-.3125zm-2.4062-9.5449c-.33028-.0118-.6574.18669-.75391.54687l-.62305 2.3301h-8.6816c-.76235-.00016-1.377.61445-1.377 1.3768v6.7363l2.5-.94531v-3.291c0-.76234.61461-1.377 1.377-1.377h5.5117l-.42969 1.6035c-.08847.33018.1785 1.1298.99805.88671l.28711-.10937c.10974-.13724.20968-.28.33594-.40625.87587-.87587 2.0307-1.3594 3.2617-1.3594.28983 0 .57462.0316.85352.084l.58008-.21875c.36241-.15601.72944-.65235.26758-1.252l-3.5586-4.3457c-.15144-.16931-.35066-.25266-.54883-.25976zm2.4062-9.4551c-.33558 0-.51811.0747-.75586.3125-.23776.23775-.31445.42027-.31445.75586v.55273h2.1406v-.55273c0-.33559-.07475-.51811-.3125-.75586-.23775-.2378-.42223-.3125-.75781-.3125zm-8.5254-.0215c-.14622-.008-.31197.0308-.49414.14258l-4.6172 3.3184c-.30968.24449-.53491.81771.066406 1.2774l4.5625 3.2773c.50695.33159 1.1836-.0193 1.1836-.61523v-2.0469h2.166v-1.9336c0-.18721.04173-.38038.10547-.56641h-2.2715v-2.1133c0-.25637-.26252-.71511-.70117-.74024zm9.6836-3.8476-.52734.3789c.17891.0247.35403.0583.52734.10352zm-5.3066-5.5371c-.40426-.0135-.78516.29667-.78516.74414v1.9941h-7.5312c-.76235-.00015-1.377.61446-1.377 1.3768v7.8242l2.5-1.7969v-3.5274c0-.76234.61461-1.377 1.377-1.377h5.0312v2.166c0 .30906.38438.90487.99609.6875.19173-.31306.40881-.61194.67578-.87891.66588-.66587 1.4933-1.1012 2.3926-1.2734l1.748-1.2559c.30968-.24449.53492-.8177-.06641-1.2773l-4.5605-3.2774c-.12674-.0829-.26564-.12441-.40039-.1289zm4.1484-9.5938c-.33558 0-.51811.0747-.75586.3125-.23776.23775-.31445.42027-.31445.75586v.55273h2.1406v-.55273c0-.33559-.07475-.51811-.3125-.75586-.23775-.2378-.42223-.3125-.75781-.3125zm-7.7441-.0215c-.14622-.008-.31197.0308-.49414.14258l-4.6172 3.3184c-.30968.24449-.53491.81771.066406 1.2774l4.5625 3.2773c.50695.33159 1.1836-.0193 1.1836-.61523v-2.0469h1.3848v-1.9336c0-.18721.04173-.38038.10547-.56641h-1.4902v-2.1133c0-.25637-.26252-.71511-.70117-.74024zm8.9023-4.3418-1.1328.8125c.389.002.7655.0682 1.1328.16406zm-5.9941-5.043c-.40426-.0135-.78516.29667-.78516.74414v1.9941h-6.8437c-.76235-.00014-1.377.61447-1.377 1.3768v8.3848l2.5-1.7949v-4.0898c0-.76234.61461-1.377 1.377-1.377h4.3437v2.166c0 .34183.46662 1.0446 1.1953.59765l1.6094-1.1562c.13447-.10514.26849-.20798.41211-.29687l2.5957-1.8652c.30968-.24449.53492-.8177-.06641-1.2773l-4.5605-3.2774c-.12674-.0829-.26564-.12441-.40039-.1289zm4.8359-9.5938c-.33558 0-.51811.0747-.75586.3125-.23776.23775-.31445.42027-.31445.75586v.55273h2.1406v-.55273c0-.33559-.07475-.51811-.3125-.75586-.23775-.2378-.42223-.3125-.75781-.3125zm-7.0254-.0215c-.14622-.008-.31197.0308-.49414.14258l-4.6172 3.3184c-.30968.24449-.53491.81771.066406 1.2774l4.5625 3.2773c.50695.33159 1.1836-.0186 1.1836-.61523v-2.0469h.66602v-1.9336c0-.18721.04173-.38038.10547-.56641h-.77148v-2.1133c0-.25637-.26252-.71511-.70117-.74024zm6.9414-6.6328.70898.50977c.73153.55917.45877 1.2573.08203 1.5547l-1.5625 1.1211c.27934-.0527.56498-.084.85547-.084.39794 0 .78277.0681 1.1582.16602v-1.9043c0-.71603-.54464-1.2948-1.2422-1.3633zm-5.5176-2.752c-.40426-.0135-.78516.29667-.78516.74414v1.9941h-6.0781c-.76235-.00013-1.377.61448-1.377 1.3768v9.2461c0 .67642.48534 1.2339 1.127 1.3516l-.62109-.44531c-.73153-.55917-.45877-1.2573-.082031-1.5547l2.1191-1.5234c-.025891-.10576-.042969-.2142-.042969-.32812v-4.2461c0-.76234.61461-1.377 1.377-1.377h3.5781v2.166c0 .34183.46662 1.0446 1.1953.59765l4.6172-3.3184c.30968-.24449.53492-.8177-.06641-1.2773l-4.5605-3.2774c-.12674-.0829-.26564-.12441-.40039-.1289zm5.6016-9.5938c-.33558 0-.51811.0747-.75586.3125-.23776.23775-.31445.42027-.31445.75586v.55273h2.1406v-.55273c0-.33559-.07475-.51811-.3125-.75586-.23775-.2378-.42223-.3125-.75781-.3125zm-6.416-.0215c-.14622-.008-.31197.0308-.49414.14258l-4.6172 3.3184c-.30968.24449-.53491.81771.066406 1.2774l4.5625 3.2773c.50695.33159 1.1836-.0186 1.1836-.61523v-2.0469h.05664v-1.9336c0-.18721.04173-.38038.10547-.56641h-.16211v-2.1133c0-.25637-.26252-.71511-.70117-.74024zm5.75-6.6465.72852.52344c.73153.55917.45877 1.2573.08203 1.5547l-1.6387 1.1777c.01838.0363.02753.0773.04297.11523.46398-.15542.94785-.25586 1.4512-.25586.39794 0 .78277.0681 1.1582.16602v-1.9043c0-.76246-.61461-1.3771-1.377-1.3771h-.44727zm-5.498-2.7383c-.40426-.0135-.78516.29667-.78516.74414v1.9941h-5.5156c-.76235-.00012-1.377.61449-1.377 1.3768v9.2461c0 .76234.61461 1.377 1.377 1.377h.39258l-.6543-.4707c-.73153-.55917-.45877-1.2573-.082031-1.5547l1.6465-1.1836c-.11064-.19844-.17969-.42395-.17969-.66797v-4.2461c0-.76234.61461-1.377 1.377-1.377h3.0156v2.166c0 .34183.46662 1.0446 1.1953.59765l4.6172-3.3184c.30968-.24449.53492-.8177-.06641-1.2773l-4.5605-3.2774c-.12674-.0829-.26564-.12441-.40039-.1289zm6.1641-9.5938c-.33558 0-.51811.0747-.75586.3125-.23776.23775-.31445.42027-.31445.75586v.55273h2.1406v-.55273c0-.33559-.07475-.51811-.3125-.75586-.23775-.2378-.42223-.3125-.75781-.3125zm-5.8066-.0215c-.14622-.008-.31197.0308-.49414.14258l-4.6172 3.3184c-.30968.24449-.53491.81771.066406 1.2774l4.5625 3.2773c.20294.13274.43173.1516.63477.0937-.000211-.0104-.0039-.0209-.0039-.0312v-4.6582c0-.44897.20023-.93851.51953-1.2578.009-.009.02342-.01.0332-.0176v-1.4043c0-.25637-.26252-.71511-.70117-.74024zm4.5-6.6465.72852.52344c.73153.55917.45877 1.2573.08203 1.5547l-1.2109.86915c.11216.12208.20443.26374.26758.41992.46051-.15287.94037-.25196 1.4395-.25196.39794 0 .78277.0681 1.1582.16602v-1.9043c1e-6-.76245-.6146-1.3771-1.377-1.3771h-1.0879zm-5.498-2.7383c-.40426-.0135-.78516.29667-.78516.74414v1.9941h-4.875c-.76235-.00011-1.377.6145-1.377 1.3768v9.2461c0 .76234.61461 1.377 1.377 1.377h1.002l-.6543-.4707c-.73153-.55917-.45877-1.2573-.082031-1.5547l1.2441-.89453c-.23921-.24752-.38672-.58436-.38672-.95703v-4.2461c0-.76234.61461-1.377 1.377-1.377h2.375v2.166c0 .34183.46662 1.0446 1.1953.59765l4.6172-3.3184c.30968-.24449.53492-.8177-.06641-1.2773l-4.5605-3.2774c-.12674-.0829-.26564-.12441-.40039-.1289zm6.8047-9.5938c-.33558 0-.51811.0747-.75586.3125-.23776.23775-.31445.42027-.31445.75586v.55273h2.1406v-.55273c0-.33559-.07475-.51811-.3125-.75586-.23775-.2378-.42223-.3125-.75781-.3125zm-5.2988-.0215c-.14622-.008-.31197.0308-.49414.14258l-4.6172 3.3184c-.30968.24439-.53296.81761.068359 1.2772l4.5605 3.2773c.03954.0259.08184.0408.12305.0586v-4.6543c0-.44897.20023-.93851.51953-1.2578.13089-.13089.34221-.12769.51562-.21289v-.85937c0-.0869.02059-.1698.02539-.25586v-.0937c0-.25637-.26252-.71511-.70117-.74024zm3.4844-6.6465.72852.52344c.73153.55917.45877 1.2573.08203 1.5547l-.92969.66797c.22017.15281.38363.37267.48438.625.46346-.15503.94653-.25586 1.4492-.25586.39794 0 .78277.0681 1.1582.16602v-1.9043c2e-6-.76244-.6146-1.377-1.377-1.377h-1.5957zm-5.498-2.7383c-.40427-.0135-.78516.29667-.78516.74414v1.9941h-4.3672c-.76235-1e-4-1.377.61451-1.377 1.3768v9.2461c0 .76234.61461 1.377 1.377 1.377h1.5098l-.6543-.4707c-.73153-.55917-.45682-1.2573-.080078-1.5547l.97266-.69922c-.37634-.24536-.625-.66807-.625-1.1523v-4.2461c0-.76234.61461-1.377 1.377-1.377h1.8672v2.166c0 .34183.46662 1.0446 1.1953.59765l4.6172-3.3184c.30968-.24449.53492-.8177-.06641-1.2773l-4.5625-3.2774c-.12674-.0829-.26368-.12441-.39844-.1289zm7.3125-9.5938c-.33558 0-.51811.0747-.75586.3125-.23776.23775-.31445.42027-.31445.75586v.55273h2.1406v-.55273c0-.33559-.07475-.51811-.3125-.75586-.23775-.2378-.42223-.3125-.75781-.3125zm-4.8438-.0215c-.14622-.008-.31197.0308-.49414.14258l-4.6172 3.3184c-.30968.24449-.53296.81771.068359 1.2774l4.2285 3.0391v-4.3574c0-.44897.20023-.93851.51953-1.2578.13089-.13089.34221-.12769.51562-.21289v-.85937c0-.33089.04108-.65472.10938-.97071-.09505-.0641-.20373-.1119-.33008-.11914zm2.5293-6.6465.72852.52344c.73153.55917.45877 1.2573.08203 1.5547l-.71875.51563c.35648.13743.63172.42341.77344.77734.46346-.15503.94653-.25586 1.4492-.25586.39794 0 .78277.068 1.1582.16602v-1.9043c2e-6-.76243-.6146-1.377-1.377-1.377h-2.0957zm-5.498-2.7383c-.40427-.0135-.7832.29667-.7832.74414v1.9941h-3.8691c-.76235-9e-5-1.377.61452-1.377 1.3769v9.2461c0 .76234.61461 1.377 1.377 1.377h1.9648l-.6543-.4707c-.73153-.55917-.45682-1.2573-.080078-1.5547l.78711-.56445c-.52248-.19527-.89453-.69522-.89453-1.2871v-4.2461c0-.76234.61461-1.377 1.377-1.377h1.3691v2.166c0 .34183.46466 1.0446 1.1934.59765l4.6172-3.3184c.30968-.24449.53492-.8177-.06641-1.2773l-4.5605-3.2774c-.12674-.0829-.26564-.12441-.40039-.1289zm7.8125-9.5938c-.33558 0-.51811.0747-.75586.3125-.23776.23775-.31445.42027-.31445.75586v.55273h2.1406v-.55273c0-.33559-.07475-.51811-.3125-.75586-.23775-.2378-.42223-.3125-.75781-.3125zm-4.4824-.004c-.10202.0189-.20805.0537-.32422.125l-4.6172 3.3184c-.30968.24449-.53296.81771.068359 1.2774l3.6973 2.6562v-3.9746c0-.44897.20023-.93851.51953-1.2578.13089-.13089.34221-.12769.51562-.21289v-.85937c0-.36737.05669-.72387.14062-1.0723zm1.6523-6.6641.72852.52344c.73153.55917.45877 1.2573.08203 1.5547l-.60156.43165c.5381.0383.99044.38027 1.1816.85742.46051-.15287.94037-.25196 1.4395-.25196.39794 0 .78277.068 1.1582.16602v-1.9043c2e-6-.76234-.6146-1.377-1.377-1.377zm-5.498-2.7383c-.40427-.0135-.7832.29667-.7832.74414v1.9941h-3.3535c-.76235 0-1.377.61461-1.377 1.377v9.2461c0 .76234.61461 1.377 1.377 1.377h2.4961l-.6543-.4707c-.73153-.55917-.45682-1.2573-.080078-1.5547l.66992-.48047c-.72965-.03623-1.3086-.6322-1.3086-1.3711v-4.2461c0-.76234.61461-1.377 1.377-1.377h.85352v2.166c0 .34183.46466 1.0446 1.1934.59765l4.6172-3.3184c.30968-.24449.53492-.8177-.06641-1.2773l-4.5605-3.2774c-.12674-.0829-.26564-.12441-.40039-.1289zm3.7852-9.3242-4.4121 3.1699c-.30968.24449-.53296.81771.068359 1.2774l3.2285 2.3203v-3.6387c0-.44897.20023-.93851.51953-1.2578.13089-.13089.34221-.12769.51562-.21289v-.85937c0-.27132.03394-.53709.08008-.79883zm4.543-.26953c-.33558 0-.51811.0747-.75586.3125-.23776.23775-.31445.42027-.31445.75586v.55273h2.1406v-.55273c0-.33559-.07475-.51811-.3125-.75586-.23775-.2378-.42223-.3125-.75781-.3125zm-3.2832-6.668.72852.52344c.73153.55917.45877 1.2573.08203 1.5547l-.58789.42188h.3418c.58173 0 1.0751.35888 1.2773.86719.46104-.15325.94168-.25196 1.4414-.25196.39794 0 .78277.068 1.1582.16602v-1.9043c0-.76234-.61461-1.377-1.377-1.377zm-5.498-2.7383c-.40427-.0135-.7832.29667-.7832.74414v1.9941h-2.9004c-.76235 0-1.377.61461-1.377 1.377v9.2461c0 .76234.61461 1.377 1.377 1.377h2.9648l-.6543-.4707c-.73153-.55917-.45682-1.2573-.080078-1.5547l.66016-.47461h-.39062c-.76235 0-1.377-.61461-1.377-1.377v-4.2461c0-.76234.61461-1.377 1.377-1.377h.40039v2.166c0 .34183.46466 1.0446 1.1934.59765l4.6172-3.3184c.30968-.24449.53492-.8177-.06641-1.2773l-4.5605-3.2774c-.12674-.0829-.26564-.12441-.40039-.1289zm4.1953-8.9023-3.8223 2.748c-.30968.24449-.53296.81771.068359 1.2774l2.6816 1.9277v-3.2461c0-.44897.20023-.93851.51953-1.2578.13089-.13089.34221-.12769.51562-.21289v-.85937c0-.12801.02672-.25083.03711-.37695zm4.5859-.69141c-.33558 0-.51811.0747-.75586.3125-.23776.23775-.31445.42027-.31445.75586v.55273h2.1406v-.55273c0-.33559-.07475-.51811-.3125-.75586-.23775-.2378-.42223-.3125-.75781-.3125zm-3.8145-6.668.72852.52344c.73153.55917.45877 1.2573.08203 1.5547l-.58789.42188h.87305c.58173 0 1.0751.35888 1.2773.86719.46104-.15325.94168-.25196 1.4414-.25196.39794 0 .78277.068 1.1582.16602v-1.9043c0-.76234-.61461-1.377-1.377-1.377zm-5.498-2.7383c-.40427-.0135-.7832.29667-.7832.74414v1.9941h-2.3691c-.76235 0-1.377.61461-1.377 1.377v9.2461c0 .76234.61461 1.377 1.377 1.377h3.5117l-.6543-.4707c-.73153-.55917-.45682-1.2573-.080078-1.5547l.66016-.47461h-.9375c-.76235 0-1.377-.61461-1.377-1.377v-4.2461c0-.71691.54725-1.2922 1.2461-1.3594v2.1484c0 .34183.46466 1.0446 1.1934.59765l4.6172-3.3184c.30968-.24449.53492-.8177-.06641-1.2773l-4.5605-3.2774c-.12674-.0829-.26564-.12441-.40039-.1289zm5.6543-5.9727v4.0664l.20117.14453h1.2461c.09804-.12259.16211-.27506.16211-.45312v-2.0469h1.8301c.76235 0 1.377-.61461 1.377-1.377v-.33399h-4.2285zm-.96484-2.5098-3.2383 2.3281c-.30968.24449-.53296.81771.068359 1.2774l2.1348 1.5332v-2.8516c0-.44897.20023-.93851.51953-1.2578.13089-.13089.34221-.12769.51562-.21289zm4.623-1.1113c-.33558 0-.51811.0747-.75586.3125-.23776.23775-.31445.42027-.31445.75586v.55273h2.1406v-.55273c0-.33559-.07475-.51811-.3125-.75586-.23775-.2378-.42223-.3125-.75781-.3125zm-4.3145-6.668.72852.52344c.73153.55917.45877 1.2573.08203 1.5547l-.58789.42188h1.373c.58173 0 1.0751.35888 1.2773.86719.46104-.15325.94168-.25196 1.4414-.25196.39794 0 .78277.068 1.1582.16602v-1.9043c0-.76234-.61461-1.377-1.377-1.377zm-5.498-2.7383c-.40427-.0135-.7832.29667-.7832.74414v1.9941h-1.8691c-.76235 0-1.377.61461-1.377 1.377v9.2461c0 .76234.61461 1.377 1.377 1.377h4.0586l-.6543-.4707c-.73153-.55917-.45682-1.2573-.080078-1.5547l.66016-.47461h-1.4844c-.76235 0-1.377-.61461-1.377-1.377v-4.2461c0-.53319.30444-.98801.74609-1.2168v2.0059c0 .34183.46466 1.0446 1.1934.59765l4.6172-3.3184c.30968-.24449.53492-.8177-.06641-1.2773l-4.5605-3.2774c-.12674-.0829-.26564-.12441-.40039-.1289zm5.1895-8.0879-2.6914 1.9336c-.3097.24449-.53295.81771.06836 1.2774l1.5879 1.1406v-2.459c0-.44897.20023-.93851.51953-1.2578.13089-.13089.34221-.12769.51562-.21289v-.42187zm4.623-1.5059c-.33558 0-.51811.0747-.75586.3125-.11888.11887-.1972.2245-.24609.3418-.04889.11729-.06836.24626-.06836.41406v.55273h2.1406v-.55273c0-.33559-.07475-.51811-.3125-.75586-.23775-.2378-.42223-.3125-.75781-.3125zm-4.8613-6.668.72852.52344c.73153.55917.45877 1.2572.08203 1.5547l-.58789.42188h1.9199c.58173 0 1.0751.35888 1.2773.86719.009-.003.01836-.005.02734-.008.21383-.0696.42878-.13055.65234-.16797.24922-.0471.50213-.0762.76172-.0762.23507 0 .46472.0287.69141.0684.15634.0237.30896.0563.46094.0957.002.00051.0039.001.0059.002v-1.9043c-3.8e-5-.76221-.61464-1.3768-1.377-1.3768zm-5.498-2.7383c-.40427-.0135-.7832.29667-.7832.74414v1.9941h-1.3223c-.76235 0-1.377.61461-1.377 1.377v9.2461c0 .76234.61461 1.377 1.377 1.377h4.6055l-.6543-.4707c-.73153-.55917-.45682-1.2573-.080078-1.5547l.66016-.47461h-2.0312c-.76235 0-1.377-.61461-1.377-1.377v-4.2461c0-.25713.077077-.49369.19922-.69922v1.4883c0 .34183.46466 1.0446 1.1934.59765l4.6172-3.3184c.30968-.24449.53491-.8177-.06641-1.2773l-4.5605-3.2774c-.12674-.0829-.26564-.12441-.40039-.1289zm4.9258-7.0332-1.2246.8789c-.30968.24449-.53296.81771.06836 1.2774l.93164.66992v-1.9883c0-.28215.0866-.57602.22461-.83789zm5.4336-2.5606c-.33558 0-.51811.0747-.75586.3125-.0537.0537-.07309.10383-.11133.1543v.17578c-.0054-.0353-.03027-.0768-.04297-.11524-.09942.15339-.16016.31081-.16016.54102v.55273h2.1406v-.55273c0-.33559-.07475-.51811-.3125-.75586-.23775-.2378-.42223-.3125-.75781-.3125zm-5.4863-6.668.72852.52344c.73153.55917.45877 1.2572.08203 1.5547l-.58789.42188h2.5449c.58173 0 1.0751.35888 1.2773.86719.46104-.15325.94168-.25196 1.4414-.25196.39794 0 .78277.068 1.1582.16602v-1.9043c0-.76234-.61461-1.377-1.377-1.377zm-5.498-2.7383c-.40427-.0135-.7832.29667-.7832.74414v1.9941h-.69727c-.76235 0-1.377.61461-1.377 1.377v9.2461c0 .76234.61461 1.377 1.377 1.377h5.2617l-.6543-.4707c-.73153-.55917-.45682-1.2573-.080078-1.5547l.66016-.47461h-2.6875c-.76235 0-1.377-.61461-1.377-1.377v-2.0078c-.25814-.19736-.4043-.51814-.4043-.72851v-.64453c.05485.35744.48963.93995 1.1719.52148l4.6172-3.3184c.30968-.24449.53491-.8177-.06641-1.2773l-4.5605-3.2774c-.12674-.0829-.26564-.12441-.40039-.1289zm5.3457-6.3691-.30078.21484c-.30968.24449-.53296.81771.06836 1.2774l.21289.15234v-1.4707c0-.0571.01322-.11585.01953-.17383zm5.6387-3.2246c-.06013 0-.09694.0181-.14844.0234v.61914c-.02616-.17137-.14517-.38955-.33203-.5293-.09163.0486-.17946.10328-.27539.19922-.23776.23775-.31445.42027-.31445.75586v.55273h2.1406v-.55273c0-.33559-.07475-.51811-.3125-.75586-.23775-.2377-.42223-.3125-.75781-.3125zm-6.2207-6.668.72852.52344c.73153.55917.45877 1.2573.08203 1.5547l-.58789.42188h3.2793c.58173 0 1.0751.35888 1.2773.86719.46104-.15325.94168-.25196 1.4414-.25196.39794 0 .78277.068 1.1582.16602v-1.9043c0-.76234-.61461-1.377-1.377-1.377zm-5.498-2.7383c-.40427-.0135-.7832.29667-.7832.74414v1.998c-.74463.02004-1.3398.62344-1.3398 1.373v9.2461c0 .76234.61461 1.377 1.377 1.377h5.9805l-.6543-.4707c-.73153-.55917-.45682-1.2573-.08008-1.5547l.66016-.47461h-3.4062c-.76235 0-1.377-.61461-1.377-1.377v-1.8672c-.7033.19627-1.1387-.505-1.1387-.86914v-.64453c.05485.35744.48963.93995 1.1719.52148l4.6172-3.3184c.30968-.24449.53492-.8177-.06641-1.2773l-4.5605-3.2774c-.12674-.0829-.26564-.12441-.40039-.1289zm11.697-9.5898c-.31922.004-.50281.077-.73437.30859-.23776.23775-.31445.42027-.31445.75586v.55273h2.1406v-.55273c0-.33559-.07475-.51811-.3125-.75586-.08139-.0814-.15728-.12124-.23438-.16797v.49805c-.03505-.22968-.2304-.54844-.54492-.63867zm-6.9492-6.6719.72852.52344c.73153.55917.45877 1.2573.08203 1.5547l-.58789.42188h4.0293c.58173 0 1.0751.35888 1.2773.86719.46104-.15325.94168-.25196 1.4414-.25196.39794 0 .78277.068 1.1582.16602v-1.9043c0-.76234-.61461-1.377-1.377-1.377zm-5.498-2.7383c-.40427-.0135-.7832.29667-.7832.74414v2.2422c-.35641.24848-.58984.65998-.58984 1.1289v9.2461c0 .76234.61461 1.377 1.377 1.377h6.6523l-.6543-.4707c-.73153-.55917-.45682-1.2573-.08008-1.5547l.66016-.47461h-4.0781c-.76235 0-1.377-.61461-1.377-1.377v-2.3223l-.43555.3125c-.88649.54375-1.4531-.31071-1.4531-.72656v-.64453c.05485.35744.48963.93995 1.1719.52148l4.6172-3.3184c.30968-.24449.53491-.8177-.066406-1.2773l-4.5605-3.2773c-.12674-.0829-.26564-.12442-.40039-.12891zm12.469-9.5938c-.33558 0-.51811.07475-.75586.3125-.23776.23775-.31445.42028-.31445.75586v.55273h2.1406v-.55273c0-.33558-.07475-.51811-.3125-.75586-.23775-.23775-.42223-.3125-.75781-.3125zm-7.0996-6.668c.54292.41125.41869 1.0222.14844 1.3477l-1.0488 1.1523h5.2813c.58173 0 1.0751.35888 1.2773.86719.46104-.15325.94168-.25195 1.4414-.25195.39794 0 .78277.06805 1.1582.16602v-1.9043c0-.76234-.61461-1.377-1.377-1.377zm-6.8164-2.0586c-.4895-.0462-.92885.3878-.82031.89844l.89453 4.207v7.5762c0 .76234.61461 1.377 1.377 1.377h6.8066v-.05078c-.45779-.40898-.33751-.97909-.08008-1.2891l.08008-.08789v-.50586c0-.18721.04173-.38037.10547-.56641l-4.4121-1e-6c-.76235 0-1.377-.61461-1.377-1.377v-1.9473l-.26367.28906c-.75406.71618-1.4878-.003-1.5742-.41016l-.13281-.62891c.12934.33813.67465.81383 1.2539.26367l3.8281-4.2051c.25208-.30354.35171-.91176-.33203-1.2363l-5.1426-2.2559c-.070601-.0274-.14101-.04418-.21094-.05078zm13.916-10.273c-.33558 0-.51811.07475-.75586.3125-.23776.23775-.31445.42028-.31445.75586v.55273h2.1406v-.55273c0-.33558-.07475-.51811-.3125-.75586-.23775-.23775-.42223-.3125-.75781-.3125zm-7.9688-6.668-.82617 2.5h6.0762c.58173 0 1.0751.35888 1.2773.86719.46104-.15325.94168-.25195 1.4414-.25195.39794 0 .78277.06805 1.1582.16602v-1.9043c0-.76234-.61461-1.377-1.377-1.377zm-1.918-.34766-5.6172.0293c-.60504.029697-.94639.71068-.5957 1.1934l2.2578 3.1094v6.6387c0 .76234.61461 1.377 1.377 1.377h6.8066v-1.9336c0-.18721.04173-.38037.10547-.56641h-4.4121c-.76235 0-1.377-.61461-1.377-1.377v-1.0137c-.17659-.0686-.3262-.17059-.40234-.27539l-.37695-.51953c.25596.25614.94862.46836 1.2539-.26953l1.7852-5.3984c.10683-.37982-.048043-.97573-.80469-.99414zm9.8867-11.984c-.33558 0-.51811.07475-.75586.3125-.23776.23775-.31445.42028-.31445.75586v.55273h2.1406v-.55273c0-.33558-.07475-.51811-.3125-.75586-.23775-.23775-.42223-.3125-.75781-.3125zm-9.6094-6.668.51758 2.5h6.373c.58173 0 1.0751.35888 1.2773.86719.46104-.15325.94168-.25195 1.4414-.25195.39794 0 .78277.06805 1.1582.16602v-1.9043c0-.76234-.61461-1.377-1.377-1.377zm-1.6172-.60938c-.13554.004-.28701.04421-.45312.13477l-4.8496 2.834c-.50912.32824-.46497 1.0894.080078 1.332l2.6074 1.1602v5.7715c0 .76234.61461 1.377 1.377 1.377h6.8066v-1.9336c0-.18721.04173-.38037.10547-.56641h-4.4121c-.76235 0-1.377-.61461-1.377-1.377v-2.1582l.97656.43555c.31228.13904 1.1451-.002 1.0332-.84961l-1.1543-5.5664c-.073046-.28677-.33363-.60531-.74023-.59375zm11.227-11.723c-.33558 0-.51811.07475-.75586.3125-.23776.23775-.31445.42028-.31445.75586v.55273h2.1406v-.55273c0-.33558-.07475-.51811-.3125-.75586-.23775-.23775-.42223-.3125-.75781-.3125zm-10.713-6.668 1.4258 2.5h6.5684c.58173 0 1.0751.35888 1.2773.86719.46104-.15325.94168-.25195 1.4414-.25195.39794 0 .78277.06805 1.1582.16602v-1.9043c0-.76234-.61461-1.377-1.377-1.377zm-1.5332-.10742c-.18346.0131-.38118.10235-.57617.30859l-3.7363 4.1934c-.38277.46951-.10508 1.1798.48828 1.2422l2.2285.23438v4.752c0 .76234.61461 1.377 1.377 1.377h6.8066v-1.9336c0-.18721.04173-.38037.10547-.56641h-4.4121c-.76235 0-1.377-.61461-1.377-1.377v-1.9902l1.8945.19922c.33996.0357 1.089-.35358.7207-1.125l-2.8184-4.9395c-.13174-.20847-.3954-.39689-.70117-.375zm16.904 352.17v4.6577q0 .32346-.22642.54987-.22642.22642-.54987.22642h-7.7629q-.32345 0-.54987-.22642-.22642-.22641-.22642-.54987v-4.6577q0-.32345.22642-.54987t.54987-.22642h.25876v-1.5526q0-1.4879 1.0674-2.5553 1.0674-1.0674 2.5553-1.0674t2.5553 1.0674q1.0674 1.0674 1.0674 2.5553v1.5526h.25876q.32345 0 .54987.22642t.22642.54987zm-6.7278-.77629h4.1402v-1.5526q0-.85715-.60647-1.4636-.60648-.60647-1.4636-.60647t-1.4636.60647q-.60647.60648-.60647 1.4636zm6.7278-170.22v4.6577q0 .32346-.22642.54987-.22642.22642-.54987.22642h-7.7629q-.32345 0-.54987-.22642-.22642-.22641-.22642-.54987v-4.6577q0-.32345.22642-.54987t.54987-.22642h.25876v-1.5526q0-1.4879 1.0674-2.5553 1.0674-1.0674 2.5553-1.0674t2.5553 1.0674q1.0674 1.0674 1.0674 2.5553v1.5526h.25876q.32345 0 .54987.22642t.22642.54987zm-6.7278-.77629h4.1402v-1.5526q0-.85715-.60647-1.4636-.60648-.60647-1.4636-.60647t-1.4636.60647q-.60647.60648-.60647 1.4636zm6.7278 19.776v4.6577q0 .32346-.22642.54987-.22642.22642-.54987.22642h-7.7629q-.32345 0-.54987-.22642-.22642-.22641-.22642-.54987v-4.6577q0-.32345.22642-.54987t.54987-.22642h.25876v-1.5526q0-1.4879 1.0674-2.5553 1.0674-1.0674 2.5553-1.0674t2.5553 1.0674q1.0674 1.0674 1.0674 2.5553v1.5526h.25876q.32345 0 .54987.22642t.22642.54987zm-6.7278-.77629h4.1402v-1.5526q0-.85715-.60647-1.4636-.60648-.60647-1.4636-.60647t-1.4636.60647q-.60647.60648-.60647 1.4636zm6.7278 19.776v4.6577q0 .32346-.22642.54987-.22642.22642-.54987.22642h-7.7629q-.32345 0-.54987-.22642-.22642-.22641-.22642-.54987v-4.6577q0-.32345.22642-.54987t.54987-.22642h.25876v-1.5526q0-1.4879 1.0674-2.5553 1.0674-1.0674 2.5553-1.0674t2.5553 1.0674q1.0674 1.0674 1.0674 2.5553v1.5526h.25876q.32345 0 .54987.22642t.22642.54987zm-6.7278-.77629h4.1402v-1.5526q0-.85715-.60647-1.4636-.60648-.60647-1.4636-.60647t-1.4636.60647q-.60647.60648-.60647 1.4636zm6.7278 19.776v4.6577q0 .32346-.22642.54987-.22642.22642-.54987.22642h-7.7629q-.32345 0-.54987-.22642-.22642-.22641-.22642-.54987v-4.6577q0-.32345.22642-.54987t.54987-.22642h.25876v-1.5526q0-1.4879 1.0674-2.5553 1.0674-1.0674 2.5553-1.0674t2.5553 1.0674q1.0674 1.0674 1.0674 2.5553v1.5526h.25876q.32345 0 .54987.22642t.22642.54987zm-6.7278-.77629h4.1402v-1.5526q0-.85715-.60647-1.4636-.60648-.60647-1.4636-.60647t-1.4636.60647q-.60647.60648-.60647 1.4636zm6.7278 19.776v4.6577q0 .32346-.22642.54987-.22642.22642-.54987.22642h-7.7629q-.32345 0-.54987-.22642-.22642-.22641-.22642-.54987v-4.6577q0-.32345.22642-.54987t.54987-.22642h.25876v-1.5526q0-1.4879 1.0674-2.5553 1.0674-1.0674 2.5553-1.0674t2.5553 1.0674q1.0674 1.0674 1.0674 2.5553v1.5526h.25876q.32345 0 .54987.22642t.22642.54987zm-6.7278-.77629h4.1402v-1.5526q0-.85715-.60647-1.4636-.60648-.60647-1.4636-.60647t-1.4636.60647q-.60647.60648-.60647 1.4636zm6.7278 19.776v4.6577q0 .32346-.22642.54987-.22642.22642-.54987.22642h-7.7629q-.32345 0-.54987-.22642-.22642-.22641-.22642-.54987v-4.6577q0-.32345.22642-.54987t.54987-.22642h.25876v-1.5526q0-1.4879 1.0674-2.5553 1.0674-1.0674 2.5553-1.0674t2.5553 1.0674q1.0674 1.0674 1.0674 2.5553v1.5526h.25876q.32345 0 .54987.22642t.22642.54987zm-6.7278-.77629h4.1402v-1.5526q0-.85715-.60647-1.4636-.60648-.60647-1.4636-.60647t-1.4636.60647q-.60647.60648-.60647 1.4636zm6.7278 19.776v4.6577q0 .32346-.22642.54987-.22642.22642-.54987.22642h-7.7629q-.32345 0-.54987-.22642-.22642-.22641-.22642-.54987v-4.6577q0-.32345.22642-.54987t.54987-.22642h.25876v-1.5526q0-1.4879 1.0674-2.5553 1.0674-1.0674 2.5553-1.0674t2.5553 1.0674q1.0674 1.0674 1.0674 2.5553v1.5526h.25876q.32345 0 .54987.22642t.22642.54987zm-6.7278-.77629h4.1402v-1.5526q0-.85715-.60647-1.4636-.60648-.60647-1.4636-.60647t-1.4636.60647q-.60647.60648-.60647 1.4636zm6.7278 19.776v4.6577q0 .32346-.22642.54987-.22642.22642-.54987.22642h-7.7629q-.32345 0-.54987-.22642-.22642-.22641-.22642-.54987v-4.6577q0-.32345.22642-.54987t.54987-.22642h.25876v-1.5526q0-1.4879 1.0674-2.5553 1.0674-1.0674 2.5553-1.0674t2.5553 1.0674q1.0674 1.0674 1.0674 2.5553v1.5526h.25876q.32345 0 .54987.22642t.22642.54987zm-6.7278-.77629h4.1402v-1.5526q0-.85715-.60647-1.4636-.60648-.60647-1.4636-.60647t-1.4636.60647q-.60647.60648-.60647 1.4636zm6.7278 19.776v4.6577q0 .32346-.22642.54987-.22642.22642-.54987.22642h-7.7629q-.32345 0-.54987-.22642-.22642-.22641-.22642-.54987v-4.6577q0-.32345.22642-.54987t.54987-.22642h.25876v-1.5526q0-1.4879 1.0674-2.5553 1.0674-1.0674 2.5553-1.0674t2.5553 1.0674q1.0674 1.0674 1.0674 2.5553v1.5526h.25876q.32345 0 .54987.22642t.22642.54987zm-6.7278-.77629h4.1402v-1.5526q0-.85715-.60647-1.4636-.60648-.60647-1.4636-.60647t-1.4636.60647q-.60647.60648-.60647 1.4636zm6.7278 38.776v4.6577q0 .32346-.22642.54987-.22642.22642-.54987.22642h-7.7629q-.32345 0-.54987-.22642-.22642-.22641-.22642-.54987v-4.6577q0-.32345.22642-.54987t.54987-.22642h.25876v-1.5526q0-1.4879 1.0674-2.5553 1.0674-1.0674 2.5553-1.0674t2.5553 1.0674q1.0674 1.0674 1.0674 2.5553v1.5526h.25876q.32345 0 .54987.22642t.22642.54987zm-6.7278-.77629h4.1402v-1.5526q0-.85715-.60647-1.4636-.60648-.60647-1.4636-.60647t-1.4636.60647q-.60647.60648-.60647 1.4636zm6.7278 19.776v4.6577q0 .32346-.22642.54987-.22642.22642-.54987.22642h-7.7629q-.32345 0-.54987-.22642-.22642-.22641-.22642-.54987v-4.6577q0-.32345.22642-.54987t.54987-.22642h.25876v-1.5526q0-1.4879 1.0674-2.5553 1.0674-1.0674 2.5553-1.0674t2.5553 1.0674q1.0674 1.0674 1.0674 2.5553v1.5526h.25876q.32345 0 .54987.22642t.22642.54987zm-6.7278-.77629h4.1402v-1.5526q0-.85715-.60647-1.4636-.60648-.60647-1.4636-.60647t-1.4636.60647q-.60647.60648-.60647 1.4636zm6.7278 19.776v4.6577q0 .32346-.22642.54987-.22642.22642-.54987.22642h-7.7629q-.32345 0-.54987-.22642-.22642-.22641-.22642-.54987v-4.6577q0-.32345.22642-.54987t.54987-.22642h.25876v-1.5526q0-1.4879 1.0674-2.5553 1.0674-1.0674 2.5553-1.0674t2.5553 1.0674q1.0674 1.0674 1.0674 2.5553v1.5526h.25876q.32345 0 .54987.22642t.22642.54987zm-6.7278-.77629h4.1402v-1.5526q0-.85715-.60647-1.4636-.60648-.60647-1.4636-.60647t-1.4636.60647q-.60647.60648-.60647 1.4636zm6.7278 19.776v4.6577q0 .32346-.22642.54987-.22642.22642-.54987.22642h-7.7629q-.32345 0-.54987-.22642-.22642-.22641-.22642-.54987v-4.6577q0-.32345.22642-.54987t.54987-.22642h.25876v-1.5526q0-1.4879 1.0674-2.5553 1.0674-1.0674 2.5553-1.0674t2.5553 1.0674q1.0674 1.0674 1.0674 2.5553v1.5526h.25876q.32345 0 .54987.22642t.22642.54987zm-6.7278-.77629h4.1402v-1.5526q0-.85715-.60647-1.4636-.60648-.60647-1.4636-.60647t-1.4636.60647q-.60647.60648-.60647 1.4636zm6.7278 19.776v4.6577q0 .32346-.22642.54987-.22642.22642-.54987.22642h-7.7629q-.32345 0-.54987-.22642-.22642-.22641-.22642-.54987v-4.6577q0-.32345.22642-.54987t.54987-.22642h.25876v-1.5526q0-1.4879 1.0674-2.5553 1.0674-1.0674 2.5553-1.0674t2.5553 1.0674q1.0674 1.0674 1.0674 2.5553v1.5526h.25876q.32345 0 .54987.22642t.22642.54987zm-6.7278-.77629h4.1402v-1.5526q0-.85715-.60647-1.4636-.60648-.60647-1.4636-.60647t-1.4636.60647q-.60647.60648-.60647 1.4636zm6.7278 19.776v4.6577q0 .32346-.22642.54987-.22642.22642-.54987.22642h-7.7629q-.32345 0-.54987-.22642-.22642-.22641-.22642-.54987v-4.6577q0-.32345.22642-.54987t.54987-.22642h.25876v-1.5526q0-1.4879 1.0674-2.5553 1.0674-1.0674 2.5553-1.0674t2.5553 1.0674q1.0674 1.0674 1.0674 2.5553v1.5526h.25876q.32345 0 .54987.22642t.22642.54987zm-6.7278-.77629h4.1402v-1.5526q0-.85715-.60647-1.4636-.60648-.60647-1.4636-.60647t-1.4636.60647q-.60647.60648-.60647 1.4636zm6.7278 19.776v4.6577q0 .32346-.22642.54987-.22642.22642-.54987.22642h-7.7629q-.32345 0-.54987-.22642-.22642-.22641-.22642-.54987v-4.6577q0-.32345.22642-.54987t.54987-.22642h.25876v-1.5526q0-1.4879 1.0674-2.5553 1.0674-1.0674 2.5553-1.0674t2.5553 1.0674q1.0674 1.0674 1.0674 2.5553v1.5526h.25876q.32345 0 .54987.22642t.22642.54987zm-6.7278-.77629h4.1402v-1.5526q0-.85715-.60647-1.4636-.60648-.60647-1.4636-.60647t-1.4636.60647q-.60647.60648-.60647 1.4636zm6.7278 19.776v4.6577q0 .32346-.22642.54987-.22642.22642-.54987.22642h-7.7629q-.32345 0-.54987-.22642-.22642-.22641-.22642-.54987v-4.6577q0-.32345.22642-.54987t.54987-.22642h.25876v-1.5526q0-1.4879 1.0674-2.5553 1.0674-1.0674 2.5553-1.0674t2.5553 1.0674q1.0674 1.0674 1.0674 2.5553v1.5526h.25876q.32345 0 .54987.22642t.22642.54987zm-6.7278-.77629h4.1402v-1.5526q0-.85715-.60647-1.4636-.60648-.60647-1.4636-.60647t-1.4636.60647q-.60647.60648-.60647 1.4636zm6.7278 19.776v4.6577q0 .32346-.22642.54987-.22642.22642-.54987.22642h-7.7629q-.32345 0-.54987-.22642-.22642-.22641-.22642-.54987v-4.6577q0-.32345.22642-.54987t.54987-.22642h.25876v-1.5526q0-1.4879 1.0674-2.5553 1.0674-1.0674 2.5553-1.0674t2.5553 1.0674q1.0674 1.0674 1.0674 2.5553v1.5526h.25876q.32345 0 .54987.22642t.22642.54987zm-6.7278-.77629h4.1402v-1.5526q0-.85715-.60647-1.4636-.60648-.60647-1.4636-.60647t-1.4636.60647q-.60647.60648-.60647 1.4636zm6.7278 19.776v4.6577q0 .32346-.22642.54987-.22642.22642-.54987.22642h-7.7629q-.32345 0-.54987-.22642-.22642-.22641-.22642-.54987v-4.6577q0-.32345.22642-.54987t.54987-.22642h.25876v-1.5526q0-1.4879 1.0674-2.5553 1.0674-1.0674 2.5553-1.0674t2.5553 1.0674q1.0674 1.0674 1.0674 2.5553v1.5526h.25876q.32345 0 .54987.22642t.22642.54987zm-6.7278-.77629h4.1402v-1.5526q0-.85715-.60647-1.4636-.60648-.60647-1.4636-.60647t-1.4636.60647q-.60647.60648-.60647 1.4636zm6.7278 19.776v4.6577q0 .32346-.22642.54987-.22642.22642-.54987.22642h-7.7629q-.32345 0-.54987-.22642-.22642-.22641-.22642-.54987v-4.6577q0-.32345.22642-.54987t.54987-.22642h.25876v-1.5526q0-1.4879 1.0674-2.5553 1.0674-1.0674 2.5553-1.0674t2.5553 1.0674q1.0674 1.0674 1.0674 2.5553v1.5526h.25876q.32345 0 .54987.22642t.22642.54987zm-6.7278-.77629h4.1402v-1.5526q0-.85715-.60647-1.4636-.60648-.60647-1.4636-.60647t-1.4636.60647q-.60647.60648-.60647 1.4636zm6.7278 19.776v4.6577q0 .32346-.22642.54987-.22642.22642-.54987.22642h-7.7629q-.32345 0-.54987-.22642-.22642-.22641-.22642-.54987v-4.6577q0-.32345.22642-.54987t.54987-.22642h.25876v-1.5526q0-1.4879 1.0674-2.5553 1.0674-1.0674 2.5553-1.0674t2.5553 1.0674q1.0674 1.0674 1.0674 2.5553v1.5526h.25876q.32345 0 .54987.22642t.22642.54987zm-6.7278-.77629h4.1402v-1.5526q0-.85715-.60647-1.4636-.60648-.60647-1.4636-.60647t-1.4636.60647q-.60647.60648-.60647 1.4636zm6.7278 19.776v4.6577q0 .32346-.22642.54987-.22642.22642-.54987.22642h-7.7629q-.32345 0-.54987-.22642-.22642-.22641-.22642-.54987v-4.6577q0-.32345.22642-.54987t.54987-.22642h.25876v-1.5526q0-1.4879 1.0674-2.5553 1.0674-1.0674 2.5553-1.0674t2.5553 1.0674q1.0674 1.0674 1.0674 2.5553v1.5526h.25876q.32345 0 .54987.22642t.22642.54987zm-6.7278-.77629h4.1402v-1.5526q0-.85715-.60647-1.4636-.60648-.60647-1.4636-.60647t-1.4636.60647q-.60647.60648-.60647 1.4636zm6.7278 19.776v4.6577q0 .32346-.22642.54987-.22642.22642-.54987.22642h-7.7629q-.32345 0-.54987-.22642-.22642-.22641-.22642-.54987v-4.6577q0-.32345.22642-.54987t.54987-.22642h.25876v-1.5526q0-1.4879 1.0674-2.5553 1.0674-1.0674 2.5553-1.0674t2.5553 1.0674q1.0674 1.0674 1.0674 2.5553v1.5526h.25876q.32345 0 .54987.22642t.22642.54987zm-6.7278-.77629h4.1402v-1.5526q0-.85715-.60647-1.4636-.60648-.60647-1.4636-.60647t-1.4636.60647q-.60647.60648-.60647 1.4636zm6.7278 19.776v4.6577q0 .32346-.22642.54987-.22642.22642-.54987.22642h-7.7629q-.32345 0-.54987-.22642-.22642-.22641-.22642-.54987v-4.6577q0-.32345.22642-.54987t.54987-.22642h.25876v-1.5526q0-1.4879 1.0674-2.5553 1.0674-1.0674 2.5553-1.0674t2.5553 1.0674q1.0674 1.0674 1.0674 2.5553v1.5526h.25876q.32345 0 .54987.22642t.22642.54987zm-6.7278-.77629h4.1402v-1.5526q0-.85715-.60647-1.4636-.60648-.60647-1.4636-.60647t-1.4636.60647q-.60647.60648-.60647 1.4636zm6.7278 19.776v4.6577q0 .32346-.22642.54987-.22642.22642-.54987.22642h-7.7629q-.32345 0-.54987-.22642-.22642-.22641-.22642-.54987v-4.6577q0-.32345.22642-.54987t.54987-.22642h.25876v-1.5526q0-1.4879 1.0674-2.5553 1.0674-1.0674 2.5553-1.0674t2.5553 1.0674q1.0674 1.0674 1.0674 2.5553v1.5526h.25876q.32345 0 .54987.22642t.22642.54987zm-6.7278-.77629h4.1402v-1.5526q0-.85715-.60647-1.4636-.60648-.60647-1.4636-.60647t-1.4636.60647q-.60647.60648-.60647 1.4636zm6.7278-493.22v4.6577q0 .32346-.22642.54987-.22642.22642-.54987.22642h-7.7629q-.32345 0-.54987-.22642-.22642-.22641-.22642-.54987v-4.6577q0-.32345.22642-.54987t.54987-.22642h.25876v-1.5526q0-1.4879 1.0674-2.5553 1.0674-1.0674 2.5553-1.0674t2.5553 1.0674q1.0674 1.0674 1.0674 2.5553v1.5526h.25876q.32345 0 .54987.22642t.22642.54987zm-6.7278-.77629h4.1402v-1.5526q0-.85715-.60647-1.4636-.60648-.60647-1.4636-.60647t-1.4636.60647q-.60647.60648-.60647 1.4636zm6.7278-151.22v4.6577q0 .32345-.22642.54987t-.54987.22642h-7.7629q-.32345 0-.54987-.22642t-.22642-.54987v-4.6577q0-.32345.22642-.54987t.54987-.22642h.25876v-1.5526q0-1.4879 1.0674-2.5553 1.0674-1.0674 2.5553-1.0674t2.5553 1.0674q1.0674 1.0674 1.0674 2.5553v1.5526h.25876q.32345 0 .54987.22642t.22642.54987zm-6.7278-.77629h4.1402v-1.5526q0-.85715-.60647-1.4636-.60648-.60648-1.4636-.60648t-1.4636.60648q-.60647.60647-.60647 1.4636zm6.7278 19.776v4.6577q0 .32345-.22642.54987t-.54987.22642h-7.7629q-.32345 0-.54987-.22642t-.22642-.54987v-4.6577q0-.32345.22642-.54987t.54987-.22642h.25876v-1.5526q0-1.4879 1.0674-2.5553 1.0674-1.0674 2.5553-1.0674t2.5553 1.0674q1.0674 1.0674 1.0674 2.5553v1.5526h.25876q.32345 0 .54987.22642t.22642.54987zm-6.7278-.77629h4.1402v-1.5526q0-.85715-.60647-1.4636-.60648-.60648-1.4636-.60648t-1.4636.60648q-.60647.60647-.60647 1.4636zm6.7278 19.776v4.6577q0 .32345-.22642.54987t-.54987.22642h-7.7629q-.32345 0-.54987-.22642t-.22642-.54987v-4.6577q0-.32345.22642-.54987t.54987-.22642h.25876v-1.5526q0-1.4879 1.0674-2.5553 1.0674-1.0674 2.5553-1.0674t2.5553 1.0674q1.0674 1.0674 1.0674 2.5553v1.5526h.25876q.32345 0 .54987.22642t.22642.54987zm-6.7278-.77629h4.1402v-1.5526q0-.85715-.60647-1.4636-.60648-.60648-1.4636-.60648t-1.4636.60648q-.60647.60647-.60647 1.4636zm6.7278 19.776v4.6577q0 .32345-.22642.54987t-.54987.22642h-7.7629q-.32345 0-.54987-.22642t-.22642-.54987v-4.6577q0-.32345.22642-.54987t.54987-.22642h.25876v-1.5526q0-1.4879 1.0674-2.5553 1.0674-1.0674 2.5553-1.0674t2.5553 1.0674q1.0674 1.0674 1.0674 2.5553v1.5526h.25876q.32345 0 .54987.22642t.22642.54987zm-6.7278-.77629h4.1402v-1.5526q0-.85715-.60647-1.4636-.60648-.60648-1.4636-.60648t-1.4636.60648q-.60647.60647-.60647 1.4636zm6.7278 19.776v4.6577q0 .32346-.22642.54987-.22642.22642-.54987.22642h-7.7629q-.32345 0-.54987-.22642-.22642-.22641-.22642-.54987v-4.6577q0-.32345.22642-.54987t.54987-.22642h.25876v-1.5526q0-1.4879 1.0674-2.5553 1.0674-1.0674 2.5553-1.0674t2.5553 1.0674q1.0674 1.0674 1.0674 2.5553v1.5526h.25876q.32345 0 .54987.22642t.22642.54987zm-6.7278-.77629h4.1402v-1.5526q0-.85715-.60647-1.4636-.60648-.60647-1.4636-.60647t-1.4636.60647q-.60647.60648-.60647 1.4636zm6.7278 19.776v4.6577q0 .32346-.22642.54987-.22642.22642-.54987.22642h-7.7629q-.32345 0-.54987-.22642-.22642-.22641-.22642-.54987v-4.6577q0-.32345.22642-.54987t.54987-.22642h.25876v-1.5526q0-1.4879 1.0674-2.5553 1.0674-1.0674 2.5553-1.0674t2.5553 1.0674q1.0674 1.0674 1.0674 2.5553v1.5526h.25876q.32345 0 .54987.22642t.22642.54987zm-6.7278-.77629h4.1402v-1.5526q0-.85715-.60647-1.4636-.60648-.60647-1.4636-.60647t-1.4636.60647q-.60647.60648-.60647 1.4636zm6.7278 19.776v4.6577q0 .32346-.22642.54987-.22642.22642-.54987.22642h-7.7629q-.32345 0-.54987-.22642-.22642-.22641-.22642-.54987v-4.6577q0-.32345.22642-.54987t.54987-.22642h.25876v-1.5526q0-1.4879 1.0674-2.5553 1.0674-1.0674 2.5553-1.0674t2.5553 1.0674q1.0674 1.0674 1.0674 2.5553v1.5526h.25876q.32345 0 .54987.22642t.22642.54987zm-6.7278-.77629h4.1402v-1.5526q0-.85715-.60647-1.4636-.60648-.60647-1.4636-.60647t-1.4636.60647q-.60647.60648-.60647 1.4636zm6.7278 19.776v4.6577q0 .32346-.22642.54987-.22642.22642-.54987.22642h-7.7629q-.32345 0-.54987-.22642-.22642-.22641-.22642-.54987v-4.6577q0-.32345.22642-.54987t.54987-.22642h.25876v-1.5526q0-1.4879 1.0674-2.5553 1.0674-1.0674 2.5553-1.0674t2.5553 1.0674q1.0674 1.0674 1.0674 2.5553v1.5526h.25876q.32345 0 .54987.22642t.22642.54987zm-6.7278-.77629h4.1402v-1.5526q0-.85715-.60647-1.4636-.60648-.60647-1.4636-.60647t-1.4636.60647q-.60647.60648-.60647 1.4636zm6.7278 342.78v4.6577q0 .32346-.22642.54987-.22642.22642-.54987.22642h-7.7629q-.32345 0-.54987-.22642-.22642-.22641-.22642-.54987v-4.6577q0-.32345.22642-.54987t.54987-.22642h.25876v-1.5526q0-1.4879 1.0674-2.5553 1.0674-1.0674 2.5553-1.0674t2.5553 1.0674q1.0674 1.0674 1.0674 2.5553v1.5526h.25876q.32345 0 .54987.22642t.22642.54987zm-6.7278-.77629h4.1402v-1.5526q0-.85715-.60647-1.4636-.60648-.60647-1.4636-.60647t-1.4636.60647q-.60647.60648-.60647 1.4636zm6.7278-322.22v4.6577q0 .32346-.22642.54987-.22642.22642-.54987.22642h-7.7629q-.32345 0-.54987-.22642-.22642-.22641-.22642-.54987v-4.6577q0-.32345.22642-.54987t.54987-.22642h.25876v-1.5526q0-1.4879 1.0674-2.5553 1.0674-1.0674 2.5553-1.0674t2.5553 1.0674q1.0674 1.0674 1.0674 2.5553v1.5526h.25876q.32345 0 .54987.22642t.22642.54987zm-6.7278-.77629h4.1402v-1.5526q0-.85715-.60647-1.4636-.60648-.60647-1.4636-.60647t-1.4636.60647q-.60647.60648-.60647 1.4636z" fill="#03a9f4" fill-opacity=".98431"/></svg>
