<svg version="1.1" viewBox="0 0 36 36" xmlns="http://www.w3.org/2000/svg"><g fill="#fff"><circle cx="18" cy="25.649" r="2.8682"/><path d="m17.342 16.673c-.16827-.13672-.40825-.14054-.58321-.01338-.01147.0086-1.2047.86238-3.5394.86238-2.3338 0-3.5279-.85378-3.5375-.86047-.17496-.13098-.4159-.12716-.58417.0086-.17018.13576-.22755.36905-.13959.56791.057365.12907 1.4341 3.1522 4.2613 3.1522 2.8281 0 4.2039-3.0231 4.2613-3.1522.08796-.19791.03059-.42928-.13863-.56504zm9.5608 0c-.16827-.13672-.40729-.1415-.58321-.01338-.01147.0086-1.2056.86238-3.5394.86238-2.3328 0-3.5279-.85378-3.5375-.86047-.17496-.13098-.41494-.12716-.58416.0086-.17018.13576-.22755.36905-.13959.56791.05737.12907 1.4341 3.1522 4.2613 3.1522 2.8281 0 4.2039-3.0231 4.2613-3.1522.08796-.19791.03059-.42928-.13863-.56504z"/><path d="m31.166 5.6513h-3.0107c-.64918 0-1.1712-.41398-1.1712-1.1349s.52202-1.1358 1.1712-1.1358h5.8933c.23424 0 .84613.10804.84613.81076 0 .34228-.07266.50481-.26962.77538l-4.0911 5.7298h3.4247c.64727 0 1.1712.41398 1.1712 1.1349s-.52393 1.1349-1.1712 1.1349h-6.0377c-.57652 0-1.0622-.28874-1.0622-.88342 0-.28874.14341-.55835.23328-.70272z"/><path d="m22.681 2.61h-2.2535c-.48569 0-.87673-.30977-.87673-.84996 0-.53923.39104-.84996.87673-.84996h4.4123c.17592 0 .63388.081267.63388.60711 0 .25623-.0545.37765-.20173.58034l-3.0623 4.2899h2.5642c.48282 0 .87482.30977.87482.84996s-.39199.84996-.87673.84996h-4.5204c-.43215 0-.79546-.21607-.79546-.66065 0-.21607.10804-.41781.17496-.52584z"/><path d="m16.123 6.1943h-1.9284c-.4159 0-.75052-.26579-.75052-.72758s.33463-.72758.75052-.72758h3.7765c.1501 0 .5421.069794.5421.52011 0 .21894-.04589.32316-.17305.49621l-2.6216 3.6714h2.1942c.41494 0 .75052.26579.75052.72758s-.33558.72758-.75052.72758h-3.8693c-.36905 0-.68073-.18452-.68073-.566 0-.18452.09178-.35757.1501-.45031z"/><path d="m18 .3125c-9.7629 0-17.688 7.9246-17.688 17.688 0 9.7629 7.9246 17.688 17.688 17.688 9.7629 0 17.688-7.9246 17.688-17.688 0-9.7629-7.9246-17.688-17.688-17.688zm0 1c9.2224 0 16.688 7.465 16.688 16.688 0 9.2224-7.465 16.688-16.688 16.688-9.2225 0-16.688-7.465-16.688-16.688 0-9.2225 7.465-16.688 16.688-16.688z" color="#000000" color-rendering="auto" dominant-baseline="auto" fill-rule="evenodd" image-rendering="auto" shape-rendering="auto" solid-color="#000000" style="font-feature-settings:normal;font-variant-alternates:normal;font-variant-caps:normal;font-variant-ligatures:normal;font-variant-numeric:normal;font-variant-position:normal;isolation:auto;mix-blend-mode:normal;shape-padding:0;text-decoration-color:#000000;text-decoration-line:none;text-decoration-style:solid;text-indent:0;text-orientation:mixed;text-transform:none;white-space:normal"/></g></svg>
