<?xml version="1.0" encoding="UTF-8" standalone="no"?>
<svg
   xmlns:dc="http://purl.org/dc/elements/1.1/"
   xmlns:cc="http://creativecommons.org/ns#"
   xmlns:rdf="http://www.w3.org/1999/02/22-rdf-syntax-ns#"
   xmlns:svg="http://www.w3.org/2000/svg"
   xmlns="http://www.w3.org/2000/svg"
   xmlns:xlink="http://www.w3.org/1999/xlink"
   xmlns:sodipodi="http://sodipodi.sourceforge.net/DTD/sodipodi-0.dtd"
   xmlns:inkscape="http://www.inkscape.org/namespaces/inkscape"
   viewBox="0 0 292.85862 204.49997"
   width="292.85861"
   height="204.49997"
   id="svg4627"
   version="1.1"
   inkscape:version="0.91 r13725"
   sodipodi:docname="elephant_ui_sleep.svg">
  <metadata
     id="metadata4711">
    <rdf:RDF>
      <cc:Work
         rdf:about="">
        <dc:format>image/svg+xml</dc:format>
        <dc:type
           rdf:resource="http://purl.org/dc/dcmitype/StillImage" />
        <dc:title></dc:title>
      </cc:Work>
    </rdf:RDF>
  </metadata>
  <defs
     id="defs4709">
    <clipPath
       clipPathUnits="userSpaceOnUse"
       id="clipPath5178">
      <rect
         style="opacity:1;fill:#575062;fill-opacity:1;stroke:none;stroke-width:2;stroke-linecap:round;stroke-linejoin:round;stroke-miterlimit:4;stroke-dasharray:none;stroke-opacity:1"
         id="rect5180"
         width="76.962357"
         height="149.52686"
         x="575.1123"
         y="845.41278" />
    </clipPath>
    <clipPath
       id="b-7">
      <use
         xlink:href="#a"
         width="100%"
         height="100%"
         overflow="visible"
         id="use4635-5"
         style="overflow:visible"
         x="0"
         y="0" />
    </clipPath>
    <clipPath
       id="clipPath5202">
      <use
         xlink:href="#a"
         width="100%"
         height="100%"
         overflow="visible"
         id="use5204"
         style="overflow:visible"
         x="0"
         y="0" />
    </clipPath>
    <clipPath
       id="b-3">
      <use
         xlink:href="#a"
         width="100%"
         height="100%"
         overflow="visible"
         id="use4635-56"
         style="overflow:visible"
         x="0"
         y="0" />
    </clipPath>
  </defs>
  <sodipodi:namedview
     pagecolor="#ffffff"
     bordercolor="#666666"
     borderopacity="1"
     objecttolerance="10"
     gridtolerance="10"
     guidetolerance="10"
     inkscape:pageopacity="0"
     inkscape:pageshadow="2"
     inkscape:window-width="2288"
     inkscape:window-height="1246"
     id="namedview4707"
     showgrid="false"
     showguides="false"
     inkscape:zoom="4"
     inkscape:cx="158.397"
     inkscape:cy="111.78729"
     inkscape:window-x="1206"
     inkscape:window-y="723"
     inkscape:window-maximized="0"
     inkscape:current-layer="svg4627" />
  <g
     transform="translate(-395.89999,-820.4)"
     id="g4629">
    <defs
       id="defs4631">
      <path
         id="a"
         d="m 395.89999,745.09998 294.60001,0 0,279.80002 -294.60001,0 z"
         inkscape:connector-curvature="0" />
    </defs>
    <clipPath
       id="b">
      <use
         xlink:href="#a"
         width="100%"
         height="100%"
         overflow="visible"
         id="use4635"
         style="overflow:visible"
         x="0"
         y="0" />
    </clipPath>
    <path
       class="st53"
       d="m 339.3,1028.6 c 1.5,-3.2 14.4,-31.3 27.4,-58.8 -6,-9.3 -2,-17 1.5,-23.7 1.9,-3.7 3.8,-7.1 3.6,-10.4 -0.8,-22 8.1,-38.3 22.8,-41.6 2.8,-0.6 5.2,-0.9 7.5,-0.9 3,0 5.6,0.5 8.1,1.6 1.4,-1.3 2.8,-2.6 4.2,-3.8 -2.8,-2.6 -4.3,-5.5 -4.5,-8.8 -0.3,-4.5 2.2,-9.5 6.8,-13.7 5.3,-4.8 16.5,-12.9 31.7,-12.9 0.9,0 1.7,0 2.6,0.1 -0.4,-0.9 -1,-2 -2.1,-2.9 -2.1,-1.6 -1.9,-3.2 -1.6,-4 0.7,-2.1 3.6,-3.2 8.1,-3.2 3.9,0 9.7,1.2 14,4.4 0.3,-0.7 0.7,-1.3 1.3,-1.7 0.5,-0.3 1.3,-0.5 2.2,-0.5 3.4,0 10.6,2.7 15.5,9.9 3.6,5.3 3.6,10.8 0.1,16 18.3,4.7 30.1,15.6 39.5,24.4 2.5,2.4 5,4.6 7.3,6.5 12.99952,6.93148 29.02446,11.96693 35.09822,15.94099 C 575.66859,905.00806 567.3955,891.93483 560.7,882 c -6.2,-10.7 -6.4,-12.1 -4.9,-13.9 l 0.1,-0.1 c 0.6,-0.7 1.3,-1 2.1,-1.1 l 0.3,0 c 1.7,0 4.5,1 13,8.7 9.9,9 16.9,22.2 19.2,36.5 0,0 2.1525,21.71727 -9.5,41.9 -3,4.6 -6.5,9 -10.2,12.6 -7.8,7.6 -24,15.3 -42.3,15.3 -5.3,0 -10.7,-0.6 -15.9,-1.9 -7.6,12.9 -10.5,26.2 -10.6,32.1 -0.2,11 0.9,16.1 0.9,16.2 l 0.4,1.8 -164.9,0.8 z"
       clip-path="url(#b)"
       id="path4637"
       inkscape:connector-curvature="0"
       sodipodi:nodetypes="cccccsccccscccsccscccccccccsccccscccccc" />
    <path
       class="st58"
       d="m 388.5,927.9 c 20,-40 49.9,-56.3 83.4,-54.9 33.6,1.4 48.8,21.7 62.4,32.9 11.49157,6.73617 22.96795,8.60848 35.41027,15.89418 L 559.325,953.1 c -42.625,-6.025 -58.725,44.2 -59.025,59 -0.2,11.5 0.9,16.5 0.9,16.5 l -160.7,0.8 c 0.2,-0.1 33.4,-72.4 48,-101.5 z"
       clip-path="url(#b)"
       stroke-miterlimit="10"
       id="path4649"
       inkscape:connector-curvature="0"
       style="fill:#53606c;stroke:#000000;stroke-linecap:round;stroke-linejoin:round;stroke-miterlimit:10"
       sodipodi:nodetypes="ccccccccc" />
    <path
       class="st59"
       d="m 399.4,989.3 c -6.1,0 -9.9,-4.3 -10,-4.3 l -0.2,-0.2 -0.3,0.1 c -3.1,1 -6.1,1.5 -9,1.5 -6.1,0 -11.4,-2.2 -15.6,-6.5 1.4,-3 2.9,-6.1 4.3,-9.1 0.1,0.1 0.1,0.2 0.2,0.3 6.1,8 12.7,9.7 17,9.7 3.2,0 5.6,-0.9 6.6,-1.3 0.7,1.3 3,4.7 7.5,4.7 1.2,0 2.5,-0.3 3.9,-0.8 6.7,-2.5 15.7,-13.1 18.3,-22.1 3.2,5.7 -2.8,18.3 -13.8,25.3 -3,1.7 -6,2.7 -8.9,2.7 z m 24.5,-78.1 c -5.7,-11.1 -10.8,-14.2 -12.4,-14.9 15.7,-15.3 34.7,-23 56.6,-23 1.3,0 2.5,0 3.8,0.1 2.1,0.1 4.2,0.3 6.4,0.5 1.5,2.7 -0.4,5.6 -0.8,6.3 -3,0.8 -11.2,6.5 -18.5,11.6 -1.9,1.3 -3.7,2.6 -5.3,3.7 -5.3,3.7 -13.6,4.2 -18,4.2 -1.8,0 -2.9,-0.1 -2.9,-0.1 l -0.3,0 z m 95.3,49 c 4.2,-7.1 12.6,-15.2 28.3,-15.2 3.5,0 7.2,0.4 11,1.2 3.4,0.7 7,1.1 10.6,1.1 2.40971,-5.16408 9.72689,4.90822 -2.1,5.9 -3.6,0 -7.5,-0.2 -11.6,-0.6 -1.5,-0.2 -3,-0.2 -4.4,-0.2 -9.4,0 -18.1,3.2 -25.9,9.4 z"
       clip-path="url(#b)"
       id="path4651"
       inkscape:connector-curvature="0"
       style="fill:#38434f"
       sodipodi:nodetypes="scccscccscscccsccscccccsccccsccccscc" />
    <path
       class="st58"
       d="m 427.4,920.5 c -9.1,-24.2 -19,-27.9 -32.4,-25 -13.4,3 -22.4,18 -21.6,40 0.4,10.2 -15.5,20.5 -4.3,35 11.2,14.5 23.5,8 23.5,8 0,0 3,7.1 11,4.1 8,-3 16.7,-13.5 18.5,-21.6"
       clip-path="url(#b)"
       stroke-miterlimit="10"
       id="path4653"
       inkscape:connector-curvature="0"
       style="fill:#53606c;stroke:#000000;stroke-linecap:round;stroke-linejoin:round;stroke-miterlimit:10" />
    <path
       class="st59"
       d="m 417.2,934.2 c -7.3,0.5 -8.6,-4.8 -7.3,-7 1.2,-2.1 4.6,-3.2 4.6,-3.2 0,0 -5.3,-0.2 -6.3,-4 -1,-3.7 4,-5.3 4,-5.3 0,0 -2.9,-8.6 -13.3,-6.1 -10.4,2.5 -14.4,11.7 -14.2,19 0.6,15.3 -10.2,22.8 0,29.7 10.1,6.9 23.7,-2.8 28.5,-11.3 4.8,-8.5 4,-11.8 4,-11.8 z"
       clip-path="url(#b)"
       id="path4655"
       inkscape:connector-curvature="0"
       style="fill:#38434f" />
    <path
       class="st57"
       d="m 392.6,978.6 c 6.3,-3.9 9.1,-7.5 9.1,-7.5 m 15.5,-36.9 c -7.3,0.5 -8.6,-4.8 -7.3,-7 1.2,-2.1 4.6,-3.2 4.6,-3.2 0,0 -5.3,-0.2 -6.3,-4 -1,-3.7 4,-5.3 4,-5.3 0,0 -2.9,-8.6 -13.3,-6.1 -10.4,2.5 -14.6,11.7 -14.2,19"
       clip-path="url(#b)"
       stroke-miterlimit="10"
       id="path4657"
       inkscape:connector-curvature="0"
       style="fill:none;stroke:#000000;stroke-linecap:round;stroke-linejoin:round;stroke-miterlimit:10" />
    <path
       d="m 417.5,891.4 c -9.8,-6.9 -6.2,-16 0.3,-21.8 6.5,-5.8 19,-14 35.2,-12.2 0,0 -0.2,-3.5 -3.1,-5.8 -2.9,-2.3 -0.5,-4.5 5.5,-4.5 6,0 12.9,2.6 15.8,6.9 0,0 -1.4,-3.2 0.4,-4.4 1.8,-1.2 10.2,1 15.6,9 5.4,8 1.1,14.9 -5.2,19.9 -6.3,5 -36.2,11.6 -48.8,10.9"
       clip-path="url(#b)"
       id="path4659"
       inkscape:connector-curvature="0"
       style="fill:#53606c" />
    <g
       class="st53"
       clip-path="url(#b)"
       id="g4661">
      <path
         class="st36"
         d="m 459.5,878.7 c -11.1,0.6 -22.1,3.3 -32.9,6.1 -4.1,1.1 -8.2,2.2 -12.4,2 -0.4,0 -0.8,-0.1 -1.3,-0.1 1,1.6 2.5,3.2 4.6,4.7 l 15.6,-2.1 c 11.3,0.7 37,-4.7 46.4,-9.4 -6.5,-1.1 -13.3,-1.5 -20,-1.2 z"
         id="path4663"
         inkscape:connector-curvature="0"
         style="fill:#38434f" />
    </g>
    <path
       class="st59"
       d="m 417.5,890.8 c -3.5,-2.5 -5.3,-5.5 -5.5,-8.8 -0.2,-3.2 1.2,-6.7 4,-9.9 -0.4,1.6 -0.2,3.2 0.5,4.7 1.2,2.5 3.6,4 6.3,4 2.1,0 4.3,-0.9 6.3,-2.6 7.2,-6 19.4,-10.4 29.1,-10.4 1.9,0 3.7,0.2 5.3,0.5 7.7,1.6 12.3,3.7 13.8,6.7 0.8,1.6 0.8,3.3 0,5.4 -10.1,4.3 -31.2,8.6 -42.1,8.6 -0.7,0 -1.4,0 -2.1,-0.1 -1.4,-0.1 -2.8,-0.1 -4,-0.1 -7.5,-0.1 -10.6,1.4 -11.6,2 z"
       clip-path="url(#b)"
       id="path4665"
       inkscape:connector-curvature="0"
       style="fill:#38434f" />
    <path
       class="st57"
       d="m 471.2,854 c 2.2,3.4 1.1,6.7 1.1,6.7"
       clip-path="url(#b)"
       stroke-miterlimit="10"
       id="path4667"
       inkscape:connector-curvature="0"
       style="fill:none;stroke:#000000;stroke-linecap:round;stroke-linejoin:round;stroke-miterlimit:10" />
    <path
       class="st57"
       d="m 489.6,967.9 c -3.9,0.1 -6.7,-0.9 -6.7,-0.9"
       clip-path="url(#b)"
       stroke-miterlimit="10"
       id="path4673"
       inkscape:connector-curvature="0"
       style="fill:none;stroke:#000000;stroke-linecap:round;stroke-linejoin:round;stroke-miterlimit:10" />
    <g
       class="st53"
       clip-path="url(#b)"
       id="g4687">
      <path
         d="m 491.2,946.7 c -4.1,1.1 -6.1,1.8 -10,3.5 -2.1,0.9 -4.6,0.1 -5.6,-1.9 -1,-2 0,-4.6 2.3,-5.6 4.3,-1.9 6.6,-2.7 11.2,-3.9 2.4,-0.6 4.8,0.8 5.3,2.9 0.4,2.2 -1,4.4 -3.2,5 z"
         id="path4689"
         inkscape:connector-curvature="0"
         style="fill:#505762" />
    </g>
    <path
       class="st57"
       d="M 515.8,952.3 C 515.6,950 514.1,949 514.1,949"
       clip-path="url(#b)"
       stroke-miterlimit="10"
       id="path4691"
       inkscape:connector-curvature="0"
       style="fill:none;stroke:#000000;stroke-linecap:round;stroke-linejoin:round;stroke-miterlimit:10" />
    <g
       class="st53"
       clip-path="url(#b)"
       id="g4693">
      <path
         d="m 454.5,887.5 c -3.5,0.7 -7.1,1.3 -10.6,1.7 -3.6,0.4 -7.2,0.8 -10.8,0.6 -0.3,0 -0.5,-0.2 -0.5,-0.5 0,-0.3 0.2,-0.5 0.5,-0.5 3.5,0.2 7.1,-0.1 10.6,-0.4 3.5,-0.4 7.1,-0.9 10.6,-1.6 0.2,0 0.4,0.1 0.4,0.3 0.1,0.2 0,0.4 -0.2,0.4 z"
         id="path4695"
         inkscape:connector-curvature="0" />
    </g>
    <g
       class="st53"
       clip-path="url(#b)"
       id="g4697">
      <path
         d="m 417.2,891.8 c -2.2,-1.6 -4.3,-3.6 -5.4,-6.2 l -0.4,-1 -0.2,-1 -0.1,-0.5 0,-0.5 c 0,-0.4 -0.1,-0.7 -0.1,-1.1 0,-1.4 0.2,-2.8 0.7,-4.1 0.9,-2.6 2.6,-4.9 4.4,-6.9 1.9,-2 4,-3.6 6.2,-5.2 2.2,-1.6 4.6,-2.9 7,-4.1 2.4,-1.2 5,-2.2 7.6,-2.9 5.2,-1.5 10.7,-1.9 16.1,-1.4 l -0.6,0.5 c -0.2,-1.3 -0.7,-2.7 -1.4,-3.8 -0.4,-0.6 -0.8,-1.1 -1.4,-1.5 -0.5,-0.5 -1.2,-1 -1.5,-1.9 -0.1,-0.2 -0.1,-0.5 -0.1,-0.7 0.1,-0.2 0.1,-0.5 0.2,-0.7 0.2,-0.4 0.6,-0.7 0.9,-0.9 0.7,-0.5 1.4,-0.7 2.2,-0.9 1.5,-0.3 3,-0.4 4.4,-0.4 2.9,0.1 5.9,0.7 8.6,1.8 2.7,1.1 5.3,2.8 7.1,5.3 l -0.9,0.5 c -0.3,-0.7 -0.5,-1.3 -0.5,-2.1 -0.1,-0.7 0,-1.5 0.4,-2.3 0.3,-0.3 0.5,-0.7 1,-0.8 0.2,-0.1 0.4,-0.1 0.6,-0.2 0.2,0 0.4,-0.1 0.6,-0.1 0.7,0 1.4,0.1 2.1,0.2 1.4,0.3 2.6,0.8 3.9,1.4 1.2,0.6 2.4,1.3 3.5,2.1 2.2,1.6 4.1,3.6 5.6,5.9 0.7,1.2 1.4,2.4 1.8,3.7 0.3,0.6 0.4,1.3 0.5,2 0.1,0.3 0.1,0.7 0.1,1 l 0,1 c -0.1,2.8 -1.3,5.5 -3,7.6 -1.7,2.2 -3.6,4 -5.9,5.6 -2.4,1.4 -4.9,2.3 -7.4,3.2 -2.5,0.8 -5.1,1.5 -7.8,1.9 1.2,-0.5 2.5,-0.9 3.7,-1.4 l 3.7,-1.3 c 2.5,-0.9 5,-1.8 7.2,-3.2 2.1,-1.5 4,-3.3 5.6,-5.4 1.5,-2.1 2.6,-4.5 2.7,-7 0.1,-2.5 -0.8,-5 -2.2,-7.1 -1.4,-2.2 -3.2,-4.1 -5.3,-5.6 -2.1,-1.5 -4.4,-2.8 -6.9,-3.4 -0.6,-0.1 -1.2,-0.2 -1.8,-0.2 -0.6,0 -1,0.1 -1.3,0.5 -0.5,0.8 -0.2,2.3 0.2,3.4 0.1,0.3 0,0.5 -0.3,0.6 -0.2,0.1 -0.4,0 -0.6,-0.2 -1.6,-2.3 -4,-3.8 -6.6,-4.9 -2.6,-1.1 -5.4,-1.7 -8.2,-1.7 -1.4,0 -2.8,0.1 -4.2,0.4 -0.7,0.2 -1.3,0.4 -1.8,0.7 -0.5,0.4 -0.8,0.8 -0.7,1.3 0.1,0.5 0.6,0.9 1.2,1.4 0.6,0.5 1.1,1.1 1.5,1.7 0.9,1.3 1.4,2.7 1.6,4.3 0,0.3 -0.2,0.5 -0.4,0.5 l -0.1,0 c -5.3,-0.5 -10.7,-0.1 -15.8,1.4 -2.5,0.7 -5,1.7 -7.4,2.8 -2.4,1.2 -4.7,2.5 -6.8,4.1 -2.2,1.5 -4.3,3.2 -6.1,5.1 -1.8,1.9 -3.4,4.1 -4.2,6.5 -0.4,1.2 -0.6,2.5 -0.7,3.8 0,0.3 0.1,0.6 0.1,1 l 0,0.5 0.1,0.5 0.2,0.9 0.4,0.9 c 1,2.4 2.9,4.3 5,5.8 0.2,0.2 0.3,0.5 0.1,0.7 -0.2,0.2 -0.4,0.3 -0.7,0.1 z"
         id="path4699"
         inkscape:connector-curvature="0" />
    </g>
    <path
       style="fill:none;fill-rule:evenodd;stroke:#1e242a;stroke-width:2;stroke-linecap:round;stroke-linejoin:miter;stroke-miterlimit:4;stroke-dasharray:none;stroke-opacity:1"
       d="m 480.44628,927.62314 c -0.0365,0.283 10.59387,3.61002 19.92183,-5.63642"
       id="path4713"
       inkscape:connector-curvature="0"
       sodipodi:nodetypes="cc" />
  </g>
  <g
     id="g4860"
     transform="matrix(0.97533267,0.22074009,0.22074009,-0.97533267,-604.6133,900.30264)"
     clip-path="url(#clipPath5178)">
    <defs
       id="defs4862">
      <path
         d="m 395.89999,745.09998 294.60001,0 0,279.80002 -294.60001,0 z"
         id="path4864"
         inkscape:connector-curvature="0" />
    </defs>
    <clipPath
       id="clipPath4866">
      <use
         id="use4868"
         overflow="visible"
         height="100%"
         width="100%"
         xlink:href="#a"
         style="overflow:visible"
         x="0"
         y="0" />
    </clipPath>
    <path
       sodipodi:nodetypes="cccccsccccscccsccsccccsccccscccccccccc"
       inkscape:connector-curvature="0"
       id="path4870"
       clip-path="url(#b)"
       d="m 339.3,1028.6 c 1.5,-3.2 14.4,-31.3 27.4,-58.8 -6,-9.3 -2,-17 1.5,-23.7 1.9,-3.7 3.8,-7.1 3.6,-10.4 -0.8,-22 8.1,-38.3 22.8,-41.6 2.8,-0.6 5.2,-0.9 7.5,-0.9 3,0 5.6,0.5 8.1,1.6 1.4,-1.3 2.8,-2.6 4.2,-3.8 -2.8,-2.6 -4.3,-5.5 -4.5,-8.8 -0.3,-4.5 2.2,-9.5 6.8,-13.7 5.3,-4.8 16.5,-12.9 31.7,-12.9 0.9,0 1.7,0 2.6,0.1 -0.4,-0.9 -1,-2 -2.1,-2.9 -2.1,-1.6 -1.9,-3.2 -1.6,-4 0.7,-2.1 3.6,-3.2 8.1,-3.2 3.9,0 9.7,1.2 14,4.4 0.3,-0.7 0.7,-1.3 1.3,-1.7 0.5,-0.3 1.3,-0.5 2.2,-0.5 3.4,0 10.6,2.7 15.5,9.9 3.6,5.3 3.6,10.8 0.1,16 18.3,4.7 30.1,15.6 39.5,24.4 2.5,2.4 5,4.6 7.3,6.5 10.7,8.9 21.4,13.2 32.7,13.2 0.9,0 1.8,0 2.7,-0.1 8.97152,0.0305 14.4103,-2.76509 19.8,-5.6 8.9,-4.9 15.2,-12.5 17.1,-20.3 2,-8.6 0.5,-16.8 -4.2,-22.7 -9.13006,-13.44694 1.94262,-4.19868 10.96495,-3.98674 8.11954,0.19074 13.75121,-10.29125 12.13505,2.78674 -1.1,1.9 -2.5,6.2 0.4,13.3 3.7,8.9 3.5,29.2 -8.3,46.2 -8.1,11.7 -18.20425,20.57483 -37.50425,24.17483 C 582.16759,927.79867 512.6,980 512.6,980 c -7.6,12.9 -10.5,26.2 -10.6,32.1 -0.2,11 0.9,16.1 0.9,16.2 l 0.4,1.8 -164.9,0.8 z"
       class="st53" />
    <path
       id="path4872"
       stroke-miterlimit="10"
       clip-path="url(#b)"
       d="m 388.5,927.9 c 20,-40 49.9,-56.3 83.4,-54.9 33.6,1.4 48.8,21.7 62.4,32.9 13.6,11.2 27.5,15.6 43.4,12.5 15.9,-3.1 28.5,-14.6 31.2,-26.1 2.7,-11.5 -1,-20.7 -6.1,-25.8 -5.1,-5.1 -1.4,-8.1 4.1,-6.8 5.4,1.4 8.1,3.4 8.1,3.4 0,0 7.8,-6.4 9.8,-3.7 2,2.7 1.7,5.4 0.3,7.8 -1.4,2.4 -2.7,7.1 0.3,14.6 3.1,7.5 4.1,27.1 -8.1,44.8 -15.30625,22.51566 -38.48112,29.38212 -62.1,26.5 -38.5,-3.9 -54.6,44.2 -54.9,59 -0.2,11.5 0.9,16.5 0.9,16.5 l -160.7,0.8 c 0.2,-0.1 33.4,-72.4 48,-101.5 z"
       class="st58"
       inkscape:connector-curvature="0"
       style="fill:#53606c;stroke:#000000;stroke-linecap:round;stroke-linejoin:round;stroke-miterlimit:10"
       sodipodi:nodetypes="ccssssccssccccccc" />
    <path
       style="fill:#38434f"
       d="m 399.4,989.3 c -6.1,0 -9.9,-4.3 -10,-4.3 l -0.2,-0.2 -0.3,0.1 c -3.1,1 -6.1,1.5 -9,1.5 -6.1,0 -11.4,-2.2 -15.6,-6.5 1.4,-3 2.9,-6.1 4.3,-9.1 0.1,0.1 0.1,0.2 0.2,0.3 6.1,8 12.7,9.7 17,9.7 3.2,0 5.6,-0.9 6.6,-1.3 0.7,1.3 3,4.7 7.5,4.7 1.2,0 2.5,-0.3 3.9,-0.8 6.7,-2.5 15.7,-13.1 18.3,-22.1 3.2,5.7 -2.8,18.3 -13.8,25.3 -3,1.7 -6,2.7 -8.9,2.7 z"
       id="path5190"
       inkscape:connector-curvature="0" />
    <path
       style="fill:#38434f"
       d="m 423.9,911.2 c -5.7,-11.1 -10.8,-14.2 -12.4,-14.9 15.7,-15.3 34.7,-23 56.6,-23 1.3,0 2.5,0 3.8,0.1 2.1,0.1 4.2,0.3 6.4,0.5 1.5,2.7 -0.4,5.6 -0.8,6.3 -3,0.8 -11.2,6.5 -18.5,11.6 -1.9,1.3 -3.7,2.6 -5.3,3.7 -5.3,3.7 -13.6,4.2 -18,4.2 -1.8,0 -2.9,-0.1 -2.9,-0.1 l -0.3,0 -8.6,11.6 z"
       id="path5188"
       inkscape:connector-curvature="0" />
    <path
       style="fill:#38434f"
       d="m 511.50376,934.6375 c 4.2,-7.1 12.6,-15.2 28.3,-15.2 3.5,0 7.2,0.4 11,1.2 3.4,0.7 7,1.1 10.6,1.1 15.9,0 29.59385,-7.41899 35.34973,-11.26311 10.05262,-8.5758 14.37579,-16.16076 12.98932,-32.4724 14.10349,34.86283 -31.9288,50.36407 -50.43905,49.63551 -3.6,0 -7.5,-0.2 -11.6,-0.6 -1.5,-0.2 -3,-0.2 -4.4,-0.2 -9.4,0 -18.1,3.2 -25.9,9.4 z"
       id="path4874"
       inkscape:connector-curvature="0"
       sodipodi:nodetypes="cscsccccscc" />
    <path
       id="path4876"
       stroke-miterlimit="10"
       clip-path="url(#b)"
       d="m 427.4,920.5 c -9.1,-24.2 -19,-27.9 -32.4,-25 -13.4,3 -22.4,18 -21.6,40 0.4,10.2 -15.5,20.5 -4.3,35 11.2,14.5 23.5,8 23.5,8 0,0 3,7.1 11,4.1 8,-3 16.7,-13.5 18.5,-21.6"
       class="st58"
       inkscape:connector-curvature="0"
       style="fill:#53606c;stroke:#000000;stroke-linecap:round;stroke-linejoin:round;stroke-miterlimit:10" />
    <path
       id="path4878"
       clip-path="url(#b)"
       d="m 417.2,934.2 c -7.3,0.5 -8.6,-4.8 -7.3,-7 1.2,-2.1 4.6,-3.2 4.6,-3.2 0,0 -5.3,-0.2 -6.3,-4 -1,-3.7 4,-5.3 4,-5.3 0,0 -2.9,-8.6 -13.3,-6.1 -10.4,2.5 -14.4,11.7 -14.2,19 0.6,15.3 -10.2,22.8 0,29.7 10.1,6.9 23.7,-2.8 28.5,-11.3 4.8,-8.5 4,-11.8 4,-11.8 z"
       class="st59"
       inkscape:connector-curvature="0"
       style="fill:#38434f" />
    <path
       id="path4880"
       stroke-miterlimit="10"
       clip-path="url(#b)"
       d="m 392.6,978.6 c 6.3,-3.9 9.1,-7.5 9.1,-7.5 m 15.5,-36.9 c -7.3,0.5 -8.6,-4.8 -7.3,-7 1.2,-2.1 4.6,-3.2 4.6,-3.2 0,0 -5.3,-0.2 -6.3,-4 -1,-3.7 4,-5.3 4,-5.3 0,0 -2.9,-8.6 -13.3,-6.1 -10.4,2.5 -14.6,11.7 -14.2,19"
       class="st57"
       inkscape:connector-curvature="0"
       style="fill:none;stroke:#000000;stroke-linecap:round;stroke-linejoin:round;stroke-miterlimit:10" />
    <path
       id="path4882"
       clip-path="url(#b)"
       d="m 417.5,891.4 c -9.8,-6.9 -6.2,-16 0.3,-21.8 6.5,-5.8 19,-14 35.2,-12.2 0,0 -0.2,-3.5 -3.1,-5.8 -2.9,-2.3 -0.5,-4.5 5.5,-4.5 6,0 12.9,2.6 15.8,6.9 0,0 -1.4,-3.2 0.4,-4.4 1.8,-1.2 10.2,1 15.6,9 5.4,8 1.1,14.9 -5.2,19.9 -6.3,5 -36.2,11.6 -48.8,10.9"
       inkscape:connector-curvature="0"
       style="fill:#53606c" />
    <g
       id="g4884"
       clip-path="url(#b)"
       class="st53">
      <path
         id="path4886"
         d="m 459.5,878.7 c -11.1,0.6 -22.1,3.3 -32.9,6.1 -4.1,1.1 -8.2,2.2 -12.4,2 -0.4,0 -0.8,-0.1 -1.3,-0.1 1,1.6 2.5,3.2 4.6,4.7 l 15.6,-2.1 c 11.3,0.7 37,-4.7 46.4,-9.4 -6.5,-1.1 -13.3,-1.5 -20,-1.2 z"
         class="st36"
         inkscape:connector-curvature="0"
         style="fill:#38434f" />
    </g>
    <path
       id="path4888"
       clip-path="url(#b)"
       d="m 417.5,890.8 c -3.5,-2.5 -5.3,-5.5 -5.5,-8.8 -0.2,-3.2 1.2,-6.7 4,-9.9 -0.4,1.6 -0.2,3.2 0.5,4.7 1.2,2.5 3.6,4 6.3,4 2.1,0 4.3,-0.9 6.3,-2.6 7.2,-6 19.4,-10.4 29.1,-10.4 1.9,0 3.7,0.2 5.3,0.5 7.7,1.6 12.3,3.7 13.8,6.7 0.8,1.6 0.8,3.3 0,5.4 -10.1,4.3 -31.2,8.6 -42.1,8.6 -0.7,0 -1.4,0 -2.1,-0.1 -1.4,-0.1 -2.8,-0.1 -4,-0.1 -7.5,-0.1 -10.6,1.4 -11.6,2 z"
       class="st59"
       inkscape:connector-curvature="0"
       style="fill:#38434f" />
    <path
       id="path4890"
       stroke-miterlimit="10"
       clip-path="url(#b)"
       d="m 471.2,854 c 2.2,3.4 1.1,6.7 1.1,6.7"
       class="st57"
       inkscape:connector-curvature="0"
       style="fill:none;stroke:#000000;stroke-linecap:round;stroke-linejoin:round;stroke-miterlimit:10" />
    <path
       id="path4896"
       stroke-miterlimit="10"
       clip-path="url(#b)"
       d="m 489.6,967.9 c -3.9,0.1 -6.7,-0.9 -6.7,-0.9"
       class="st57"
       inkscape:connector-curvature="0"
       style="fill:none;stroke:#000000;stroke-linecap:round;stroke-linejoin:round;stroke-miterlimit:10" />
    <path
       id="path4898"
       stroke-miterlimit="10"
       clip-path="url(#b)"
       d="m 525.9,907.8 c 2.5,-3.7 4.8,-5.2 4.8,-5.2 m 3.8,11.9 c 1.5,-3.1 3.7,-5.6 3.7,-5.6 m 11.9,13.3 c 1,-3.9 2.7,-5.6 2.7,-5.6 m 10.7,9 c 0.6,-4.6 0.9,-6.6 0.9,-6.6"
       class="st57"
       inkscape:connector-curvature="0"
       style="fill:none;stroke:#000000;stroke-linecap:round;stroke-linejoin:round;stroke-miterlimit:10" />
    <g
       id="g4900"
       clip-path="url(#b)"
       class="st53">
      <path
         id="path4902"
         d="m 491.2,946.7 c -4.1,1.1 -6.1,1.8 -10,3.5 -2.1,0.9 -4.6,0.1 -5.6,-1.9 -1,-2 0,-4.6 2.3,-5.6 4.3,-1.9 6.6,-2.7 11.2,-3.9 2.4,-0.6 4.8,0.8 5.3,2.9 0.4,2.2 -1,4.4 -3.2,5 z"
         inkscape:connector-curvature="0"
         style="fill:#505762" />
    </g>
    <path
       id="path4904"
       stroke-miterlimit="10"
       clip-path="url(#b)"
       d="M 515.8,952.3 C 515.6,950 514.1,949 514.1,949"
       class="st57"
       inkscape:connector-curvature="0"
       style="fill:none;stroke:#000000;stroke-linecap:round;stroke-linejoin:round;stroke-miterlimit:10" />
    <g
       id="g4906"
       clip-path="url(#b)"
       class="st53">
      <path
         id="path4908"
         d="m 454.5,887.5 c -3.5,0.7 -7.1,1.3 -10.6,1.7 -3.6,0.4 -7.2,0.8 -10.8,0.6 -0.3,0 -0.5,-0.2 -0.5,-0.5 0,-0.3 0.2,-0.5 0.5,-0.5 3.5,0.2 7.1,-0.1 10.6,-0.4 3.5,-0.4 7.1,-0.9 10.6,-1.6 0.2,0 0.4,0.1 0.4,0.3 0.1,0.2 0,0.4 -0.2,0.4 z"
         inkscape:connector-curvature="0" />
    </g>
    <g
       id="g4910"
       clip-path="url(#b)"
       class="st53">
      <path
         id="path4912"
         d="m 417.2,891.8 c -2.2,-1.6 -4.3,-3.6 -5.4,-6.2 l -0.4,-1 -0.2,-1 -0.1,-0.5 0,-0.5 c 0,-0.4 -0.1,-0.7 -0.1,-1.1 0,-1.4 0.2,-2.8 0.7,-4.1 0.9,-2.6 2.6,-4.9 4.4,-6.9 1.9,-2 4,-3.6 6.2,-5.2 2.2,-1.6 4.6,-2.9 7,-4.1 2.4,-1.2 5,-2.2 7.6,-2.9 5.2,-1.5 10.7,-1.9 16.1,-1.4 l -0.6,0.5 c -0.2,-1.3 -0.7,-2.7 -1.4,-3.8 -0.4,-0.6 -0.8,-1.1 -1.4,-1.5 -0.5,-0.5 -1.2,-1 -1.5,-1.9 -0.1,-0.2 -0.1,-0.5 -0.1,-0.7 0.1,-0.2 0.1,-0.5 0.2,-0.7 0.2,-0.4 0.6,-0.7 0.9,-0.9 0.7,-0.5 1.4,-0.7 2.2,-0.9 1.5,-0.3 3,-0.4 4.4,-0.4 2.9,0.1 5.9,0.7 8.6,1.8 2.7,1.1 5.3,2.8 7.1,5.3 l -0.9,0.5 c -0.3,-0.7 -0.5,-1.3 -0.5,-2.1 -0.1,-0.7 0,-1.5 0.4,-2.3 0.3,-0.3 0.5,-0.7 1,-0.8 0.2,-0.1 0.4,-0.1 0.6,-0.2 0.2,0 0.4,-0.1 0.6,-0.1 0.7,0 1.4,0.1 2.1,0.2 1.4,0.3 2.6,0.8 3.9,1.4 1.2,0.6 2.4,1.3 3.5,2.1 2.2,1.6 4.1,3.6 5.6,5.9 0.7,1.2 1.4,2.4 1.8,3.7 0.3,0.6 0.4,1.3 0.5,2 0.1,0.3 0.1,0.7 0.1,1 l 0,1 c -0.1,2.8 -1.3,5.5 -3,7.6 -1.7,2.2 -3.6,4 -5.9,5.6 -2.4,1.4 -4.9,2.3 -7.4,3.2 -2.5,0.8 -5.1,1.5 -7.8,1.9 1.2,-0.5 2.5,-0.9 3.7,-1.4 l 3.7,-1.3 c 2.5,-0.9 5,-1.8 7.2,-3.2 2.1,-1.5 4,-3.3 5.6,-5.4 1.5,-2.1 2.6,-4.5 2.7,-7 0.1,-2.5 -0.8,-5 -2.2,-7.1 -1.4,-2.2 -3.2,-4.1 -5.3,-5.6 -2.1,-1.5 -4.4,-2.8 -6.9,-3.4 -0.6,-0.1 -1.2,-0.2 -1.8,-0.2 -0.6,0 -1,0.1 -1.3,0.5 -0.5,0.8 -0.2,2.3 0.2,3.4 0.1,0.3 0,0.5 -0.3,0.6 -0.2,0.1 -0.4,0 -0.6,-0.2 -1.6,-2.3 -4,-3.8 -6.6,-4.9 -2.6,-1.1 -5.4,-1.7 -8.2,-1.7 -1.4,0 -2.8,0.1 -4.2,0.4 -0.7,0.2 -1.3,0.4 -1.8,0.7 -0.5,0.4 -0.8,0.8 -0.7,1.3 0.1,0.5 0.6,0.9 1.2,1.4 0.6,0.5 1.1,1.1 1.5,1.7 0.9,1.3 1.4,2.7 1.6,4.3 0,0.3 -0.2,0.5 -0.4,0.5 l -0.1,0 c -5.3,-0.5 -10.7,-0.1 -15.8,1.4 -2.5,0.7 -5,1.7 -7.4,2.8 -2.4,1.2 -4.7,2.5 -6.8,4.1 -2.2,1.5 -4.3,3.2 -6.1,5.1 -1.8,1.9 -3.4,4.1 -4.2,6.5 -0.4,1.2 -0.6,2.5 -0.7,3.8 0,0.3 0.1,0.6 0.1,1 l 0,0.5 0.1,0.5 0.2,0.9 0.4,0.9 c 1,2.4 2.9,4.3 5,5.8 0.2,0.2 0.3,0.5 0.1,0.7 -0.2,0.2 -0.4,0.3 -0.7,0.1 z"
         inkscape:connector-curvature="0" />
    </g>
    <g
       id="g4914"
       clip-path="url(#b)"
       class="st53">
      <path
         id="path4916"
         d="m 615.1,863.2 c 2,1.2 2.3,1.8 2.3,1.8"
         class="st36"
         inkscape:connector-curvature="0"
         style="fill:#38434f" />
      <path
         id="path4918"
         d="m 615.3,862.9 1.2,0.9 c 0.2,0.2 0.4,0.3 0.6,0.5 0.2,0.2 0.3,0.4 0.5,0.6 0,0.1 0,0.2 -0.1,0.2 l -0.2,0 -0.5,-0.5 c -0.2,-0.1 -0.4,-0.3 -0.6,-0.4 -0.4,-0.3 -0.8,-0.5 -1.3,-0.7 -0.2,-0.1 -0.2,-0.3 -0.1,-0.5 0.1,-0.2 0.2,-0.2 0.5,-0.1 -0.1,0 -0.1,0 0,0 z"
         inkscape:connector-curvature="0" />
    </g>
    <path
       sodipodi:nodetypes="cc"
       inkscape:connector-curvature="0"
       id="path4920"
       d="m 480.44628,927.62314 c -0.0365,0.283 10.59387,3.61002 19.92183,-5.63642"
       style="fill:none;fill-rule:evenodd;stroke:#1e242a;stroke-width:2;stroke-linecap:round;stroke-linejoin:miter;stroke-miterlimit:4;stroke-dasharray:none;stroke-opacity:1" />
  </g>
  <path
     transform="translate(-395.89999,-820.4)"
     style="fill:#b3becd;stroke:#000000;stroke-width:1.60000002;stroke-linecap:round;stroke-linejoin:round;stroke-miterlimit:10"
     d="m 489.6,967.9 c 34.6,23.5 68.7,8.7 80.2,-2.4 11.4,-11.1 20.8,-28.5 20,-45.9 -0.8,-17.4 -8.5,-32.9 -19.5,-42.8 -10.7,-9.6 -12.4,-8.7 -13.2,-7.7 -0.8,1 -1.4,1.1 5,12.2 6.4,11.1 13.4,24.6 9.5,40.2 -3.9,15.6 -15.6,29.9 -29.6,34 -14,4 -21.6,-1.4 -26.1,-3.2 0,0 1,4 -3.4,4.3 -4.3,0.3 -11.1,-2.9 -11.1,-2.9 0,0 2.7,3 0.1,5 -2.6,2 -5.9,-0.9 -5.9,-0.9 0,0 2.5,2.2 1.5,3.3 -1,1.1 -2.3,0.8 -4.2,-0.6 0,0 3.2,3.6 1,5.5 -2.2,1.9 -4.3,1.9 -4.3,1.9 z"
     clip-path="url(#b-7)"
     stroke-miterlimit="10"
     id="path4669"
     inkscape:connector-curvature="0" />
  <path
     transform="translate(-395.89999,-820.4)"
     style="fill:#92a1b5"
     d="m 528.6,979.9 c -13.1,0 -25.8,-3.9 -37.6,-11.7 0.9,-0.2 2.1,-0.7 3.3,-1.8 1.4,-1.3 1,-3 0.3,-4.3 0.4,0.1 0.8,0.2 1.1,0.2 0.7,0 1.3,-0.3 1.8,-0.8 0.3,-0.3 0.4,-0.6 0.4,-1 0,-0.3 -0.1,-0.6 -0.2,-0.9 0.6,0.2 1.2,0.4 1.9,0.4 0.9,0 1.7,-0.3 2.4,-0.8 0.3,-0.2 0.5,-0.5 0.7,-0.8 12.6,6.2 22.6,9.1 31.5,9.1 7.8,0 14.7,-2.3 21.1,-6.9 16.8,-12.3 21.3,-21.3 24.6,-27.9 l 0.3,-0.6 c 2.3,-4.5 8.55778,-15.27718 8.74229,-13.08493 0.19619,2.33095 0.30214,4.71605 -0.0842,7.39654 -1.4,13.6 -8.25806,28.08839 -19.15806,38.68839 -7.9,7.4 -23.4,14.8 -41.1,14.8 z"
     clip-path="url(#b-7)"
     id="path4671"
     inkscape:connector-curvature="0"
     sodipodi:nodetypes="scccssscsccscscsccs" />
  <path
     style="fill:none;fill-rule:evenodd;stroke:#9badb6;stroke-width:2;stroke-linecap:round;stroke-linejoin:round;stroke-miterlimit:4;stroke-dasharray:none;stroke-opacity:1"
     d="m 160.80707,8.8095652 12.10183,3.9430698 -16.64714,10.00712 12.10183,3.94307"
     id="path5266"
     inkscape:connector-curvature="0"
     sodipodi:nodetypes="cccc" />
  <path
     sodipodi:nodetypes="cccc"
     inkscape:connector-curvature="0"
     id="path5268"
     d="m 214.59751,15.563191 7.34109,1.554822 -9.12263,6.958627 7.34111,1.554821"
     style="fill:none;fill-rule:evenodd;stroke:#000000;stroke-width:2;stroke-linecap:round;stroke-linejoin:round;stroke-miterlimit:4;stroke-dasharray:none;stroke-opacity:1" />
  <path
     sodipodi:nodetypes="cccc"
     inkscape:connector-curvature="0"
     id="path5290"
     d="m 189.7406,35.586729 9.69823,2.36445 -12.47935,8.712534 9.69823,2.36446"
     style="fill:none;fill-rule:evenodd;stroke:#28343a;stroke-width:2;stroke-linecap:round;stroke-linejoin:round;stroke-miterlimit:4;stroke-dasharray:none;stroke-opacity:1" />
  <path
     sodipodi:nodetypes="cccc"
     inkscape:connector-curvature="0"
     id="path5298"
     d="m 125.04763,33.262894 16.80243,-3.07344 -13.24984,22.38909 16.80242,-3.07344"
     style="fill:none;fill-rule:evenodd;stroke:#d7dee2;stroke-width:2;stroke-linecap:round;stroke-linejoin:round;stroke-miterlimit:4;stroke-dasharray:none;stroke-opacity:1" />
  <path
     style="fill:#53606c;fill-opacity:1;fill-rule:evenodd;stroke:none;stroke-width:1px;stroke-linecap:butt;stroke-linejoin:miter;stroke-opacity:1"
     d="m 174.4786,102.76498 c 0.10357,0.0414 -4.23621,14.3433 -13.81003,22.79975 0,0 -1.65793,-0.74686 -12.17615,-0.87944 l 15.77732,-27.577163 c 0,0 10.29725,4.154253 10.34144,5.038133 z"
     id="path6023"
     inkscape:connector-curvature="0"
     sodipodi:nodetypes="cc" />
  <path
     transform="translate(-395.89999,-820.4)"
     class="st57"
     d="m 525.9,907.8 c 2.5,-3.7 4.8,-5.2 4.8,-5.2 m 3.8,11.9 c 1.5,-3.1 3.7,-5.6 3.7,-5.6 m 12.96066,11.35546 c 1,-3.9 2.61161,-5.33484 2.61161,-5.33484 M 563.5,925.6 c 0.6,-4.6 0.9,-6.6 0.9,-6.6"
     clip-path="url(#b-3)"
     stroke-miterlimit="10"
     id="path4677"
     inkscape:connector-curvature="0"
     style="fill:none;stroke:#000000;stroke-linecap:round;stroke-linejoin:round;stroke-miterlimit:10"
     sodipodi:nodetypes="cccccccc" />
</svg>
