<?xml version="1.0" encoding="UTF-8" standalone="no"?>
<svg xmlns="http://www.w3.org/2000/svg" height="615" width="293" version="1.1" xmlns:xlink="http://www.w3.org/1999/xlink" viewBox="0 0 293.00001 615"><defs><clipPath id="i" clipPathUnits="userSpaceOnUse"><rect height="149.53" width="76.962" y="845.41" x="575.11" fill="#575062"/></clipPath><clipPath id="g"><use xlink:href="#f" height="100%" width="100%" y="0" x="0" overflow="visible"/></clipPath><clipPath id="j"><use xlink:href="#f" height="100%" width="100%" y="0" x="0" overflow="visible"/></clipPath><clipPath id="e"><use xlink:href="#f" height="100%" width="100%" y="0" x="0" overflow="visible"/></clipPath><clipPath id="d"><use xlink:href="#h" height="100%" width="100%" y="0" x="0" overflow="visible"/></clipPath></defs><g transform="translate(-395.9 -819.9)"><defs><path id="f" d="m395.9 745.1h294.6v279.8h-294.6z"/></defs><clipPath id="c"><use xlink:href="#f" height="100%" width="100%" y="0" x="0" overflow="visible"/></clipPath><path d="m339.3 1028.6c1.5-3.2 14.4-31.3 27.4-58.8-6-9.3-2-17 1.5-23.7 1.9-3.7 3.8-7.1 3.6-10.4-.8-22 8.1-38.3 22.8-41.6 2.8-.6 5.2-.9 7.5-.9 3 0 5.6.5 8.1 1.6 1.4-1.3 2.8-2.6 4.2-3.8-2.8-2.6-4.3-5.5-4.5-8.8-.3-4.5 2.2-9.5 6.8-13.7 5.3-4.8 16.5-12.9 31.7-12.9.9 0 1.7 0 2.6.1-.4-.9-1-2-2.1-2.9-2.1-1.6-1.9-3.2-1.6-4 .7-2.1 3.6-3.2 8.1-3.2 3.9 0 9.7 1.2 14 4.4.3-.7.7-1.3 1.3-1.7.5-.3 1.3-.5 2.2-.5 3.4 0 10.6 2.7 15.5 9.9 3.6 5.3 3.6 10.8.1 16 18.3 4.7 30.1 15.6 39.5 24.4 2.5 2.4 5 4.6 7.3 6.5 13 6.9315 29.024 11.967 35.098 15.941 5.27-15.53-3-28.61-9.7-38.54-6.2-10.7-6.4-12.1-4.9-13.9l.1-.1c.6-.7 1.3-1 2.1-1.1h.3c1.7 0 4.5 1 13 8.7 9.9 9 16.9 22.2 19.2 36.5 0 0 2.1525 21.717-9.5 41.9-3 4.6-6.5 9-10.2 12.6-7.8 7.6-24 15.3-42.3 15.3-5.3 0-10.7-.6-15.9-1.9-7.6 12.9-10.5 26.2-10.6 32.1-.2 11 .9 16.1.9 16.2l.4 1.8-164.9.8z" clip-path="url(#c)" class="st53"/><path stroke-linejoin="round" d="m388.5 927.9c20-40 49.9-56.3 83.4-54.9 33.6 1.4 48.8 21.7 62.4 32.9 11.492 6.7362 22.968 8.6085 35.41 15.894l-10.39 31.31c-42.625-6.025-58.725 44.2-59.025 59-.2 11.5.9 16.5.9 16.5l-160.7.8c.2-.1 33.4-72.4 48-101.5z" clip-path="url(#c)" class="st58" stroke="#000" stroke-linecap="round" stroke-miterlimit="10" fill="#53606c"/><path d="m399.4 989.3c-6.1 0-9.9-4.3-10-4.3l-.2-.2-.3.1c-3.1 1-6.1 1.5-9 1.5-6.1 0-11.4-2.2-15.6-6.5 1.4-3 2.9-6.1 4.3-9.1.1.1.1.2.2.3 6.1 8 12.7 9.7 17 9.7 3.2 0 5.6-.9 6.6-1.3.7 1.3 3 4.7 7.5 4.7 1.2 0 2.5-.3 3.9-.8 6.7-2.5 15.7-13.1 18.3-22.1 3.2 5.7-2.8 18.3-13.8 25.3-3 1.7-6 2.7-8.9 2.7zm24.5-78.1c-5.7-11.1-10.8-14.2-12.4-14.9 15.7-15.3 34.7-23 56.6-23 1.3 0 2.5 0 3.8.1 2.1.1 4.2.3 6.4.5 1.5 2.7-.4 5.6-.8 6.3-3 .8-11.2 6.5-18.5 11.6-1.9 1.3-3.7 2.6-5.3 3.7-5.3 3.7-13.6 4.2-18 4.2-1.8 0-2.9-.1-2.9-.1h-.3zm95.3 49c4.2-7.1 12.6-15.2 28.3-15.2 3.5 0 7.2.4 11 1.2 3.4.7 7 1.1 10.6 1.1 2.4097-5.1641 9.7269 4.9082-2.1 5.9-3.6 0-7.5-.2-11.6-.6-1.5-.2-3-.2-4.4-.2-9.4 0-18.1 3.2-25.9 9.4z" clip-path="url(#c)" class="st59" fill="#38434f"/><path stroke-linejoin="round" d="m427.4 920.5c-9.1-24.2-19-27.9-32.4-25-13.4 3-22.4 18-21.6 40 .4 10.2-15.5 20.5-4.3 35s23.5 8 23.5 8 3 7.1 11 4.1 16.7-13.5 18.5-21.6" clip-path="url(#c)" class="st58" stroke="#000" stroke-linecap="round" stroke-miterlimit="10" fill="#53606c"/><path d="m417.2 934.2c-7.3.5-8.6-4.8-7.3-7 1.2-2.1 4.6-3.2 4.6-3.2s-5.3-.2-6.3-4c-1-3.7 4-5.3 4-5.3s-2.9-8.6-13.3-6.1-14.4 11.7-14.2 19c.6 15.3-10.2 22.8 0 29.7 10.1 6.9 23.7-2.8 28.5-11.3s4-11.8 4-11.8z" clip-path="url(#c)" class="st59" fill="#38434f"/><path stroke-linejoin="round" d="m392.6 978.6c6.3-3.9 9.1-7.5 9.1-7.5m15.5-36.9c-7.3.5-8.6-4.8-7.3-7 1.2-2.1 4.6-3.2 4.6-3.2s-5.3-.2-6.3-4c-1-3.7 4-5.3 4-5.3s-2.9-8.6-13.3-6.1-14.6 11.7-14.2 19" clip-path="url(#c)" class="st57" stroke="#000" stroke-linecap="round" stroke-miterlimit="10" fill="none"/><path fill="#53606c" d="m417.5 891.4c-9.8-6.9-6.2-16 .3-21.8s19-14 35.2-12.2c0 0-.2-3.5-3.1-5.8s-.5-4.5 5.5-4.5 12.9 2.6 15.8 6.9c0 0-1.4-3.2.4-4.4s10.2 1 15.6 9 1.1 14.9-5.2 19.9-36.2 11.6-48.8 10.9" clip-path="url(#c)"/><g class="st53" clip-path="url(#c)"><path fill="#38434f" class="st36" d="m459.5 878.7c-11.1.6-22.1 3.3-32.9 6.1-4.1 1.1-8.2 2.2-12.4 2-.4 0-.8-.1-1.3-.1 1 1.6 2.5 3.2 4.6 4.7l15.6-2.1c11.3.7 37-4.7 46.4-9.4-6.5-1.1-13.3-1.5-20-1.2z"/></g><path d="m417.5 890.8c-3.5-2.5-5.3-5.5-5.5-8.8-.2-3.2 1.2-6.7 4-9.9-.4 1.6-.2 3.2.5 4.7 1.2 2.5 3.6 4 6.3 4 2.1 0 4.3-.9 6.3-2.6 7.2-6 19.4-10.4 29.1-10.4 1.9 0 3.7.2 5.3.5 7.7 1.6 12.3 3.7 13.8 6.7.8 1.6.8 3.3 0 5.4-10.1 4.3-31.2 8.6-42.1 8.6-.7 0-1.4 0-2.1-.1-1.4-.1-2.8-.1-4-.1-7.5-.1-10.6 1.4-11.6 2z" clip-path="url(#c)" class="st59" fill="#38434f"/><path stroke-linejoin="round" d="m471.2 854c2.2 3.4 1.1 6.7 1.1 6.7" clip-path="url(#c)" class="st57" stroke="#000" stroke-linecap="round" stroke-miterlimit="10" fill="none"/><path stroke-linejoin="round" d="m489.6 967.9c-3.9.1-6.7-.9-6.7-.9" clip-path="url(#c)" class="st57" stroke="#000" stroke-linecap="round" stroke-miterlimit="10" fill="none"/><g class="st53" clip-path="url(#c)"><path fill="#505762" d="m491.2 946.7c-4.1 1.1-6.1 1.8-10 3.5-2.1.9-4.6.1-5.6-1.9s0-4.6 2.3-5.6c4.3-1.9 6.6-2.7 11.2-3.9 2.4-.6 4.8.8 5.3 2.9.4 2.2-1 4.4-3.2 5z"/></g><path stroke-linejoin="round" d="m515.8 952.3c-.2-2.3-1.7-3.3-1.7-3.3" clip-path="url(#c)" class="st57" stroke="#000" stroke-linecap="round" stroke-miterlimit="10" fill="none"/><g class="st53" clip-path="url(#c)"><path d="m454.5 887.5c-3.5.7-7.1 1.3-10.6 1.7-3.6.4-7.2.8-10.8.6-.3 0-.5-.2-.5-.5s.2-.5.5-.5c3.5.2 7.1-.1 10.6-.4 3.5-.4 7.1-.9 10.6-1.6.2 0 .4.1.4.3.1.2 0 .4-.2.4z"/></g><g class="st53" clip-path="url(#c)"><path d="m417.2 891.8c-2.2-1.6-4.3-3.6-5.4-6.2l-.4-1-.2-1-.1-.5v-.5c0-.4-.1-.7-.1-1.1 0-1.4.2-2.8.7-4.1.9-2.6 2.6-4.9 4.4-6.9 1.9-2 4-3.6 6.2-5.2s4.6-2.9 7-4.1 5-2.2 7.6-2.9c5.2-1.5 10.7-1.9 16.1-1.4l-.6.5c-.2-1.3-.7-2.7-1.4-3.8-.4-.6-.8-1.1-1.4-1.5-.5-.5-1.2-1-1.5-1.9-.1-.2-.1-.5-.1-.7.1-.2.1-.5.2-.7.2-.4.6-.7.9-.9.7-.5 1.4-.7 2.2-.9 1.5-.3 3-.4 4.4-.4 2.9.1 5.9.7 8.6 1.8s5.3 2.8 7.1 5.3l-.9.5c-.3-.7-.5-1.3-.5-2.1-.1-.7 0-1.5.4-2.3.3-.3.5-.7 1-.8.2-.1.4-.1.6-.2.2 0 .4-.1.6-.1.7 0 1.4.1 2.1.2 1.4.3 2.6.8 3.9 1.4 1.2.6 2.4 1.3 3.5 2.1 2.2 1.6 4.1 3.6 5.6 5.9.7 1.2 1.4 2.4 1.8 3.7.3.6.4 1.3.5 2 .1.3.1.7.1 1v1c-.1 2.8-1.3 5.5-3 7.6-1.7 2.2-3.6 4-5.9 5.6-2.4 1.4-4.9 2.3-7.4 3.2-2.5.8-5.1 1.5-7.8 1.9 1.2-.5 2.5-.9 3.7-1.4l3.7-1.3c2.5-.9 5-1.8 7.2-3.2 2.1-1.5 4-3.3 5.6-5.4 1.5-2.1 2.6-4.5 2.7-7s-.8-5-2.2-7.1c-1.4-2.2-3.2-4.1-5.3-5.6s-4.4-2.8-6.9-3.4c-.6-.1-1.2-.2-1.8-.2s-1 .1-1.3.5c-.5.8-.2 2.3.2 3.4.1.3 0 .5-.3.6-.2.1-.4 0-.6-.2-1.6-2.3-4-3.8-6.6-4.9s-5.4-1.7-8.2-1.7c-1.4 0-2.8.1-4.2.4-.7.2-1.3.4-1.8.7-.5.4-.8.8-.7 1.3s.6.9 1.2 1.4 1.1 1.1 1.5 1.7c.9 1.3 1.4 2.7 1.6 4.3 0 .3-.2.5-.4.5h-.1c-5.3-.5-10.7-.1-15.8 1.4-2.5.7-5 1.7-7.4 2.8-2.4 1.2-4.7 2.5-6.8 4.1-2.2 1.5-4.3 3.2-6.1 5.1s-3.4 4.1-4.2 6.5c-.4 1.2-.6 2.5-.7 3.8 0 .3.1.6.1 1v.5l.1.5.2.9.4.9c1 2.4 2.9 4.3 5 5.8.2.2.3.5.1.7s-.4.3-.7.1z"/></g><path d="m480.45 927.62c-.0365.283 10.594 3.61 19.922-5.6364" stroke="#1e242a" stroke-linecap="round" stroke-width="2" fill="none"/></g><g clip-path="url(#i)" transform="matrix(.97533 .22074 .22074 -.97533 -604.61 900.8)"><clipPath><use xlink:href="#f" height="100%" width="100%" y="0" x="0" overflow="visible"/></clipPath><path d="m339.3 1028.6c1.5-3.2 14.4-31.3 27.4-58.8-6-9.3-2-17 1.5-23.7 1.9-3.7 3.8-7.1 3.6-10.4-.8-22 8.1-38.3 22.8-41.6 2.8-.6 5.2-.9 7.5-.9 3 0 5.6.5 8.1 1.6 1.4-1.3 2.8-2.6 4.2-3.8-2.8-2.6-4.3-5.5-4.5-8.8-.3-4.5 2.2-9.5 6.8-13.7 5.3-4.8 16.5-12.9 31.7-12.9.9 0 1.7 0 2.6.1-.4-.9-1-2-2.1-2.9-2.1-1.6-1.9-3.2-1.6-4 .7-2.1 3.6-3.2 8.1-3.2 3.9 0 9.7 1.2 14 4.4.3-.7.7-1.3 1.3-1.7.5-.3 1.3-.5 2.2-.5 3.4 0 10.6 2.7 15.5 9.9 3.6 5.3 3.6 10.8.1 16 18.3 4.7 30.1 15.6 39.5 24.4 2.5 2.4 5 4.6 7.3 6.5 10.7 8.9 21.4 13.2 32.7 13.2.9 0 1.8 0 2.7-.1 8.9715.0305 14.41-2.7651 19.8-5.6 8.9-4.9 15.2-12.5 17.1-20.3 2-8.6.5-16.8-4.2-22.7-9.1301-13.447 1.9426-4.1987 10.965-3.9867 8.1195.19074 13.751-10.291 12.135 2.7867-1.1 1.9-2.5 6.2.4 13.3 3.7 8.9 3.5 29.2-8.3 46.2-8.1 11.7-18.204 20.575-37.504 24.175 1.07-23.78-68.5 28.42-68.5 28.42-7.6 12.9-10.5 26.2-10.6 32.1-.2 11 .9 16.1.9 16.2l.4 1.8-164.9.8z" clip-path="url(#c)" class="st53"/><path stroke-linejoin="round" d="m388.5 927.9c20-40 49.9-56.3 83.4-54.9 33.6 1.4 48.8 21.7 62.4 32.9s27.5 15.6 43.4 12.5 28.5-14.6 31.2-26.1-1-20.7-6.1-25.8-1.4-8.1 4.1-6.8c5.4 1.4 8.1 3.4 8.1 3.4s7.8-6.4 9.8-3.7 1.7 5.4.3 7.8-2.7 7.1.3 14.6c3.1 7.5 4.1 27.1-8.1 44.8-15.306 22.516-38.481 29.382-62.1 26.5-38.5-3.9-54.6 44.2-54.9 59-.2 11.5.9 16.5.9 16.5l-160.7.8c.2-.1 33.4-72.4 48-101.5z" clip-path="url(#c)" stroke="#000" stroke-linecap="round" stroke-miterlimit="10" class="st58" fill="#53606c"/><path fill="#38434f" d="m399.4 989.3c-6.1 0-9.9-4.3-10-4.3l-.2-.2-.3.1c-3.1 1-6.1 1.5-9 1.5-6.1 0-11.4-2.2-15.6-6.5 1.4-3 2.9-6.1 4.3-9.1.1.1.1.2.2.3 6.1 8 12.7 9.7 17 9.7 3.2 0 5.6-.9 6.6-1.3.7 1.3 3 4.7 7.5 4.7 1.2 0 2.5-.3 3.9-.8 6.7-2.5 15.7-13.1 18.3-22.1 3.2 5.7-2.8 18.3-13.8 25.3-3 1.7-6 2.7-8.9 2.7z"/><path fill="#38434f" d="m423.9 911.2c-5.7-11.1-10.8-14.2-12.4-14.9 15.7-15.3 34.7-23 56.6-23 1.3 0 2.5 0 3.8.1 2.1.1 4.2.3 6.4.5 1.5 2.7-.4 5.6-.8 6.3-3 .8-11.2 6.5-18.5 11.6-1.9 1.3-3.7 2.6-5.3 3.7-5.3 3.7-13.6 4.2-18 4.2-1.8 0-2.9-.1-2.9-.1h-.3l-8.6 11.6z"/><path fill="#38434f" d="m511.5 934.64c4.2-7.1 12.6-15.2 28.3-15.2 3.5 0 7.2.4 11 1.2 3.4.7 7 1.1 10.6 1.1 15.9 0 29.594-7.419 35.35-11.263 10.053-8.5758 14.376-16.161 12.989-32.472 14.103 34.863-31.929 50.364-50.439 49.636-3.6 0-7.5-.2-11.6-.6-1.5-.2-3-.2-4.4-.2-9.4 0-18.1 3.2-25.9 9.4z"/><path stroke-linejoin="round" d="m427.4 920.5c-9.1-24.2-19-27.9-32.4-25-13.4 3-22.4 18-21.6 40 .4 10.2-15.5 20.5-4.3 35s23.5 8 23.5 8 3 7.1 11 4.1 16.7-13.5 18.5-21.6" clip-path="url(#c)" stroke="#000" stroke-linecap="round" stroke-miterlimit="10" class="st58" fill="#53606c"/><path d="m417.2 934.2c-7.3.5-8.6-4.8-7.3-7 1.2-2.1 4.6-3.2 4.6-3.2s-5.3-.2-6.3-4c-1-3.7 4-5.3 4-5.3s-2.9-8.6-13.3-6.1-14.4 11.7-14.2 19c.6 15.3-10.2 22.8 0 29.7 10.1 6.9 23.7-2.8 28.5-11.3s4-11.8 4-11.8z" clip-path="url(#c)" class="st59" fill="#38434f"/><path stroke-linejoin="round" d="m392.6 978.6c6.3-3.9 9.1-7.5 9.1-7.5m15.5-36.9c-7.3.5-8.6-4.8-7.3-7 1.2-2.1 4.6-3.2 4.6-3.2s-5.3-.2-6.3-4c-1-3.7 4-5.3 4-5.3s-2.9-8.6-13.3-6.1-14.6 11.7-14.2 19" clip-path="url(#c)" stroke="#000" stroke-linecap="round" stroke-miterlimit="10" class="st57" fill="none"/><path d="m417.5 891.4c-9.8-6.9-6.2-16 .3-21.8s19-14 35.2-12.2c0 0-.2-3.5-3.1-5.8s-.5-4.5 5.5-4.5 12.9 2.6 15.8 6.9c0 0-1.4-3.2.4-4.4s10.2 1 15.6 9 1.1 14.9-5.2 19.9-36.2 11.6-48.8 10.9" fill="#53606c" clip-path="url(#c)"/><g class="st53" clip-path="url(#c)"><path class="st36" fill="#38434f" d="m459.5 878.7c-11.1.6-22.1 3.3-32.9 6.1-4.1 1.1-8.2 2.2-12.4 2-.4 0-.8-.1-1.3-.1 1 1.6 2.5 3.2 4.6 4.7l15.6-2.1c11.3.7 37-4.7 46.4-9.4-6.5-1.1-13.3-1.5-20-1.2z"/></g><path d="m417.5 890.8c-3.5-2.5-5.3-5.5-5.5-8.8-.2-3.2 1.2-6.7 4-9.9-.4 1.6-.2 3.2.5 4.7 1.2 2.5 3.6 4 6.3 4 2.1 0 4.3-.9 6.3-2.6 7.2-6 19.4-10.4 29.1-10.4 1.9 0 3.7.2 5.3.5 7.7 1.6 12.3 3.7 13.8 6.7.8 1.6.8 3.3 0 5.4-10.1 4.3-31.2 8.6-42.1 8.6-.7 0-1.4 0-2.1-.1-1.4-.1-2.8-.1-4-.1-7.5-.1-10.6 1.4-11.6 2z" clip-path="url(#c)" class="st59" fill="#38434f"/><path stroke-linejoin="round" d="m471.2 854c2.2 3.4 1.1 6.7 1.1 6.7" clip-path="url(#c)" stroke="#000" stroke-linecap="round" stroke-miterlimit="10" class="st57" fill="none"/><path stroke-linejoin="round" d="m489.6 967.9c-3.9.1-6.7-.9-6.7-.9" clip-path="url(#c)" stroke="#000" stroke-linecap="round" stroke-miterlimit="10" class="st57" fill="none"/><path stroke-linejoin="round" d="m525.9 907.8c2.5-3.7 4.8-5.2 4.8-5.2m3.8 11.9c1.5-3.1 3.7-5.6 3.7-5.6m11.9 13.3c1-3.9 2.7-5.6 2.7-5.6m10.7 9c.6-4.6.9-6.6.9-6.6" clip-path="url(#c)" stroke="#000" stroke-linecap="round" stroke-miterlimit="10" class="st57" fill="none"/><g class="st53" clip-path="url(#c)"><path fill="#505762" d="m491.2 946.7c-4.1 1.1-6.1 1.8-10 3.5-2.1.9-4.6.1-5.6-1.9s0-4.6 2.3-5.6c4.3-1.9 6.6-2.7 11.2-3.9 2.4-.6 4.8.8 5.3 2.9.4 2.2-1 4.4-3.2 5z"/></g><path stroke-linejoin="round" d="m515.8 952.3c-.2-2.3-1.7-3.3-1.7-3.3" clip-path="url(#c)" stroke="#000" stroke-linecap="round" stroke-miterlimit="10" class="st57" fill="none"/><g class="st53" clip-path="url(#c)"><path d="m454.5 887.5c-3.5.7-7.1 1.3-10.6 1.7-3.6.4-7.2.8-10.8.6-.3 0-.5-.2-.5-.5s.2-.5.5-.5c3.5.2 7.1-.1 10.6-.4 3.5-.4 7.1-.9 10.6-1.6.2 0 .4.1.4.3.1.2 0 .4-.2.4z"/></g><g class="st53" clip-path="url(#c)"><path d="m417.2 891.8c-2.2-1.6-4.3-3.6-5.4-6.2l-.4-1-.2-1-.1-.5v-.5c0-.4-.1-.7-.1-1.1 0-1.4.2-2.8.7-4.1.9-2.6 2.6-4.9 4.4-6.9 1.9-2 4-3.6 6.2-5.2s4.6-2.9 7-4.1 5-2.2 7.6-2.9c5.2-1.5 10.7-1.9 16.1-1.4l-.6.5c-.2-1.3-.7-2.7-1.4-3.8-.4-.6-.8-1.1-1.4-1.5-.5-.5-1.2-1-1.5-1.9-.1-.2-.1-.5-.1-.7.1-.2.1-.5.2-.7.2-.4.6-.7.9-.9.7-.5 1.4-.7 2.2-.9 1.5-.3 3-.4 4.4-.4 2.9.1 5.9.7 8.6 1.8s5.3 2.8 7.1 5.3l-.9.5c-.3-.7-.5-1.3-.5-2.1-.1-.7 0-1.5.4-2.3.3-.3.5-.7 1-.8.2-.1.4-.1.6-.2.2 0 .4-.1.6-.1.7 0 1.4.1 2.1.2 1.4.3 2.6.8 3.9 1.4 1.2.6 2.4 1.3 3.5 2.1 2.2 1.6 4.1 3.6 5.6 5.9.7 1.2 1.4 2.4 1.8 3.7.3.6.4 1.3.5 2 .1.3.1.7.1 1v1c-.1 2.8-1.3 5.5-3 7.6-1.7 2.2-3.6 4-5.9 5.6-2.4 1.4-4.9 2.3-7.4 3.2-2.5.8-5.1 1.5-7.8 1.9 1.2-.5 2.5-.9 3.7-1.4l3.7-1.3c2.5-.9 5-1.8 7.2-3.2 2.1-1.5 4-3.3 5.6-5.4 1.5-2.1 2.6-4.5 2.7-7s-.8-5-2.2-7.1c-1.4-2.2-3.2-4.1-5.3-5.6s-4.4-2.8-6.9-3.4c-.6-.1-1.2-.2-1.8-.2s-1 .1-1.3.5c-.5.8-.2 2.3.2 3.4.1.3 0 .5-.3.6-.2.1-.4 0-.6-.2-1.6-2.3-4-3.8-6.6-4.9s-5.4-1.7-8.2-1.7c-1.4 0-2.8.1-4.2.4-.7.2-1.3.4-1.8.7-.5.4-.8.8-.7 1.3s.6.9 1.2 1.4 1.1 1.1 1.5 1.7c.9 1.3 1.4 2.7 1.6 4.3 0 .3-.2.5-.4.5h-.1c-5.3-.5-10.7-.1-15.8 1.4-2.5.7-5 1.7-7.4 2.8-2.4 1.2-4.7 2.5-6.8 4.1-2.2 1.5-4.3 3.2-6.1 5.1s-3.4 4.1-4.2 6.5c-.4 1.2-.6 2.5-.7 3.8 0 .3.1.6.1 1v.5l.1.5.2.9.4.9c1 2.4 2.9 4.3 5 5.8.2.2.3.5.1.7s-.4.3-.7.1z"/></g><g class="st53" clip-path="url(#c)"><path class="st36" fill="#38434f" d="m615.1 863.2c2 1.2 2.3 1.8 2.3 1.8"/><path d="m615.3 862.9 1.2.9c.2.2.4.3.6.5s.3.4.5.6c0 .1 0 .2-.1.2h-.2l-.5-.5c-.2-.1-.4-.3-.6-.4-.4-.3-.8-.5-1.3-.7-.2-.1-.2-.3-.1-.5s.2-.2.5-.1c-.1 0-.1 0 0 0z"/></g><path d="m480.45 927.62c-.0365.283 10.594 3.61 19.922-5.6364" stroke="#1e242a" stroke-linecap="round" stroke-width="2" fill="none"/></g><path stroke-linejoin="round" d="m489.6 967.9c34.6 23.5 68.7 8.7 80.2-2.4 11.4-11.1 20.8-28.5 20-45.9s-8.5-32.9-19.5-42.8c-10.7-9.6-12.4-8.7-13.2-7.7s-1.4 1.1 5 12.2 13.4 24.6 9.5 40.2-15.6 29.9-29.6 34c-14 4-21.6-1.4-26.1-3.2 0 0 1 4-3.4 4.3-4.3.3-11.1-2.9-11.1-2.9s2.7 3 .1 5-5.9-.9-5.9-.9 2.5 2.2 1.5 3.3-2.3.8-4.2-.6c0 0 3.2 3.6 1 5.5s-4.3 1.9-4.3 1.9z" clip-path="url(#g)" transform="translate(-395.9 -819.9)" stroke="#000" stroke-linecap="round" stroke-miterlimit="10" stroke-width="1.6" fill="#b3becd"/><path d="m528.6 979.9c-13.1 0-25.8-3.9-37.6-11.7.9-.2 2.1-.7 3.3-1.8 1.4-1.3 1-3 .3-4.3.4.1.8.2 1.1.2.7 0 1.3-.3 1.8-.8.3-.3.4-.6.4-1 0-.3-.1-.6-.2-.9.6.2 1.2.4 1.9.4.9 0 1.7-.3 2.4-.8.3-.2.5-.5.7-.8 12.6 6.2 22.6 9.1 31.5 9.1 7.8 0 14.7-2.3 21.1-6.9 16.8-12.3 21.3-21.3 24.6-27.9l.3-.6c2.3-4.5 8.5578-15.277 8.7423-13.085.19619 2.331.30214 4.716-.0842 7.3965-1.4 13.6-8.2581 28.088-19.158 38.688-7.9 7.4-23.4 14.8-41.1 14.8z" clip-path="url(#g)" transform="translate(-395.9 -819.9)" fill="#92a1b5"/><path stroke-linejoin="round" d="m160.81 9.3096 12.102 3.9431-16.647 10.007 12.102 3.9431" stroke="#9badb6" stroke-linecap="round" stroke-width="2" fill="none"/><path stroke-linejoin="round" d="m214.6 16.063 7.3411 1.5548-9.1226 6.9586 7.3411 1.5548" stroke="#000" stroke-linecap="round" stroke-width="2" fill="none"/><path stroke-linejoin="round" d="m189.74 36.087 9.6982 2.3644-12.479 8.7125 9.6982 2.3645" stroke="#28343a" stroke-linecap="round" stroke-width="2" fill="none"/><path stroke-linejoin="round" d="m125.05 33.763 16.802-3.0734-13.25 22.389 16.802-3.0734" stroke="#d7dee2" stroke-linecap="round" stroke-width="2" fill="none"/><path d="m174.48 103.26c.10357.0414-4.2362 14.343-13.81 22.8 0 0-1.6579-.74686-12.176-.87944l15.777-27.577s10.297 4.1542 10.341 5.0381z" fill-rule="evenodd" fill="#53606c"/><path stroke-linejoin="round" d="m525.9 907.8c2.5-3.7 4.8-5.2 4.8-5.2m3.8 11.9c1.5-3.1 3.7-5.6 3.7-5.6m12.961 11.355c1-3.9 2.6116-5.3348 2.6116-5.3348m9.73 10.67c.6-4.6.9-6.6.9-6.6" clip-path="url(#j)" transform="translate(-395.9 -819.9)" class="st57" stroke="#000" stroke-linecap="round" stroke-miterlimit="10" fill="none"/><path d="m339.3 1028.6c1.5-3.2 14.4-31.3 27.4-58.8-6-9.3-2-17 1.5-23.7 1.9-3.7 3.8-7.1 3.6-10.4-.8-22 8.1-38.3 22.8-41.6 2.8-.6 5.2-.9 7.5-.9 3 0 5.6.5 8.1 1.6 1.4-1.3 2.8-2.6 4.2-3.8-2.8-2.6-4.3-5.5-4.5-8.8-.3-4.5 2.2-9.5 6.8-13.7 5.3-4.8 16.5-12.9 31.7-12.9.9 0 1.7 0 2.6.1-.4-.9-1-2-2.1-2.9-2.1-1.6-1.9-3.2-1.6-4 .7-2.1 3.6-3.2 8.1-3.2 3.9 0 9.7 1.2 14 4.4.3-.7.7-1.3 1.3-1.7.5-.3 1.3-.5 2.2-.5 3.4 0 10.6 2.7 15.5 9.9 3.6 5.3 3.6 10.8.1 16 18.3 4.7 30.1 15.6 39.5 24.4 2.5 2.4 5 4.6 7.3 6.5 10.7 8.9 21.4 13.2 32.7 13.2.9 0 1.8 0 2.7-.1 2-13.5-4.1-25.5-10-35.7-6.2-10.7-6.4-12.1-4.9-13.9l.1-.1c.6-.7 1.3-1 2.1-1.1h.3c1.7 0 4.5 1 13 8.7 9.9 9 16.9 22.2 19.2 36.5 8.9-4.9 15.2-12.5 17.1-20.3 2-8.6.5-16.8-4.2-22.7-9.0096-12.854 2.2147-5.1691 11.19-5.276 6.4257-.0765 6.3939-8.1878 11.166-4.9178 2.2875 1.025 2.5438 5.6938.74375 8.9938-1.1 1.9-2.5 6.2.4 13.3 3.7 8.9 3.5 29.2-8.3 46.2-8.1 11.7-18.3 23-37.6 26.6-3 4.6-6.5 9-10.2 12.6-7.8 7.6-24 15.3-42.3 15.3-5.3 0-10.7-.6-15.9-1.9-7.6 12.9-10.5 26.2-10.6 32.1-.2 11 .9 16.1.9 16.2l.4 1.8-164.9.8z" clip-path="url(#e)" class="st53" transform="translate(-395.9 -614.9)"/><path d="m339.8 1028.8c.1-.3 13.9-30.1 27.5-59.1-6.1-9.2-2.1-16.8 1.4-23.5 2-3.7 3.8-7.3 3.7-10.6-.8-21.7 8-37.9 22.4-41 2.7-.6 5.1-.9 7.4-.9 3 0 5.7.5 8.2 1.7 1.6-1.6 3.2-3 4.9-4.4-3-2.6-4.6-5.5-4.8-8.8-.3-4.4 2.1-9.2 6.6-13.3 5.3-4.8 16.4-12.8 31.4-12.8 1.1 0 2.2 0 3.3.1-.3-1.1-1-2.7-2.5-3.8-1.8-1.4-1.7-2.8-1.5-3.4.6-1.8 3.4-2.9 7.6-2.9 4.4 0 10.3 1.5 14.3 4.8.1-.9.6-1.7 1.3-2.1.4-.3 1.1-.4 1.9-.4 3.3 0 10.3 2.6 15.1 9.7 3.6 5.3 3.5 10.9-.3 16.1 18.6 4.6 30.5 15.6 40 24.4 2.6 2.4 5 4.6 7.3 6.5 10.8 8.9 21.6 13.3 33.1 13.3 1 0 2.1 0 3.1-.1 2.2-13.9-4-26.1-10-36.4-6.3-10.9-6.2-11.8-5-13.3l.1-.1c.2-.2.7-.9 1.8-.9h.2c1.5 0 4.2 1 12.7 8.6 10 9.1 17 22.5 19.2 36.9 9.3-5 16-12.8 17.9-20.9 2.1-8.9.4-17.4-4.5-23.4 0 0 22.012-8.3312 21.712-8.7312.1.1.3875-1.2688.4875-1.0688 2 2.7 2.2 5.8.4 8.9-1.1 2-2.6 6.4.4 13.7 3.6 8.8 3.4 28.8-8.2 45.7-8.1 11.7-18.2 22.9-37.5 26.4-3 4.7-6.5 9.1-10.3 12.7-7.8 7.5-23.7 15.1-42 15.1-5.4 0-10.9-.7-16.1-2-7.7 13.1-10.7 26.7-10.9 32.7-.2 11.1.9 16.2.9 16.3l.3 1.2-163.5.8z" clip-path="url(#e)" class="st53" transform="translate(-395.9 -614.9)"/><path stroke-linejoin="round" d="m388.5 927.9c20-40 49.9-56.3 83.4-54.9 33.6 1.4 48.8 21.7 62.4 32.9s27.5 15.6 43.4 12.5 28.5-14.6 31.2-26.1-1-20.7-6.1-25.8-1.4-8.1 4.1-6.8c5.4 1.4 8.1 3.4 8.1 3.4s7.8-6.4 9.8-3.7 1.7 5.4.3 7.8-2.7 7.1.3 14.6c3.1 7.5 4.1 27.1-8.1 44.8-12.2 17.6-26.5 30.1-62.1 26.5-38.5-3.9-54.6 44.2-54.9 59-.2 11.5.9 16.5.9 16.5l-160.7.8c.2-.1 33.4-72.4 48-101.5z" clip-path="url(#e)" transform="translate(-395.9 -614.9)" stroke="#000" stroke-linecap="round" stroke-miterlimit="10" class="st58" fill="#53606c"/><path d="m399.4 989.3c-6.1 0-9.9-4.3-10-4.3l-.2-.2-.3.1c-3.1 1-6.1 1.5-9 1.5-6.1 0-11.4-2.2-15.6-6.5 1.4-3 2.9-6.1 4.3-9.1.1.1.1.2.2.3 6.1 8 12.7 9.7 17 9.7 3.2 0 5.6-.9 6.6-1.3.7 1.3 3 4.7 7.5 4.7 1.2 0 2.5-.3 3.9-.8 6.7-2.5 15.7-13.1 18.3-22.1 3.2 5.7-2.8 18.3-13.8 25.3-3 1.7-6 2.7-8.9 2.7zm24.5-78.1c-5.7-11.1-10.8-14.2-12.4-14.9 15.7-15.3 34.7-23 56.6-23 1.3 0 2.5 0 3.8.1 2.1.1 4.2.3 6.4.5 1.5 2.7-.4 5.6-.8 6.3-3 .8-11.2 6.5-18.5 11.6-1.9 1.3-3.7 2.6-5.3 3.7-5.3 3.7-13.6 4.2-18 4.2-1.8 0-2.9-.1-2.9-.1h-.3l-8.6 11.6zm95.3 49c4.2-7.1 12.6-15.2 28.3-15.2 3.5 0 7.2.4 11 1.2 3.4.7 7 1.1 10.6 1.1 15.9 0 29.8-7.9 34.8-12.5 6.5-6 10.5-9.8 12-12.4 1.4-2.4 3.2-2.8 4.7-2 .1.1-.7 1.1-.6 1.1-.9 1.7-1.9 3.3-3 4.8-11.5 16.6-23.9 26.9-50 26.9-3.6 0-7.5-.2-11.6-.6-1.5-.2-3-.2-4.4-.2-9.4 0-18.1 3.2-25.9 9.4l-5.9-1.6z" clip-path="url(#e)" transform="translate(-395.9 -614.9)" class="st59" fill="#38434f"/><path stroke-linejoin="round" d="m427.4 920.5c-9.1-24.2-19-27.9-32.4-25-13.4 3-22.4 18-21.6 40 .4 10.2-15.5 20.5-4.3 35s23.5 8 23.5 8 3 7.1 11 4.1 16.7-13.5 18.5-21.6" clip-path="url(#e)" transform="translate(-395.9 -614.9)" stroke="#000" stroke-linecap="round" stroke-miterlimit="10" class="st58" fill="#53606c"/><path d="m417.2 934.2c-7.3.5-8.6-4.8-7.3-7 1.2-2.1 4.6-3.2 4.6-3.2s-5.3-.2-6.3-4c-1-3.7 4-5.3 4-5.3s-2.9-8.6-13.3-6.1-14.4 11.7-14.2 19c.6 15.3-10.2 22.8 0 29.7 10.1 6.9 23.7-2.8 28.5-11.3s4-11.8 4-11.8z" clip-path="url(#e)" transform="translate(-395.9 -614.9)" class="st59" fill="#38434f"/><path stroke-linejoin="round" d="m392.6 978.6c6.3-3.9 9.1-7.5 9.1-7.5m15.5-36.9c-7.3.5-8.6-4.8-7.3-7 1.2-2.1 4.6-3.2 4.6-3.2s-5.3-.2-6.3-4c-1-3.7 4-5.3 4-5.3s-2.9-8.6-13.3-6.1-14.6 11.7-14.2 19" clip-path="url(#e)" transform="translate(-395.9 -614.9)" stroke="#000" stroke-linecap="round" stroke-miterlimit="10" class="st57" fill="none"/><path d="m417.5 891.4c-9.8-6.9-6.2-16 .3-21.8s19-14 35.2-12.2c0 0-.2-3.5-3.1-5.8s-.5-4.5 5.5-4.5 12.9 2.6 15.8 6.9c0 0-1.4-3.2.4-4.4s10.2 1 15.6 9 1.1 14.9-5.2 19.9-36.2 11.6-48.8 10.9" clip-path="url(#e)" transform="translate(-395.9 -614.9)" fill="#53606c"/><g clip-path="url(#e)" transform="translate(-395.9 -614.9)" class="st53"><path d="m459.5 878.7c-11.1.6-22.1 3.3-32.9 6.1-4.1 1.1-8.2 2.2-12.4 2-.4 0-.8-.1-1.3-.1 1 1.6 2.5 3.2 4.6 4.7l15.6-2.1c11.3.7 37-4.7 46.4-9.4-6.5-1.1-13.3-1.5-20-1.2z" class="st36" fill="#38434f"/></g><path d="m417.5 890.8c-3.5-2.5-5.3-5.5-5.5-8.8-.2-3.2 1.2-6.7 4-9.9-.4 1.6-.2 3.2.5 4.7 1.2 2.5 3.6 4 6.3 4 2.1 0 4.3-.9 6.3-2.6 7.2-6 19.4-10.4 29.1-10.4 1.9 0 3.7.2 5.3.5 7.7 1.6 12.3 3.7 13.8 6.7.8 1.6.8 3.3 0 5.4-10.1 4.3-31.2 8.6-42.1 8.6-.7 0-1.4 0-2.1-.1-1.4-.1-2.8-.1-4-.1-7.5-.1-10.6 1.4-11.6 2z" clip-path="url(#e)" transform="translate(-395.9 -614.9)" class="st59" fill="#38434f"/><path stroke-linejoin="round" d="m471.2 854c2.2 3.4 1.1 6.7 1.1 6.7" clip-path="url(#e)" transform="translate(-395.9 -614.9)" stroke="#000" stroke-linecap="round" stroke-miterlimit="10" class="st57" fill="none"/><path stroke-linejoin="round" d="m489.6 967.9c34.6 23.5 68.7 8.7 80.2-2.4 11.4-11.1 20.8-28.5 20-45.9s-8.5-32.9-19.5-42.8c-10.7-9.6-12.4-8.7-13.2-7.7s-1.4 1.1 5 12.2 13.4 24.6 9.5 40.2-15.6 29.9-29.6 34c-14 4-21.6-1.4-26.1-3.2 0 0 1 4-3.4 4.3-4.3.3-11.1-2.9-11.1-2.9s2.7 3 .1 5-5.9-.9-5.9-.9 2.5 2.2 1.5 3.3-2.3.8-4.2-.6c0 0 3.2 3.6 1 5.5s-4.3 1.9-4.3 1.9z" clip-path="url(#e)" transform="translate(-395.9 -614.9)" stroke="#000" stroke-linecap="round" stroke-miterlimit="10" stroke-width="1.6" fill="#b3becd"/><path d="m528.6 979.9c-13.1 0-25.8-3.9-37.6-11.7.9-.2 2.1-.7 3.3-1.8 1.4-1.3 1-3 .3-4.3.4.1.8.2 1.1.2.7 0 1.3-.3 1.8-.8.3-.3.4-.6.4-1 0-.3-.1-.6-.2-.9.6.2 1.2.4 1.9.4.9 0 1.7-.3 2.4-.8.3-.2.5-.5.7-.8 12.6 6.2 22.6 9.1 31.5 9.1 7.8 0 14.7-2.3 21.1-6.9 16.8-12.3 21.3-21.3 24.6-27.9l.3-.6c2.3-4.5 4.2-6.5 6.4-6.5.9 0 1.7.3 2.7.9-1.4 13.6-8.7 28-19.6 38.6-7.9 7.4-23.4 14.8-41.1 14.8z" clip-path="url(#e)" transform="translate(-395.9 -614.9)" fill="#92a1b5"/><path stroke-linejoin="round" d="m489.6 967.9c-3.9.1-6.7-.9-6.7-.9" clip-path="url(#e)" transform="translate(-395.9 -614.9)" stroke="#000" stroke-linecap="round" stroke-miterlimit="10" class="st57" fill="none"/><path stroke-linejoin="round" d="m484 908.3c-2.2.9-2.1 3.2.1 6.7 2.1 3.5 4.5 7.9 5.9 10.3s2.6 3.5 4 2.8c1.4-.6 1.8-2 .4-4.9s-5.8-11-7.2-12.7c-1.6-1.7-2.4-2.5-3.2-2.2z" clip-path="url(#e)" transform="matrix(2.0261 -.59241 -.59241 1.342 -353.58 -639.29)" stroke="#000" stroke-linecap="round" stroke-miterlimit="10" stroke-width=".97474" fill="#38434f"/><path stroke-linejoin="round" d="m525.9 907.8c2.5-3.7 4.8-5.2 4.8-5.2m3.8 11.9c1.5-3.1 3.7-5.6 3.7-5.6m11.9 13.3c1-3.9 2.7-5.6 2.7-5.6m10.7 9c.6-4.6.9-6.6.9-6.6" clip-path="url(#e)" transform="translate(-395.9 -614.9)" stroke="#000" stroke-linecap="round" stroke-miterlimit="10" class="st57" fill="none"/><g clip-path="url(#e)" transform="translate(-395.9 -614.9)" class="st53"><path fill="#505762" d="m491.2 946.7c-4.1 1.1-6.1 1.8-10 3.5-2.1.9-4.6.1-5.6-1.9s0-4.6 2.3-5.6c4.3-1.9 6.6-2.7 11.2-3.9 2.4-.6 4.8.8 5.3 2.9.4 2.2-1 4.4-3.2 5z"/></g><path stroke-linejoin="round" d="m515.8 952.3c-.2-2.3-1.7-3.3-1.7-3.3" clip-path="url(#e)" transform="translate(-395.9 -614.9)" stroke="#000" stroke-linecap="round" stroke-miterlimit="10" class="st57" fill="none"/><g clip-path="url(#e)" transform="translate(-395.9 -614.9)" class="st53"><path d="m454.5 887.5c-3.5.7-7.1 1.3-10.6 1.7-3.6.4-7.2.8-10.8.6-.3 0-.5-.2-.5-.5s.2-.5.5-.5c3.5.2 7.1-.1 10.6-.4 3.5-.4 7.1-.9 10.6-1.6.2 0 .4.1.4.3.1.2 0 .4-.2.4z"/></g><g clip-path="url(#e)" transform="translate(-395.9 -614.9)" class="st53"><path d="m417.2 891.8c-2.2-1.6-4.3-3.6-5.4-6.2l-.4-1-.2-1-.1-.5v-.5c0-.4-.1-.7-.1-1.1 0-1.4.2-2.8.7-4.1.9-2.6 2.6-4.9 4.4-6.9 1.9-2 4-3.6 6.2-5.2s4.6-2.9 7-4.1 5-2.2 7.6-2.9c5.2-1.5 10.7-1.9 16.1-1.4l-.6.5c-.2-1.3-.7-2.7-1.4-3.8-.4-.6-.8-1.1-1.4-1.5-.5-.5-1.2-1-1.5-1.9-.1-.2-.1-.5-.1-.7.1-.2.1-.5.2-.7.2-.4.6-.7.9-.9.7-.5 1.4-.7 2.2-.9 1.5-.3 3-.4 4.4-.4 2.9.1 5.9.7 8.6 1.8s5.3 2.8 7.1 5.3l-.9.5c-.3-.7-.5-1.3-.5-2.1-.1-.7 0-1.5.4-2.3.3-.3.5-.7 1-.8.2-.1.4-.1.6-.2.2 0 .4-.1.6-.1.7 0 1.4.1 2.1.2 1.4.3 2.6.8 3.9 1.4 1.2.6 2.4 1.3 3.5 2.1 2.2 1.6 4.1 3.6 5.6 5.9.7 1.2 1.4 2.4 1.8 3.7.3.6.4 1.3.5 2 .1.3.1.7.1 1v1c-.1 2.8-1.3 5.5-3 7.6-1.7 2.2-3.6 4-5.9 5.6-2.4 1.4-4.9 2.3-7.4 3.2-2.5.8-5.1 1.5-7.8 1.9 1.2-.5 2.5-.9 3.7-1.4l3.7-1.3c2.5-.9 5-1.8 7.2-3.2 2.1-1.5 4-3.3 5.6-5.4 1.5-2.1 2.6-4.5 2.7-7s-.8-5-2.2-7.1c-1.4-2.2-3.2-4.1-5.3-5.6s-4.4-2.8-6.9-3.4c-.6-.1-1.2-.2-1.8-.2s-1 .1-1.3.5c-.5.8-.2 2.3.2 3.4.1.3 0 .5-.3.6-.2.1-.4 0-.6-.2-1.6-2.3-4-3.8-6.6-4.9s-5.4-1.7-8.2-1.7c-1.4 0-2.8.1-4.2.4-.7.2-1.3.4-1.8.7-.5.4-.8.8-.7 1.3s.6.9 1.2 1.4 1.1 1.1 1.5 1.7c.9 1.3 1.4 2.7 1.6 4.3 0 .3-.2.5-.4.5h-.1c-5.3-.5-10.7-.1-15.8 1.4-2.5.7-5 1.7-7.4 2.8-2.4 1.2-4.7 2.5-6.8 4.1-2.2 1.5-4.3 3.2-6.1 5.1s-3.4 4.1-4.2 6.5c-.4 1.2-.6 2.5-.7 3.8 0 .3.1.6.1 1v.5l.1.5.2.9.4.9c1 2.4 2.9 4.3 5 5.8.2.2.3.5.1.7s-.4.3-.7.1z"/></g><g clip-path="url(#e)" transform="translate(-395.9 -614.9)" class="st53"><path d="m615.1 863.2c2 1.2 2.3 1.8 2.3 1.8" class="st36" fill="#38434f"/><path d="m615.3 862.9 1.2.9c.2.2.4.3.6.5s.3.4.5.6c0 .1 0 .2-.1.2h-.2l-.5-.5c-.2-.1-.4-.3-.6-.4-.4-.3-.8-.5-1.3-.7-.2-.1-.2-.3-.1-.5s.2-.2.5-.1c-.1 0-.1 0 0 0z"/></g><path d="m121.62 266.46-.7071-13.081" stroke="#f9ff66" stroke-linecap="round" stroke-width="4" fill="none"/><path d="m128.34 268.58 2.8284-12.728" stroke="#f9ff66" stroke-linecap="round" stroke-width="4" fill="none"/><path d="m132.94 270.7 7.0711-10.253" stroke="#f9ff66" stroke-linecap="round" stroke-width="4" fill="none"/><path d="m136.12 275.3 11.314-5.6569" stroke="#f9ff66" stroke-linecap="round" stroke-width="4" fill="none"/><g transform="translate(-395.9 -409.9)"><defs><path id="h" d="m395.9 745.1h294.6v279.8h-294.6z"/></defs><clipPath><use xlink:href="#h" height="100%" width="100%" y="0" x="0" overflow="visible"/></clipPath><path d="m339.3 1028.6c1.5-3.2 14.4-31.3 27.4-58.8-6-9.3-2-17 1.5-23.7 1.9-3.7 3.8-7.1 3.6-10.4-.8-22 8.1-38.3 22.8-41.6 2.8-.6 5.2-.9 7.5-.9 3 0 5.6.5 8.1 1.6 1.4-1.3 2.8-2.6 4.2-3.8-2.8-2.6-4.3-5.5-4.5-8.8-.3-4.5 2.2-9.5 6.8-13.7 5.3-4.8 16.5-12.9 31.7-12.9.9 0 1.7 0 2.6.1-.4-.9-1-2-2.1-2.9-2.1-1.6-1.9-3.2-1.6-4 .7-2.1 3.6-3.2 8.1-3.2 3.9 0 9.7 1.2 14 4.4.3-.7.7-1.3 1.3-1.7.5-.3 1.3-.5 2.2-.5 3.4 0 10.6 2.7 15.5 9.9 3.6 5.3 3.6 10.8.1 16 18.3 4.7 30.1 15.6 39.5 24.4 2.5 2.4 5 4.6 7.3 6.5 10.7 8.9 21.4 13.2 32.7 13.2.9 0 1.8 0 2.7-.1 2-13.5-4.1-25.5-10-35.7-6.2-10.7-6.4-12.1-4.9-13.9l.1-.1c.6-.7 1.3-1 2.1-1.1h.3c1.7 0 4.5 1 13 8.7 9.9 9 16.9 22.2 19.2 36.5 8.9-4.9 15.2-12.5 17.1-20.3 2-8.6.5-16.8-4.2-22.7l-13.1 6.1-7-16.9-15.6 3.2 7.2-19.5h.1l-.2-.5 4.6-11.1 65.7 11.9c3.1.6 3.9 2.7 3.6 4.5l-.2 1-.4-.1c-.3.4-.6.7-1 .9-.7.3-7.5 3.6-21 9.9 2.1 2.9 2.2 6.1.4 9.4-1.1 1.9-2.5 6.2.4 13.3 3.7 8.9 3.5 29.2-8.3 46.2-8.1 11.7-18.3 23-37.6 26.6-3 4.6-6.5 9-10.2 12.6-7.8 7.6-24 15.3-42.3 15.3-5.3 0-10.7-.6-15.9-1.9-7.6 12.9-10.5 26.2-10.6 32.1-.2 11 .9 16.1.9 16.2l.4 1.8-164.9.8.9-2.3z" clip-path="url(#d)" class="st53"/><path d="m339.8 1028.8c.1-.3 13.9-30.1 27.5-59.1-6.1-9.2-2.1-16.8 1.4-23.5 2-3.7 3.8-7.3 3.7-10.6-.8-21.7 8-37.9 22.4-41 2.7-.6 5.1-.9 7.4-.9 3 0 5.7.5 8.2 1.7 1.6-1.6 3.2-3 4.9-4.4-3-2.6-4.6-5.5-4.8-8.8-.3-4.4 2.1-9.2 6.6-13.3 5.3-4.8 16.4-12.8 31.4-12.8 1.1 0 2.2 0 3.3.1-.3-1.1-1-2.7-2.5-3.8-1.8-1.4-1.7-2.8-1.5-3.4.6-1.8 3.4-2.9 7.6-2.9 4.4 0 10.3 1.5 14.3 4.8.1-.9.6-1.7 1.3-2.1.4-.3 1.1-.4 1.9-.4 3.3 0 10.3 2.6 15.1 9.7 3.6 5.3 3.5 10.9-.3 16.1 18.6 4.6 30.5 15.6 40 24.4 2.6 2.4 5 4.6 7.3 6.5 10.8 8.9 21.6 13.3 33.1 13.3 1 0 2.1 0 3.1-.1 2.2-13.9-4-26.1-10-36.4-6.3-10.9-6.2-11.8-5-13.3l.1-.1c.2-.2.7-.9 1.8-.9h.2c1.5 0 4.2 1 12.7 8.6 10 9.1 17 22.5 19.2 36.9 9.3-5 16-12.8 17.9-20.9 2.1-8.9.4-17.4-4.5-23.4l-13 6.1-6.9-16.8-15.1 3.1 6.8-18.4h.6l-.5-1 4.4-10.6 65.3 11.8c3.5.7 3.3 3.2 3.2 3.9l-.1.5h-.2c-.2.4-.6.8-1 1-.7.3-7.9 3.7-21.6 10.2.1.1.2.2.3.4 2 2.7 2.2 5.8.4 8.9-1.1 2-2.6 6.4.4 13.7 3.6 8.8 3.4 28.8-8.2 45.7-8.1 11.7-18.2 22.9-37.5 26.4-3 4.7-6.5 9.1-10.3 12.7-7.8 7.5-23.7 15.1-42 15.1-5.4 0-10.9-.7-16.1-2-7.7 13.1-10.7 26.7-10.9 32.7-.2 11.1.9 16.2.9 16.3l.3 1.2-163.5.8.5-1.7z" clip-path="url(#d)" class="st53"/><path stroke-linejoin="round" d="m577.5 843.7-1-2.1 3.9-9.4 64.5 11.6c2.4.5 2.5 2 2.4 2.8" clip-path="url(#d)" stroke="#000" stroke-linecap="round" stroke-miterlimit="10" fill="#fff"/><path stroke-linejoin="round" d="m584.2 856.7 6.9 16.6s53.7-25.1 55.5-26c.9-.5 1.5-2.2-1-2.3s-69.6-1.4-69.6-1.4l-5.9 16 14.1-2.9z" clip-path="url(#d)" stroke="#000" stroke-linecap="round" stroke-miterlimit="10" stroke-width="1.7" fill="#fff"/><path d="m585.1 857 58.9-11.2 1.4-.5h.4c.8 0 .7.3.8.6s-.1.6-.4.8l-59.2 14.8-1.9-4.5z" clip-path="url(#d)" fill="#d1d3d4"/><path stroke-linejoin="round" d="m584.2 856.7 61.8-11.5" clip-path="url(#d)" stroke="#000" stroke-linecap="round" stroke-miterlimit="10" class="st57" fill="none"/><path stroke-linejoin="round" d="m388.5 927.9c20-40 49.9-56.3 83.4-54.9 33.6 1.4 48.8 21.7 62.4 32.9s27.5 15.6 43.4 12.5 28.5-14.6 31.2-26.1-1-20.7-6.1-25.8-1.4-8.1 4.1-6.8c5.4 1.4 8.1 3.4 8.1 3.4s7.8-6.4 9.8-3.7 1.7 5.4.3 7.8-2.7 7.1.3 14.6c3.1 7.5 4.1 27.1-8.1 44.8-12.2 17.6-26.5 30.1-62.1 26.5-38.5-3.9-54.6 44.2-54.9 59-.2 11.5.9 16.5.9 16.5l-160.7.8c.2-.1 33.4-72.4 48-101.5z" clip-path="url(#d)" stroke="#000" stroke-linecap="round" stroke-miterlimit="10" class="st58" fill="#53606c"/><path d="m399.4 989.3c-6.1 0-9.9-4.3-10-4.3l-.2-.2-.3.1c-3.1 1-6.1 1.5-9 1.5-6.1 0-11.4-2.2-15.6-6.5 1.4-3 2.9-6.1 4.3-9.1.1.1.1.2.2.3 6.1 8 12.7 9.7 17 9.7 3.2 0 5.6-.9 6.6-1.3.7 1.3 3 4.7 7.5 4.7 1.2 0 2.5-.3 3.9-.8 6.7-2.5 15.7-13.1 18.3-22.1 3.2 5.7-2.8 18.3-13.8 25.3-3 1.7-6 2.7-8.9 2.7zm24.5-78.1c-5.7-11.1-10.8-14.2-12.4-14.9 15.7-15.3 34.7-23 56.6-23 1.3 0 2.5 0 3.8.1 2.1.1 4.2.3 6.4.5 1.5 2.7-.4 5.6-.8 6.3-3 .8-11.2 6.5-18.5 11.6-1.9 1.3-3.7 2.6-5.3 3.7-5.3 3.7-13.6 4.2-18 4.2-1.8 0-2.9-.1-2.9-.1h-.3l-8.6 11.6zm95.3 49c4.2-7.1 12.6-15.2 28.3-15.2 3.5 0 7.2.4 11 1.2 3.4.7 7 1.1 10.6 1.1 15.9 0 29.8-7.9 34.8-12.5 6.5-6 10.5-9.8 12-12.4 1.4-2.4 3.2-2.8 4.7-2 .1.1-.7 1.1-.6 1.1-.9 1.7-1.9 3.3-3 4.8-11.5 16.6-23.9 26.9-50 26.9-3.6 0-7.5-.2-11.6-.6-1.5-.2-3-.2-4.4-.2-9.4 0-18.1 3.2-25.9 9.4l-5.9-1.6z" clip-path="url(#d)" class="st59" fill="#38434f"/><path stroke-linejoin="round" d="m427.4 920.5c-9.1-24.2-19-27.9-32.4-25-13.4 3-22.4 18-21.6 40 .4 10.2-15.5 20.5-4.3 35s23.5 8 23.5 8 3 7.1 11 4.1 16.7-13.5 18.5-21.6" clip-path="url(#d)" stroke="#000" stroke-linecap="round" stroke-miterlimit="10" class="st58" fill="#53606c"/><path d="m417.2 934.2c-7.3.5-8.6-4.8-7.3-7 1.2-2.1 4.6-3.2 4.6-3.2s-5.3-.2-6.3-4c-1-3.7 4-5.3 4-5.3s-2.9-8.6-13.3-6.1-14.4 11.7-14.2 19c.6 15.3-10.2 22.8 0 29.7 10.1 6.9 23.7-2.8 28.5-11.3s4-11.8 4-11.8z" clip-path="url(#d)" class="st59" fill="#38434f"/><path stroke-linejoin="round" d="m392.6 978.6c6.3-3.9 9.1-7.5 9.1-7.5m15.5-36.9c-7.3.5-8.6-4.8-7.3-7 1.2-2.1 4.6-3.2 4.6-3.2s-5.3-.2-6.3-4c-1-3.7 4-5.3 4-5.3s-2.9-8.6-13.3-6.1-14.6 11.7-14.2 19" clip-path="url(#d)" stroke="#000" stroke-linecap="round" stroke-miterlimit="10" class="st57" fill="none"/><path d="m417.5 891.4c-9.8-6.9-6.2-16 .3-21.8s19-14 35.2-12.2c0 0-.2-3.5-3.1-5.8s-.5-4.5 5.5-4.5 12.9 2.6 15.8 6.9c0 0-1.4-3.2.4-4.4s10.2 1 15.6 9 1.1 14.9-5.2 19.9-36.2 11.6-48.8 10.9" clip-path="url(#d)" fill="#53606c"/><g class="st53" clip-path="url(#d)"><path d="m459.5 878.7c-11.1.6-22.1 3.3-32.9 6.1-4.1 1.1-8.2 2.2-12.4 2-.4 0-.8-.1-1.3-.1 1 1.6 2.5 3.2 4.6 4.7l15.6-2.1c11.3.7 37-4.7 46.4-9.4-6.5-1.1-13.3-1.5-20-1.2z" class="st36" fill="#38434f"/></g><path d="m417.5 890.8c-3.5-2.5-5.3-5.5-5.5-8.8-.2-3.2 1.2-6.7 4-9.9-.4 1.6-.2 3.2.5 4.7 1.2 2.5 3.6 4 6.3 4 2.1 0 4.3-.9 6.3-2.6 7.2-6 19.4-10.4 29.1-10.4 1.9 0 3.7.2 5.3.5 7.7 1.6 12.3 3.7 13.8 6.7.8 1.6.8 3.3 0 5.4-10.1 4.3-31.2 8.6-42.1 8.6-.7 0-1.4 0-2.1-.1-1.4-.1-2.8-.1-4-.1-7.5-.1-10.6 1.4-11.6 2z" clip-path="url(#d)" class="st59" fill="#38434f"/><path stroke-linejoin="round" d="m471.2 854c2.2 3.4 1.1 6.7 1.1 6.7" clip-path="url(#d)" stroke="#000" stroke-linecap="round" stroke-miterlimit="10" class="st57" fill="none"/><path stroke-linejoin="round" d="m489.6 967.9c34.6 23.5 68.7 8.7 80.2-2.4 11.4-11.1 20.8-28.5 20-45.9s-8.5-32.9-19.5-42.8c-10.7-9.6-12.4-8.7-13.2-7.7s-1.4 1.1 5 12.2 13.4 24.6 9.5 40.2-15.6 29.9-29.6 34c-14 4-21.6-1.4-26.1-3.2 0 0 1 4-3.4 4.3-4.3.3-11.1-2.9-11.1-2.9s2.7 3 .1 5-5.9-.9-5.9-.9 2.5 2.2 1.5 3.3-2.3.8-4.2-.6c0 0 3.2 3.6 1 5.5s-4.3 1.9-4.3 1.9z" clip-path="url(#d)" stroke="#000" stroke-linecap="round" stroke-miterlimit="10" stroke-width="1.6" fill="#b3becd"/><path d="m528.6 979.9c-13.1 0-25.8-3.9-37.6-11.7.9-.2 2.1-.7 3.3-1.8 1.4-1.3 1-3 .3-4.3.4.1.8.2 1.1.2.7 0 1.3-.3 1.8-.8.3-.3.4-.6.4-1 0-.3-.1-.6-.2-.9.6.2 1.2.4 1.9.4.9 0 1.7-.3 2.4-.8.3-.2.5-.5.7-.8 12.6 6.2 22.6 9.1 31.5 9.1 7.8 0 14.7-2.3 21.1-6.9 16.8-12.3 21.3-21.3 24.6-27.9l.3-.6c2.3-4.5 4.2-6.5 6.4-6.5.9 0 1.7.3 2.7.9-1.4 13.6-8.7 28-19.6 38.6-7.9 7.4-23.4 14.8-41.1 14.8z" clip-path="url(#d)" fill="#92a1b5"/><path stroke-linejoin="round" d="m489.6 967.9c-3.9.1-6.7-.9-6.7-.9" clip-path="url(#d)" stroke="#000" stroke-linecap="round" stroke-miterlimit="10" class="st57" fill="none"/><path stroke-linejoin="round" d="m484 908.3c-2.2.9-2.1 3.2.1 6.7 2.1 3.5 4.5 7.9 5.9 10.3s2.6 3.5 4 2.8c1.4-.6 1.8-2 .4-4.9s-5.8-11-7.2-12.7c-1.6-1.7-2.4-2.5-3.2-2.2z" clip-path="url(#d)" stroke="#000" stroke-linecap="round" stroke-miterlimit="10" stroke-width="1.5" fill="#38434f"/><path stroke-linejoin="round" d="m525.9 907.8c2.5-3.7 4.8-5.2 4.8-5.2m3.8 11.9c1.5-3.1 3.7-5.6 3.7-5.6m11.9 13.3c1-3.9 2.7-5.6 2.7-5.6m10.7 9c.6-4.6.9-6.6.9-6.6" clip-path="url(#d)" stroke="#000" stroke-linecap="round" stroke-miterlimit="10" class="st57" fill="none"/><g stroke-linejoin="round" clip-path="url(#d)" stroke="#e3e5e5" stroke-linecap="round" stroke-width="3" class="st53" fill="none"><path d="m504.9 862.2c.8-.4 1.5-.8 2.2-1.1" class="st49"/><path d="m519.8 856.2c13.6-3.5 22.1.5 28.2 3.3 5.3 2.4 11.6 4.7 17.6 5.3" stroke-dasharray="4.5286, 13.5857"/><path d="m572.4 864.5c.8-.2 1.6-.4 2.4-.7" class="st49"/></g><g class="st53" clip-path="url(#d)"><path fill="#505762" d="m491.2 946.7c-4.1 1.1-6.1 1.8-10 3.5-2.1.9-4.6.1-5.6-1.9s0-4.6 2.3-5.6c4.3-1.9 6.6-2.7 11.2-3.9 2.4-.6 4.8.8 5.3 2.9.4 2.2-1 4.4-3.2 5z"/></g><path stroke-linejoin="round" d="m515.8 952.3c-.2-2.3-1.7-3.3-1.7-3.3" clip-path="url(#d)" stroke="#000" stroke-linecap="round" stroke-miterlimit="10" class="st57" fill="none"/><g class="st53" clip-path="url(#d)"><path d="m454.5 887.5c-3.5.7-7.1 1.3-10.6 1.7-3.6.4-7.2.8-10.8.6-.3 0-.5-.2-.5-.5s.2-.5.5-.5c3.5.2 7.1-.1 10.6-.4 3.5-.4 7.1-.9 10.6-1.6.2 0 .4.1.4.3.1.2 0 .4-.2.4z"/></g><g class="st53" clip-path="url(#d)"><path d="m417.2 891.8c-2.2-1.6-4.3-3.6-5.4-6.2l-.4-1-.2-1-.1-.5v-.5c0-.4-.1-.7-.1-1.1 0-1.4.2-2.8.7-4.1.9-2.6 2.6-4.9 4.4-6.9 1.9-2 4-3.6 6.2-5.2s4.6-2.9 7-4.1 5-2.2 7.6-2.9c5.2-1.5 10.7-1.9 16.1-1.4l-.6.5c-.2-1.3-.7-2.7-1.4-3.8-.4-.6-.8-1.1-1.4-1.5-.5-.5-1.2-1-1.5-1.9-.1-.2-.1-.5-.1-.7.1-.2.1-.5.2-.7.2-.4.6-.7.9-.9.7-.5 1.4-.7 2.2-.9 1.5-.3 3-.4 4.4-.4 2.9.1 5.9.7 8.6 1.8s5.3 2.8 7.1 5.3l-.9.5c-.3-.7-.5-1.3-.5-2.1-.1-.7 0-1.5.4-2.3.3-.3.5-.7 1-.8.2-.1.4-.1.6-.2.2 0 .4-.1.6-.1.7 0 1.4.1 2.1.2 1.4.3 2.6.8 3.9 1.4 1.2.6 2.4 1.3 3.5 2.1 2.2 1.6 4.1 3.6 5.6 5.9.7 1.2 1.4 2.4 1.8 3.7.3.6.4 1.3.5 2 .1.3.1.7.1 1v1c-.1 2.8-1.3 5.5-3 7.6-1.7 2.2-3.6 4-5.9 5.6-2.4 1.4-4.9 2.3-7.4 3.2-2.5.8-5.1 1.5-7.8 1.9 1.2-.5 2.5-.9 3.7-1.4l3.7-1.3c2.5-.9 5-1.8 7.2-3.2 2.1-1.5 4-3.3 5.6-5.4 1.5-2.1 2.6-4.5 2.7-7s-.8-5-2.2-7.1c-1.4-2.2-3.2-4.1-5.3-5.6s-4.4-2.8-6.9-3.4c-.6-.1-1.2-.2-1.8-.2s-1 .1-1.3.5c-.5.8-.2 2.3.2 3.4.1.3 0 .5-.3.6-.2.1-.4 0-.6-.2-1.6-2.3-4-3.8-6.6-4.9s-5.4-1.7-8.2-1.7c-1.4 0-2.8.1-4.2.4-.7.2-1.3.4-1.8.7-.5.4-.8.8-.7 1.3s.6.9 1.2 1.4 1.1 1.1 1.5 1.7c.9 1.3 1.4 2.7 1.6 4.3 0 .3-.2.5-.4.5h-.1c-5.3-.5-10.7-.1-15.8 1.4-2.5.7-5 1.7-7.4 2.8-2.4 1.2-4.7 2.5-6.8 4.1-2.2 1.5-4.3 3.2-6.1 5.1s-3.4 4.1-4.2 6.5c-.4 1.2-.6 2.5-.7 3.8 0 .3.1.6.1 1v.5l.1.5.2.9.4.9c1 2.4 2.9 4.3 5 5.8.2.2.3.5.1.7s-.4.3-.7.1z"/></g><g class="st53" clip-path="url(#d)"><path d="m615.1 863.2c2 1.2 2.3 1.8 2.3 1.8" class="st36" fill="#38434f"/><path d="m615.3 862.9 1.2.9c.2.2.4.3.6.5s.3.4.5.6c0 .1 0 .2-.1.2h-.2l-.5-.5c-.2-.1-.4-.3-.6-.4-.4-.3-.8-.5-1.3-.7-.2-.1-.2-.3-.1-.5s.2-.2.5-.1c-.1 0-.1 0 0 0z"/></g></g></svg>
