<?xml version="1.0" encoding="UTF-8" standalone="no"?>
<svg
   xmlns:dc="http://purl.org/dc/elements/1.1/"
   xmlns:cc="http://creativecommons.org/ns#"
   xmlns:rdf="http://www.w3.org/1999/02/22-rdf-syntax-ns#"
   xmlns:svg="http://www.w3.org/2000/svg"
   xmlns="http://www.w3.org/2000/svg"
   xmlns:xlink="http://www.w3.org/1999/xlink"
   xmlns:sodipodi="http://sodipodi.sourceforge.net/DTD/sodipodi-0.dtd"
   xmlns:inkscape="http://www.inkscape.org/namespaces/inkscape"
   viewBox="0 0 292.85862 204.49997"
   width="292.85861"
   height="204.49997"
   id="svg5346"
   version="1.1"
   inkscape:version="0.91 r13725"
   sodipodi:docname="elephant_ui_wake.svg">
  <metadata
     id="metadata5430">
    <rdf:RDF>
      <cc:Work
         rdf:about="">
        <dc:format>image/svg+xml</dc:format>
        <dc:type
           rdf:resource="http://purl.org/dc/dcmitype/StillImage" />
        <dc:title></dc:title>
      </cc:Work>
    </rdf:RDF>
  </metadata>
  <defs
     id="defs5428" />
  <sodipodi:namedview
     pagecolor="#ffffff"
     bordercolor="#666666"
     borderopacity="1"
     objecttolerance="10"
     gridtolerance="10"
     guidetolerance="10"
     inkscape:pageopacity="0"
     inkscape:pageshadow="2"
     inkscape:window-width="1548"
     inkscape:window-height="814"
     id="namedview5426"
     showgrid="false"
     inkscape:zoom="2.8284271"
     inkscape:cx="127.60311"
     inkscape:cy="120.74901"
     inkscape:window-x="566"
     inkscape:window-y="1024"
     inkscape:window-maximized="0"
     inkscape:current-layer="g5348" />
  <g
     transform="translate(-395.89999 -820.4)"
     id="g5348">
    <defs
       id="defs5350">
      <path
         id="a"
         d="M395.89999 745.09998H690.5v279.79999H395.89999z" />
    </defs>
    <clipPath
       id="b">
      <use
         xlink:href="#a"
         width="100%"
         height="100%"
         overflow="visible"
         id="use5354" />
    </clipPath>
    <path
       class="st53"
       d="m 339.3,1028.6 c 1.5,-3.2 14.4,-31.3 27.4,-58.8 -6,-9.3 -2,-17 1.5,-23.7 1.9,-3.7 3.8,-7.1 3.6,-10.4 -0.8,-22 8.1,-38.3 22.8,-41.6 2.8,-0.6 5.2,-0.9 7.5,-0.9 3,0 5.6,0.5 8.1,1.6 1.4,-1.3 2.8,-2.6 4.2,-3.8 -2.8,-2.6 -4.3,-5.5 -4.5,-8.8 -0.3,-4.5 2.2,-9.5 6.8,-13.7 5.3,-4.8 16.5,-12.9 31.7,-12.9 0.9,0 1.7,0 2.6,0.1 -0.4,-0.9 -1,-2 -2.1,-2.9 -2.1,-1.6 -1.9,-3.2 -1.6,-4 0.7,-2.1 3.6,-3.2 8.1,-3.2 3.9,0 9.7,1.2 14,4.4 0.3,-0.7 0.7,-1.3 1.3,-1.7 0.5,-0.3 1.3,-0.5 2.2,-0.5 3.4,0 10.6,2.7 15.5,9.9 3.6,5.3 3.6,10.8 0.1,16 18.3,4.7 30.1,15.6 39.5,24.4 2.5,2.4 5,4.6 7.3,6.5 10.7,8.9 21.4,13.2 32.7,13.2 0.9,0 1.8,0 2.7,-0.1 2,-13.5 -4.1,-25.5 -10,-35.7 -6.2,-10.7 -6.4,-12.1 -4.9,-13.9 l 0.1,-0.1 c 0.6,-0.7 1.3,-1 2.1,-1.1 l 0.3,0 c 1.7,0 4.5,1 13,8.7 9.9,9 16.9,22.2 19.2,36.5 8.9,-4.9 15.2,-12.5 17.1,-20.3 2,-8.6 0.5,-16.8 -4.2,-22.7 -9.00961,-12.85375 2.21472,-5.16913 11.19048,-5.27598 6.42573,-0.0765 6.39394,-8.18776 11.16577,-4.91777 2.2875,1.025 2.54375,5.69375 0.74375,8.99375 -1.1,1.9 -2.5,6.2 0.4,13.3 3.7,8.9 3.5,29.2 -8.3,46.2 -8.1,11.7 -18.3,23 -37.6,26.6 -3,4.6 -6.5,9 -10.2,12.6 -7.8,7.6 -24,15.3 -42.3,15.3 -5.3,0 -10.7,-0.6 -15.9,-1.9 -7.6,12.9 -10.5,26.2 -10.6,32.1 -0.2,11 0.9,16.1 0.9,16.2 l 0.4,1.8 -164.9,0.8 z"
       clip-path="url(#b)"
       id="path5356"
       inkscape:connector-curvature="0"
       sodipodi:nodetypes="cccccsccccscccsccsccccscccccsccccsccccccscccccc" />
    <path
       class="st53"
       d="m 339.8,1028.8 c 0.1,-0.3 13.9,-30.1 27.5,-59.1 -6.1,-9.2 -2.1,-16.8 1.4,-23.5 2,-3.7 3.8,-7.3 3.7,-10.6 -0.8,-21.7 8,-37.9 22.4,-41 2.7,-0.6 5.1,-0.9 7.4,-0.9 3,0 5.7,0.5 8.2,1.7 1.6,-1.6 3.2,-3 4.9,-4.4 -3,-2.6 -4.6,-5.5 -4.8,-8.8 -0.3,-4.4 2.1,-9.2 6.6,-13.3 5.3,-4.8 16.4,-12.8 31.4,-12.8 1.1,0 2.2,0 3.3,0.1 -0.3,-1.1 -1,-2.7 -2.5,-3.8 -1.8,-1.4 -1.7,-2.8 -1.5,-3.4 0.6,-1.8 3.4,-2.9 7.6,-2.9 4.4,0 10.3,1.5 14.3,4.8 0.1,-0.9 0.6,-1.7 1.3,-2.1 0.4,-0.3 1.1,-0.4 1.9,-0.4 3.3,0 10.3,2.6 15.1,9.7 3.6,5.3 3.5,10.9 -0.3,16.1 18.6,4.6 30.5,15.6 40,24.4 2.6,2.4 5,4.6 7.3,6.5 10.8,8.9 21.6,13.3 33.1,13.3 1,0 2.1,0 3.1,-0.1 2.2,-13.9 -4,-26.1 -10,-36.4 -6.3,-10.9 -6.2,-11.8 -5,-13.3 l 0.1,-0.1 c 0.2,-0.2 0.7,-0.9 1.8,-0.9 l 0.2,0 c 1.5,0 4.2,1 12.7,8.6 10,9.1 17,22.5 19.2,36.9 9.3,-5 16,-12.8 17.9,-20.9 2.1,-8.9 0.4,-17.4 -4.5,-23.4 0,0 22.0125,-8.33125 21.7125,-8.73125 0.1,0.1 0.3875,-1.26875 0.4875,-1.06875 2,2.7 2.2,5.8 0.4,8.9 -1.1,2 -2.6,6.4 0.4,13.7 3.6,8.8 3.4,28.8 -8.2,45.7 -8.1,11.7 -18.2,22.9 -37.5,26.4 -3,4.7 -6.5,9.1 -10.3,12.7 -7.8,7.5 -23.7,15.1 -42,15.1 -5.4,0 -10.9,-0.7 -16.1,-2 -7.7,13.1 -10.7,26.7 -10.9,32.7 -0.2,11.1 0.9,16.2 0.9,16.3 l 0.3,1.2 -163.5,0.8 z"
       clip-path="url(#b)"
       id="path5358"
       inkscape:connector-curvature="0"
       sodipodi:nodetypes="cccccsccccsccssccsccccscccssscccccccccccscccccc" />
    <path
       class="st58"
       d="M388.5 927.9c20-40 49.9-56.3 83.4-54.9 33.6 1.4 48.8 21.7 62.4 32.9 13.6 11.2 27.5 15.6 43.4 12.5 15.9-3.1 28.5-14.6 31.2-26.1 2.7-11.5-1-20.7-6.1-25.8-5.1-5.1-1.4-8.1 4.1-6.8 5.4 1.4 8.1 3.4 8.1 3.4s7.8-6.4 9.8-3.7c2 2.7 1.7 5.4.3 7.8-1.4 2.4-2.7 7.1.3 14.6 3.1 7.5 4.1 27.1-8.1 44.8-12.2 17.6-26.5 30.1-62.1 26.5-38.5-3.9-54.6 44.2-54.9 59-.2 11.5.9 16.5.9 16.5l-160.7.8c.2-.1 33.4-72.4 48-101.5z"
       clip-path="url(#b)"
       fill="#53606c"
       stroke="#000"
       stroke-linecap="round"
       stroke-linejoin="round"
       stroke-miterlimit="10"
       id="path5368" />
    <path
       class="st59"
       d="M399.4 989.3c-6.1 0-9.9-4.3-10-4.3l-.2-.2-.3.1c-3.1 1-6.1 1.5-9 1.5-6.1 0-11.4-2.2-15.6-6.5 1.4-3 2.9-6.1 4.3-9.1.1.1.1.2.2.3 6.1 8 12.7 9.7 17 9.7 3.2 0 5.6-.9 6.6-1.3.7 1.3 3 4.7 7.5 4.7 1.2 0 2.5-.3 3.9-.8 6.7-2.5 15.7-13.1 18.3-22.1 3.2 5.7-2.8 18.3-13.8 25.3-3 1.7-6 2.7-8.9 2.7zm24.5-78.1c-5.7-11.1-10.8-14.2-12.4-14.9 15.7-15.3 34.7-23 56.6-23 1.3 0 2.5 0 3.8.1 2.1.1 4.2.3 6.4.5 1.5 2.7-.4 5.6-.8 6.3-3 .8-11.2 6.5-18.5 11.6-1.9 1.3-3.7 2.6-5.3 3.7-5.3 3.7-13.6 4.2-18 4.2-1.8 0-2.9-.1-2.9-.1h-.3l-8.6 11.6zm95.3 49c4.2-7.1 12.6-15.2 28.3-15.2 3.5 0 7.2.4 11 1.2 3.4.7 7 1.1 10.6 1.1 15.9 0 29.8-7.9 34.8-12.5 6.5-6 10.5-9.8 12-12.4 1.4-2.4 3.2-2.8 4.7-2 .1.1-.7 1.1-.6 1.1-.9 1.7-1.9 3.3-3 4.8-11.5 16.6-23.9 26.9-50 26.9-3.6 0-7.5-.2-11.6-.6-1.5-.2-3-.2-4.4-.2-9.4 0-18.1 3.2-25.9 9.4l-5.9-1.6z"
       clip-path="url(#b)"
       fill="#38434f"
       id="path5370" />
    <path
       class="st58"
       d="M427.4 920.5c-9.1-24.2-19-27.9-32.4-25-13.4 3-22.4 18-21.6 40 .4 10.2-15.5 20.5-4.3 35s23.5 8 23.5 8 3 7.1 11 4.1 16.7-13.5 18.5-21.6"
       clip-path="url(#b)"
       fill="#53606c"
       stroke="#000"
       stroke-linecap="round"
       stroke-linejoin="round"
       stroke-miterlimit="10"
       id="path5372" />
    <path
       class="st59"
       d="M417.2 934.2c-7.3.5-8.6-4.8-7.3-7 1.2-2.1 4.6-3.2 4.6-3.2s-5.3-.2-6.3-4c-1-3.7 4-5.3 4-5.3s-2.9-8.6-13.3-6.1-14.4 11.7-14.2 19c.6 15.3-10.2 22.8 0 29.7 10.1 6.9 23.7-2.8 28.5-11.3 4.8-8.5 4-11.8 4-11.8z"
       clip-path="url(#b)"
       fill="#38434f"
       id="path5374" />
    <path
       class="st57"
       d="M392.6 978.6c6.3-3.9 9.1-7.5 9.1-7.5m15.5-36.9c-7.3.5-8.6-4.8-7.3-7 1.2-2.1 4.6-3.2 4.6-3.2s-5.3-.2-6.3-4c-1-3.7 4-5.3 4-5.3s-2.9-8.6-13.3-6.1-14.6 11.7-14.2 19"
       clip-path="url(#b)"
       fill="none"
       stroke="#000"
       stroke-linecap="round"
       stroke-linejoin="round"
       stroke-miterlimit="10"
       id="path5376" />
    <path
       d="M417.5 891.4c-9.8-6.9-6.2-16 .3-21.8 6.5-5.8 19-14 35.2-12.2 0 0-.2-3.5-3.1-5.8s-.5-4.5 5.5-4.5 12.9 2.6 15.8 6.9c0 0-1.4-3.2.4-4.4 1.8-1.2 10.2 1 15.6 9s1.1 14.9-5.2 19.9c-6.3 5-36.2 11.6-48.8 10.9"
       clip-path="url(#b)"
       fill="#53606c"
       id="path5378" />
    <g
       class="st53"
       clip-path="url(#b)"
       id="g5380">
      <path
         class="st36"
         d="M459.5 878.7c-11.1.6-22.1 3.3-32.9 6.1-4.1 1.1-8.2 2.2-12.4 2-.4 0-.8-.1-1.3-.1 1 1.6 2.5 3.2 4.6 4.7l15.6-2.1c11.3.7 37-4.7 46.4-9.4-6.5-1.1-13.3-1.5-20-1.2z"
         fill="#38434f"
         id="path5382" />
    </g>
    <path
       class="st59"
       d="M417.5 890.8c-3.5-2.5-5.3-5.5-5.5-8.8-.2-3.2 1.2-6.7 4-9.9-.4 1.6-.2 3.2.5 4.7 1.2 2.5 3.6 4 6.3 4 2.1 0 4.3-.9 6.3-2.6 7.2-6 19.4-10.4 29.1-10.4 1.9 0 3.7.2 5.3.5 7.7 1.6 12.3 3.7 13.8 6.7.8 1.6.8 3.3 0 5.4-10.1 4.3-31.2 8.6-42.1 8.6-.7 0-1.4 0-2.1-.1-1.4-.1-2.8-.1-4-.1-7.5-.1-10.6 1.4-11.6 2z"
       clip-path="url(#b)"
       fill="#38434f"
       id="path5384" />
    <path
       class="st57"
       d="M471.2 854c2.2 3.4 1.1 6.7 1.1 6.7"
       clip-path="url(#b)"
       fill="none"
       stroke="#000"
       stroke-linecap="round"
       stroke-linejoin="round"
       stroke-miterlimit="10"
       id="path5386" />
    <path
       d="M489.6 967.9c34.6 23.5 68.7 8.7 80.2-2.4 11.4-11.1 20.8-28.5 20-45.9-.8-17.4-8.5-32.9-19.5-42.8-10.7-9.6-12.4-8.7-13.2-7.7-.8 1-1.4 1.1 5 12.2s13.4 24.6 9.5 40.2c-3.9 15.6-15.6 29.9-29.6 34-14 4-21.6-1.4-26.1-3.2 0 0 1 4-3.4 4.3-4.3.3-11.1-2.9-11.1-2.9s2.7 3 .1 5-5.9-.9-5.9-.9 2.5 2.2 1.5 3.3c-1 1.1-2.3.8-4.2-.6 0 0 3.2 3.6 1 5.5s-4.3 1.9-4.3 1.9z"
       clip-path="url(#b)"
       fill="#b3becd"
       stroke="#000"
       stroke-width="1.60000002"
       stroke-linecap="round"
       stroke-linejoin="round"
       stroke-miterlimit="10"
       id="path5388" />
    <path
       d="M528.6 979.9c-13.1 0-25.8-3.9-37.6-11.7.9-.2 2.1-.7 3.3-1.8 1.4-1.3 1-3 .3-4.3.4.1.8.2 1.1.2.7 0 1.3-.3 1.8-.8.3-.3.4-.6.4-1 0-.3-.1-.6-.2-.9.6.2 1.2.4 1.9.4.9 0 1.7-.3 2.4-.8.3-.2.5-.5.7-.8 12.6 6.2 22.6 9.1 31.5 9.1 7.8 0 14.7-2.3 21.1-6.9 16.8-12.3 21.3-21.3 24.6-27.9l.3-.6c2.3-4.5 4.2-6.5 6.4-6.5.9 0 1.7.3 2.7.9-1.4 13.6-8.7 28-19.6 38.6-7.9 7.4-23.4 14.8-41.1 14.8z"
       clip-path="url(#b)"
       fill="#92a1b5"
       id="path5390" />
    <path
       class="st57"
       d="M489.6 967.9c-3.9.1-6.7-.9-6.7-.9"
       clip-path="url(#b)"
       fill="none"
       stroke="#000"
       stroke-linecap="round"
       stroke-linejoin="round"
       stroke-miterlimit="10"
       id="path5392" />
    <path
       d="m 484,908.3 c -2.2,0.9 -2.1,3.2 0.1,6.7 2.1,3.5 4.5,7.9 5.9,10.3 1.4,2.4 2.6,3.5 4,2.8 1.4,-0.6 1.8,-2 0.4,-4.9 -1.4,-2.9 -5.8,-11 -7.2,-12.7 -1.6,-1.7 -2.4,-2.5 -3.2,-2.2 z"
       clip-path="url(#b)"
       stroke-miterlimit="10"
       id="path5394"
       inkscape:connector-curvature="0"
       transform="matrix(2.0260845,-0.59241015,-0.59241014,1.3420281,42.316753,-24.393469)"
       style="fill:#38434f;stroke:#000000;stroke-width:0.97474289;stroke-linecap:round;stroke-linejoin:round;stroke-miterlimit:10" />
    <path
       class="st57"
       d="M525.9 907.8c2.5-3.7 4.8-5.2 4.8-5.2m3.8 11.9c1.5-3.1 3.7-5.6 3.7-5.6m11.9 13.3c1-3.9 2.7-5.6 2.7-5.6m10.7 9c.6-4.6.9-6.6.9-6.6"
       clip-path="url(#b)"
       fill="none"
       stroke="#000"
       stroke-linecap="round"
       stroke-linejoin="round"
       stroke-miterlimit="10"
       id="path5396" />
    <g
       class="st53"
       clip-path="url(#b)"
       id="g5406">
      <path
         d="M491.2 946.7c-4.1 1.1-6.1 1.8-10 3.5-2.1.9-4.6.1-5.6-1.9s0-4.6 2.3-5.6c4.3-1.9 6.6-2.7 11.2-3.9 2.4-.6 4.8.8 5.3 2.9.4 2.2-1 4.4-3.2 5z"
         fill="#505762"
         id="path5408" />
    </g>
    <path
       class="st57"
       d="M515.8 952.3c-.2-2.3-1.7-3.3-1.7-3.3"
       clip-path="url(#b)"
       fill="none"
       stroke="#000"
       stroke-linecap="round"
       stroke-linejoin="round"
       stroke-miterlimit="10"
       id="path5410" />
    <g
       class="st53"
       clip-path="url(#b)"
       id="g5412">
      <path
         d="M454.5 887.5c-3.5.7-7.1 1.3-10.6 1.7-3.6.4-7.2.8-10.8.6-.3 0-.5-.2-.5-.5s.2-.5.5-.5c3.5.2 7.1-.1 10.6-.4 3.5-.4 7.1-.9 10.6-1.6.2 0 .4.1.4.3.1.2 0 .4-.2.4z"
         id="path5414" />
    </g>
    <g
       class="st53"
       clip-path="url(#b)"
       id="g5416">
      <path
         d="M417.2 891.8c-2.2-1.6-4.3-3.6-5.4-6.2l-.4-1-.2-1-.1-.5v-.5c0-.4-.1-.7-.1-1.1 0-1.4.2-2.8.7-4.1.9-2.6 2.6-4.9 4.4-6.9 1.9-2 4-3.6 6.2-5.2s4.6-2.9 7-4.1c2.4-1.2 5-2.2 7.6-2.9 5.2-1.5 10.7-1.9 16.1-1.4l-.6.5c-.2-1.3-.7-2.7-1.4-3.8-.4-.6-.8-1.1-1.4-1.5-.5-.5-1.2-1-1.5-1.9-.1-.2-.1-.5-.1-.7.1-.2.1-.5.2-.7.2-.4.6-.7.9-.9.7-.5 1.4-.7 2.2-.9 1.5-.3 3-.4 4.4-.4 2.9.1 5.9.7 8.6 1.8 2.7 1.1 5.3 2.8 7.1 5.3l-.9.5c-.3-.7-.5-1.3-.5-2.1-.1-.7 0-1.5.4-2.3.3-.3.5-.7 1-.8.2-.1.4-.1.6-.2.2 0 .4-.1.6-.1.7 0 1.4.1 2.1.2 1.4.3 2.6.8 3.9 1.4 1.2.6 2.4 1.3 3.5 2.1 2.2 1.6 4.1 3.6 5.6 5.9.7 1.2 1.4 2.4 1.8 3.7.3.6.4 1.3.5 2 .1.3.1.7.1 1v1c-.1 2.8-1.3 5.5-3 7.6-1.7 2.2-3.6 4-5.9 5.6-2.4 1.4-4.9 2.3-7.4 3.2-2.5.8-5.1 1.5-7.8 1.9 1.2-.5 2.5-.9 3.7-1.4l3.7-1.3c2.5-.9 5-1.8 7.2-3.2 2.1-1.5 4-3.3 5.6-5.4 1.5-2.1 2.6-4.5 2.7-7 .1-2.5-.8-5-2.2-7.1-1.4-2.2-3.2-4.1-5.3-5.6-2.1-1.5-4.4-2.8-6.9-3.4-.6-.1-1.2-.2-1.8-.2-.6 0-1 .1-1.3.5-.5.8-.2 2.3.2 3.4.1.3 0 .5-.3.6-.2.1-.4 0-.6-.2-1.6-2.3-4-3.8-6.6-4.9-2.6-1.1-5.4-1.7-8.2-1.7-1.4 0-2.8.1-4.2.4-.7.2-1.3.4-1.8.7-.5.4-.8.8-.7 1.3.1.5.6.9 1.2 1.4.6.5 1.1 1.1 1.5 1.7.9 1.3 1.4 2.7 1.6 4.3 0 .3-.2.5-.4.5h-.1c-5.3-.5-10.7-.1-15.8 1.4-2.5.7-5 1.7-7.4 2.8-2.4 1.2-4.7 2.5-6.8 4.1-2.2 1.5-4.3 3.2-6.1 5.1-1.8 1.9-3.4 4.1-4.2 6.5-.4 1.2-.6 2.5-.7 3.8 0 .3.1.6.1 1v.5l.1.5.2.9.4.9c1 2.4 2.9 4.3 5 5.8.2.2.3.5.1.7-.2.2-.4.3-.7.1z"
         id="path5418" />
    </g>
    <g
       class="st53"
       clip-path="url(#b)"
       id="g5420">
      <path
         class="st36"
         d="M615.1 863.2c2 1.2 2.3 1.8 2.3 1.8"
         fill="#38434f"
         id="path5422" />
      <path
         d="M615.3 862.9l1.2.9c.2.2.4.3.6.5.2.2.3.4.5.6 0 .1 0 .2-.1.2h-.2l-.5-.5c-.2-.1-.4-.3-.6-.4-.4-.3-.8-.5-1.3-.7-.2-.1-.2-.3-.1-.5s.2-.2.5-.1c-.1 0-.1 0 0 0z"
         id="path5424" />
    </g>
    <path
       style="fill:none;fill-rule:evenodd;stroke:#f9ff66;stroke-width:4;stroke-linecap:round;stroke-linejoin:miter;stroke-miterlimit:4;stroke-dasharray:none;stroke-opacity:1;fill-opacity:1"
       d="m 517.52235,881.3573 -0.7071,-13.08148"
       id="path5972"
       inkscape:connector-curvature="0" />
    <path
       style="fill:none;fill-rule:evenodd;stroke:#f9ff66;stroke-width:4;stroke-linecap:round;stroke-linejoin:miter;stroke-opacity:1;stroke-miterlimit:4;stroke-dasharray:none;fill-opacity:1"
       d="m 524.23987,883.47861 2.82843,-12.72792"
       id="path5974"
       inkscape:connector-curvature="0" />
    <path
       style="fill:none;fill-rule:evenodd;stroke:#f9ff66;stroke-width:4;stroke-linecap:round;stroke-linejoin:miter;stroke-opacity:1;stroke-miterlimit:4;stroke-dasharray:none;fill-opacity:1"
       d="m 528.83606,885.59993 7.07107,-10.25305"
       id="path5976"
       inkscape:connector-curvature="0" />
    <path
       style="fill:none;fill-rule:evenodd;stroke:#f9ff66;stroke-width:4;stroke-linecap:round;stroke-linejoin:miter;stroke-opacity:1;stroke-miterlimit:4;stroke-dasharray:none;fill-opacity:1"
       d="m 532.01805,890.19613 11.3137,-5.65686"
       id="path5978"
       inkscape:connector-curvature="0" />
  </g>
</svg>
