<svg version="1.1" viewBox="0 0 16 16" xmlns="http://www.w3.org/2000/svg"><path d="m4 16v-13.182l2-1.8182h1l2 1.8182v13.182z" fill="#66757f"/><path d="m15 4.4615c0-0.46154-0.57156-0.46154-0.57156-0.46154h-2.8569s-0.57156-4.801e-4 -0.57156 0.46108v11.539h4z" fill="#66757f"/><g fill="#292f33"><path d="m12 7.45c0-0.45-0.4-0.45-0.4-0.45h-3.2c-0.4 0-0.4 0.45-0.4 0.45v8.55h4z"/><path d="m3 6.4348s0-0.43478-0.5-0.43478h-2.5v10h3z"/><path d="m6 8.4706s0-0.47059-0.5-0.47059h-3s-0.5-4.705e-4 -0.5 0.47059v7.5294h4z"/><path d="m13 11.455s0-0.45454 0.6-0.45454h2.4v5h-3z"/></g><g fill="#ffcc4d"><path d="m5 14h-1v-1h1z"/><path d="m5 10h-1v-1h1z"/><path d="m8 5h-1v-1h1z"/><path d="m8 7h-1v-1h1z"/><path d="m7 9h-1v-1h1z"/><path d="m11 9h-1v-1h1z"/><path d="m10 11h-1v-1h1z"/><path d="m10 13h-1v-1h1z"/><path d="m14 6h-1v-1h1z"/><path d="m14 8h-1v-1h1z"/><path d="m4 12h-1v-1h1z"/><path d="m13 11h-1v-1h1z"/><path d="m6 6h-1v-1h1z"/></g><g fill="none" stroke="#55b4ff" stroke-dashoffset="6" stroke-linecap="round" stroke-linejoin="round"><path d="m10.5 1.5h4l-4 5h4" style="paint-order:stroke fill markers"/><path d="m5.5 2.5h3l-3 4h3" style="paint-order:stroke fill markers"/><path d="m1.5 0.5h2l-2 3h2" style="paint-order:stroke fill markers"/></g></svg>
